<svg width="10" height="14" viewBox="0 0 10 14" fill="none" xmlns="http://www.w3.org/2000/svg">
<path d="M4.65872 13.8173C4.73479 13.9314 4.86287 14 5 14C5.13713 14 5.26521 13.9315 5.34128 13.8173C6.31195 12.3614 7.74168 10.5632 8.73797 8.73444C9.53461 7.27221 9.92188 6.02509 9.92188 4.92188C9.92188 2.20795 7.71392 0 5 0C2.28608 0 0.078125 2.20795 0.078125 4.92188C0.078125 6.02509 0.465394 7.27221 1.26203 8.73444C2.25759 10.5618 3.69004 12.3644 4.65872 13.8173ZM5 0.820312C7.2616 0.820312 9.10156 2.66027 9.10156 4.92188C9.10156 5.88448 8.747 7.00323 8.01763 8.342C7.15884 9.91834 5.93335 11.5174 5 12.8617C4.06679 11.5176 2.84121 9.91843 1.98237 8.342C1.253 7.00323 0.898438 5.88448 0.898438 4.92188C0.898438 2.66027 2.7384 0.820312 5 0.820312Z" fill="#0270FF"/>
<path d="M5 7.38281C6.35696 7.38281 7.46094 6.27884 7.46094 4.92188C7.46094 3.56491 6.35696 2.46094 5 2.46094C3.64304 2.46094 2.53906 3.56491 2.53906 4.92188C2.53906 6.27884 3.64304 7.38281 5 7.38281ZM5 3.28125C5.90464 3.28125 6.64062 4.01723 6.64062 4.92188C6.64062 5.82652 5.90464 6.5625 5 6.5625C4.09536 6.5625 3.35938 5.82652 3.35938 4.92188C3.35938 4.01723 4.09536 3.28125 5 3.28125Z" fill="#0270FF"/>
</svg>
