<svg width="188" height="112" viewBox="0 0 188 112" fill="none" xmlns="http://www.w3.org/2000/svg">
<path d="M21.3135 101.211L39 111.423L56.6865 101.211V80.7887L39 70.5774L21.3135 80.7887V101.211Z" stroke="#EBF2FA"/>
<path d="M3.31347 70.2113L21 80.4226L38.6865 70.2113V49.7887L21 39.5774L3.31347 49.7887V70.2113Z" stroke="#EBF2FA"/>
<path d="M21.5 86L27.9952 82.25V74.75L21.5 71L15.0048 74.75V82.25L21.5 86Z" fill="#DBA5F5"/>
<path d="M39.3135 70.2113L57 80.4226L74.6865 70.2113V49.7887L57 39.5774L39.3135 49.7887V70.2113Z" stroke="#EBF2FA"/>
<path d="M166.687 10.7887L149 0.57735L131.313 10.7887V31.2113L149 41.4226L166.687 31.2113V10.7887Z" stroke="#EBF2FA"/>
<path d="M184.687 41.7887L167 31.5774L149.313 41.7887V62.2113L167 72.4226L184.687 62.2113V41.7887Z" stroke="#EBF2FA"/>
<path d="M166.5 26L160.005 29.75V37.25L166.5 41L172.995 37.25V29.75L166.5 26Z" fill="#B647E9"/>
<path d="M148.687 41.7887L131 31.5774L113.313 41.7887V62.2113L131 72.4226L148.687 62.2113V41.7887Z" stroke="#EBF2FA"/>
<mask id="mask0_343_112" style="mask-type:alpha" maskUnits="userSpaceOnUse" x="45" y="1" width="98" height="110">
<path d="M90 2.3094C92.4752 0.880338 95.5248 0.880339 98 2.3094L138.497 25.6906C140.973 27.1197 142.497 29.7607 142.497 32.6188V79.3812C142.497 82.2393 140.973 84.8803 138.497 86.3094L98 109.691C95.5248 111.12 92.4752 111.12 90 109.691L49.5026 86.3094C47.0274 84.8803 45.5026 82.2393 45.5026 79.3812V32.6188C45.5026 29.7607 47.0274 27.1197 49.5026 25.6906L90 2.3094Z" fill="#C4C4C4"/>
</mask>
<g mask="url(#mask0_343_112)">
<path d="M94.2959 65.52V-7.46667L165.76 -32V106L94.2959 65.52Z" fill="url(#paint0_linear_343_112)"/>
<path d="M94.2959 65.52V-7.46667L24.0638 -32V106L94.2959 65.52Z" fill="url(#paint1_linear_343_112)"/>
<path d="M-9 124.661L94.1443 65L200.81 124.661H-9Z" fill="url(#paint2_linear_343_112)"/>
</g>
<path d="M90.6673 8.17543C92.8331 6.925 95.5015 6.925 97.6673 8.17543L133.835 29.0566C136 30.3071 137.335 32.6179 137.335 35.1188V76.8812C137.335 79.3821 136 81.6929 133.835 82.9434L97.6673 103.825C95.5015 105.075 92.8331 105.075 90.6673 103.825L54.5 82.9434C52.3342 81.6929 51 79.3821 51 76.8812V35.1188C51 32.6179 52.3342 30.3071 54.5 29.0566L90.6673 8.17543Z" stroke="white" stroke-width="2"/>
<path d="M107.548 63.0182C105.647 65.629 102.568 67.3294 99.0983 67.3294H94.2303C92.5487 67.3294 91.1166 66.2618 90.5744 64.7675C89.905 64.5678 89.2486 64.3086 88.6081 63.9904C87.2516 63.3164 86.0199 62.4033 84.9357 61.2722C77.9028 62.8173 72.6392 69.0839 72.6392 76.581V77.5609C72.6392 78.9079 73.7312 80 75.0783 80H112.922C114.269 80 115.361 78.9079 115.361 77.5609V76.581C115.361 70.7895 112.219 65.732 107.548 63.0182Z" fill="white"/>
<path d="M82.3433 56.2448C83.3916 56.2448 84.304 55.6638 84.7767 54.8063C84.7892 54.8403 84.8018 54.874 84.8145 54.9077C84.8183 54.9179 84.8221 54.928 84.8258 54.9381C85.9348 57.8572 88.0926 60.3042 90.9379 61.3734C91.6261 60.28 92.8429 59.5528 94.2304 59.5528H99.0984C99.5839 59.5528 100.036 59.4158 100.432 59.1943C101.097 58.8222 101.696 57.8784 102.005 57.3781C102.499 56.5775 102.882 55.7294 103.222 54.8049C103.413 55.1516 103.675 55.4531 103.99 55.6894V56.8831C103.99 59.5804 101.796 61.7748 99.0983 61.7748H94.2303C93.31 61.7748 92.5639 62.5209 92.5639 63.4412C92.5639 64.3616 93.31 65.1076 94.2303 65.1076H99.0983C103.633 65.1076 107.323 61.4181 107.323 56.8831V55.6894C107.997 55.1827 108.434 54.3761 108.434 53.4675V48.4428V46.516C108.434 45.5887 107.979 44.7682 107.281 44.2638C106.739 37.4108 100.99 32 93.9998 32C87.0099 32 81.2605 37.4108 80.719 44.2637C80.0207 44.7681 79.5659 45.5887 79.5659 46.5159V53.4673C79.5659 55.0056 80.8156 56.2448 82.3433 56.2448ZM93.9998 35.3329C99.1742 35.3329 103.442 39.2872 103.941 44.3326C103.613 44.5902 103.345 44.9194 103.16 45.2972C101.588 41.1949 98.0779 38.3387 93.9997 38.3387C89.8336 38.3387 86.3798 41.293 84.8452 45.2809C84.8432 45.2863 84.8412 45.2918 84.8391 45.2974C84.6543 44.9196 84.386 44.5903 84.0585 44.3327C84.5577 39.2872 88.8254 35.3329 93.9998 35.3329Z" fill="white"/>
<defs>
<linearGradient id="paint0_linear_343_112" x1="130.028" y1="-32" x2="130.028" y2="106" gradientUnits="userSpaceOnUse">
<stop stop-color="#8717AE"/>
<stop offset="1" stop-color="#BE70E2"/>
</linearGradient>
<linearGradient id="paint1_linear_343_112" x1="59.1798" y1="-32" x2="59.1798" y2="106" gradientUnits="userSpaceOnUse">
<stop stop-color="#B130ED"/>
<stop offset="1" stop-color="#C184DE"/>
</linearGradient>
<linearGradient id="paint2_linear_343_112" x1="95.9052" y1="65" x2="95.9052" y2="124.661" gradientUnits="userSpaceOnUse">
<stop stop-color="#B74DE8"/>
<stop offset="1" stop-color="#BE6CE4"/>
</linearGradient>
</defs>
</svg>
