<svg width="188" height="112" viewBox="0 0 188 112" fill="none" xmlns="http://www.w3.org/2000/svg">
<path d="M21.3135 101.211L39 111.423L56.6865 101.211V80.7887L39 70.5774L21.3135 80.7887V101.211Z" stroke="#EBF2FA"/>
<path d="M3.31347 70.2113L21 80.4226L38.6865 70.2113V49.7887L21 39.5774L3.31347 49.7887V70.2113Z" stroke="#EBF2FA"/>
<path d="M21.5 86L27.9952 82.25V74.75L21.5 71L15.0048 74.75V82.25L21.5 86Z" fill="#B5E2FC"/>
<path d="M39.3135 70.2113L57 80.4226L74.6865 70.2113V49.7887L57 39.5774L39.3135 49.7887V70.2113Z" stroke="#EBF2FA"/>
<path d="M166.687 10.7887L149 0.57735L131.313 10.7887V31.2113L149 41.4226L166.687 31.2113V10.7887Z" stroke="#EBF2FA"/>
<path d="M184.687 41.7887L167 31.5774L149.313 41.7887V62.2113L167 72.4226L184.687 62.2113V41.7887Z" stroke="#EBF2FA"/>
<path d="M166.5 26L160.005 29.75V37.25L166.5 41L172.995 37.25V29.75L166.5 26Z" fill="#3A83F7"/>
<path d="M148.687 41.7887L131 31.5774L113.313 41.7887V62.2113L131 72.4226L148.687 62.2113V41.7887Z" stroke="#EBF2FA"/>
<mask id="mask0_40_1158" style="mask-type:alpha" maskUnits="userSpaceOnUse" x="45" y="1" width="98" height="110">
<path d="M90 2.3094C92.4752 0.880338 95.5248 0.880339 98 2.3094L138.497 25.6906C140.973 27.1197 142.497 29.7607 142.497 32.6188V79.3812C142.497 82.2393 140.973 84.8803 138.497 86.3094L98 109.691C95.5248 111.12 92.4752 111.12 90 109.691L49.5026 86.3094C47.0274 84.8803 45.5026 82.2393 45.5026 79.3812V32.6188C45.5026 29.7607 47.0274 27.1197 49.5026 25.6906L90 2.3094Z" fill="#C4C4C4"/>
</mask>
<g mask="url(#mask0_40_1158)">
<path d="M94.2959 61.52V-11.4667L165.76 -36V102L94.2959 61.52Z" fill="url(#paint0_linear_40_1158)"/>
<path d="M94.2959 61.52V-11.4667L24.0638 -36V102L94.2959 61.52Z" fill="url(#paint1_linear_40_1158)"/>
<path d="M-9 120.661L94.1443 61L200.81 120.661H-9Z" fill="url(#paint2_linear_40_1158)"/>
</g>
<path d="M90.6673 8.17543C92.8331 6.925 95.5015 6.925 97.6673 8.17543L133.835 29.0566C136 30.3071 137.335 32.6179 137.335 35.1188V76.8812C137.335 79.3821 136 81.6929 133.835 82.9434L97.6673 103.825C95.5015 105.075 92.8331 105.075 90.6673 103.825L54.5 82.9434C52.3342 81.6929 51 79.3821 51 76.8812V35.1188C51 32.6179 52.3342 30.3071 54.5 29.0566L90.6673 8.17543Z" stroke="white" stroke-width="2"/>
<g clip-path="url(#clip0_40_1158)">
<path d="M70 74.9119C70 75.4447 70.3007 75.931 70.7775 76.1698L78.5312 80V69.6194L70 65.4006V74.9119Z" fill="white"/>
<path d="M81.3438 69.6194V80L89.0042 76.1698C89.4806 75.931 89.7812 75.4451 89.7812 74.9119V71.5625H98.2188V74.9119C98.2188 75.4451 98.5194 75.931 98.9962 76.1698L106.656 80V69.6194L98.2188 65.4006V68.75H89.7812V65.4003L81.3438 69.6194Z" fill="white"/>
<path d="M80.5667 57.6487C80.1704 57.4506 79.7046 57.4506 79.3087 57.6487L70.1663 62.3387L79.9375 67.1775L89.615 62.3387L85.5087 60.21L89.4502 53.0216L92.5938 54.6875V44.2131L84.1562 39.9944V49.5056C84.1562 50.0385 84.4569 50.5248 84.9337 50.7635L86.9325 51.7633L83.0111 58.9158L80.5667 57.6487Z" fill="white"/>
<path d="M109.469 80L117.223 76.1698C117.699 75.931 118 75.4451 118 74.9119V65.4003L109.469 69.6194V80Z" fill="white"/>
<path d="M103.844 49.5056V39.994L95.4062 44.2131V54.6875L98.5502 53.022L102.491 60.2103L98.385 62.3387L108.062 67.1775L117.834 62.3387L108.692 57.6483C108.295 57.4502 107.83 57.4502 107.434 57.6483L104.989 58.9158L101.068 51.7633L103.067 50.7635C103.543 50.5248 103.844 50.0385 103.844 49.5056Z" fill="white"/>
<path d="M93.3712 32.1487L84.3225 36.9325L94 41.7713L103.677 36.9325L94.6292 32.1483C94.2329 31.9506 93.7671 31.9506 93.3712 32.1487Z" fill="white"/>
</g>
<defs>
<linearGradient id="paint0_linear_40_1158" x1="130.028" y1="-36" x2="130.028" y2="102" gradientUnits="userSpaceOnUse">
<stop stop-color="#12339E"/>
<stop offset="1" stop-color="#2050B7"/>
</linearGradient>
<linearGradient id="paint1_linear_40_1158" x1="59.1798" y1="-36" x2="59.1798" y2="102" gradientUnits="userSpaceOnUse">
<stop stop-color="#2853B6"/>
<stop offset="1" stop-color="#3C89E8"/>
</linearGradient>
<linearGradient id="paint2_linear_40_1158" x1="95.9052" y1="61" x2="95.9052" y2="120.661" gradientUnits="userSpaceOnUse">
<stop stop-color="#275DC6"/>
<stop offset="1" stop-color="#3579E2"/>
</linearGradient>
<clipPath id="clip0_40_1158">
<rect width="48" height="48" fill="white" transform="translate(70 32)"/>
</clipPath>
</defs>
</svg>
