<svg width="128" height="139" viewBox="0 0 128 139" fill="none" xmlns="http://www.w3.org/2000/svg">
<g filter="url(#filter0_d_389_524)">
<path d="M60 17.3094C62.4752 15.8803 65.5248 15.8803 68 17.3094L103.734 37.9406C106.209 39.3697 107.734 42.0107 107.734 44.8688V86.1312C107.734 88.9893 106.209 91.6303 103.734 93.0594L68 113.691C65.5248 115.12 62.4752 115.12 60 113.691L24.2657 93.0594C21.7905 91.6303 20.2657 88.9893 20.2657 86.1312V44.8688C20.2657 42.0107 21.7905 39.3697 24.2657 37.9406L60 17.3094Z" fill="#56BCDF"/>
</g>
<path d="M60.75 21.7424C63.0705 20.4027 65.9295 20.4027 68.25 21.7424L100.52 40.3736C102.841 41.7134 104.27 44.1893 104.27 46.8688V84.1312C104.27 86.8107 102.841 89.2866 100.52 90.6264L68.25 109.258C65.9295 110.597 63.0705 110.597 60.75 109.258L28.4798 90.6264C26.1593 89.2866 24.7298 86.8107 24.7298 84.1312V46.8688C24.7298 44.1893 26.1593 41.7134 28.4798 40.3736L60.75 21.7424Z" fill="#56BCDF" stroke="white"/>
<path d="M73.909 53.4884C73.909 52.5968 73.5611 51.7576 72.9306 51.127L69.782 47.9785C69.1602 47.3566 68.2776 47 67.3991 47H67.2078V53.6797H73.9091L73.909 53.4884Z" fill="white"/>
<path d="M65.3313 69.9734C65.5443 69.3266 65.9162 68.7243 66.4011 68.2361L73.9389 60.7287V55.9062H66.1162C65.5009 55.9062 65.0391 55.4083 65.0391 54.793V47H48.3398C46.4982 47 45 48.4982 45 50.3398V81.6602C45 83.5018 46.4982 85 48.3398 85H70.5693C72.411 85 73.9389 83.5018 73.9389 81.6602V73.3513L72.7154 74.545C72.2197 75.0364 71.6392 75.3941 70.9847 75.6127L67.4448 76.7945L66.9055 76.8238C66.014 76.8238 65.1704 76.39 64.6464 75.6638C64.1267 74.9408 63.9854 74.0037 64.268 73.1568L65.3313 69.9734ZM50.5664 67.0391H61.6631C62.2784 67.0391 62.7764 67.537 62.7764 68.1523C62.7764 68.7677 62.2784 69.2656 61.6631 69.2656H50.5664C49.9511 69.2656 49.4531 68.7677 49.4531 68.1523C49.4531 67.537 49.9511 67.0391 50.5664 67.0391ZM49.4531 63.6992C49.4531 63.0839 49.9511 62.5859 50.5664 62.5859H61.6631C62.2784 62.5859 62.7764 63.0839 62.7764 63.6992C62.7764 64.3146 62.2784 64.8125 61.6631 64.8125H50.5664C49.9511 64.8125 49.4531 64.3146 49.4531 63.6992ZM49.4531 72.6055C49.4531 71.9901 49.9511 71.4922 50.5664 71.4922H61.6631C62.2784 71.4922 62.7764 71.9901 62.7764 72.6055C62.7764 73.2208 62.2784 73.7188 61.6631 73.7188H50.5664C49.9511 73.7188 49.4531 73.2208 49.4531 72.6055ZM66.1162 78.1719C66.7315 78.1719 67.2295 78.6698 67.2295 79.2852C67.2295 79.9005 66.7316 80.3984 66.1162 80.3984H59.4365C58.8212 80.3984 58.3232 79.9005 58.3232 79.2852C58.3232 78.6698 58.8212 78.1719 59.4365 78.1719H66.1162ZM50.5664 60.3594C49.9511 60.3594 49.4531 59.8614 49.4531 59.2461C49.4531 58.6307 49.9511 58.1328 50.5664 58.1328H66.1162C66.7315 58.1328 67.2295 58.6307 67.2295 59.2461C67.2295 59.8614 66.7315 60.3594 66.1162 60.3594H50.5664Z" fill="white"/>
<path d="M67.348 70.9584L66.3794 73.8642C66.2342 74.2995 66.6485 74.7135 67.0837 74.5681L69.9878 73.5982L67.348 70.9584Z" fill="white"/>
<path d="M75.9943 61.7923L68.6624 69.1243L71.8244 72.2864C73.4816 70.6289 76.706 67.4041 79.1561 64.954L75.9943 61.7923Z" fill="white"/>
<path d="M82.3458 58.5992C81.9544 58.2056 81.3782 57.9806 80.7671 57.9806C80.1561 57.9806 79.5799 58.2056 79.1863 58.6003L77.5686 60.2181L80.7302 63.3796C81.6158 62.4939 82.228 61.8818 82.3481 61.7617C83.2177 60.8908 83.2176 59.4722 82.3458 58.5992Z" fill="white"/>
<path d="M82.3479 61.7618C82.348 61.7618 82.348 61.7617 82.348 61.7616C82.3509 61.7588 82.3521 61.7575 82.3544 61.7552C82.3521 61.7576 82.3509 61.7589 82.3479 61.7618Z" fill="white"/>
<path d="M82.3545 61.7552C82.3581 61.7517 82.3622 61.7475 82.3644 61.7454C82.3621 61.7476 82.3581 61.7517 82.3545 61.7552Z" fill="white"/>
<path d="M82.3643 61.7454C82.3715 61.7382 82.3716 61.738 82.3643 61.7454V61.7454Z" fill="white"/>
<defs>
<filter id="filter0_d_389_524" x="0.265625" y="0.23761" width="127.469" height="138.525" filterUnits="userSpaceOnUse" color-interpolation-filters="sRGB">
<feFlood flood-opacity="0" result="BackgroundImageFix"/>
<feColorMatrix in="SourceAlpha" type="matrix" values="0 0 0 0 0 0 0 0 0 0 0 0 0 0 0 0 0 0 127 0" result="hardAlpha"/>
<feOffset dy="4"/>
<feGaussianBlur stdDeviation="10"/>
<feComposite in2="hardAlpha" operator="out"/>
<feColorMatrix type="matrix" values="0 0 0 0 0.94902 0 0 0 0 0.964706 0 0 0 0 0.980392 0 0 0 1 0"/>
<feBlend mode="normal" in2="BackgroundImageFix" result="effect1_dropShadow_389_524"/>
<feBlend mode="normal" in="SourceGraphic" in2="effect1_dropShadow_389_524" result="shape"/>
</filter>
</defs>
</svg>
