<svg width="128" height="139" viewBox="0 0 128 139" fill="none" xmlns="http://www.w3.org/2000/svg">
<g filter="url(#filter0_d_389_571)">
<path d="M60 17.3094C62.4752 15.8803 65.5248 15.8803 68 17.3094L103.734 37.9406C106.209 39.3697 107.734 42.0107 107.734 44.8688V86.1312C107.734 88.9893 106.209 91.6303 103.734 93.0594L68 113.691C65.5248 115.12 62.4752 115.12 60 113.691L24.2657 93.0594C21.7905 91.6303 20.2657 88.9893 20.2657 86.1312V44.8688C20.2657 42.0107 21.7905 39.3697 24.2657 37.9406L60 17.3094Z" fill="#A140C6"/>
</g>
<path d="M60.25 21.7424C62.5705 20.4027 65.4295 20.4027 67.75 21.7424L100.02 40.3736C102.341 41.7134 103.77 44.1893 103.77 46.8688V84.1312C103.77 86.8107 102.341 89.2866 100.02 90.6264L67.75 109.258C65.4295 110.597 62.5705 110.597 60.25 109.258L27.9798 90.6264C25.6593 89.2866 24.2298 86.8107 24.2298 84.1312V46.8688C24.2298 44.1893 25.6593 41.7134 27.9798 40.3736L60.25 21.7424Z" fill="#A140C6" stroke="white"/>
<path d="M81.0194 63.3281L73.6224 70.5386L75.3693 80.7226C75.4453 81.1679 75.2624 81.618 74.8966 81.884C74.69 82.0348 74.4442 82.1108 74.1984 82.1108C74.0096 82.1108 73.8196 82.0657 73.6462 81.9742L64.5001 77.1661L55.3551 81.9731C54.9561 82.1844 54.4704 82.15 54.1047 81.8828C53.7389 81.6168 53.5561 81.1667 53.6321 80.7214L55.3789 70.5374L47.9808 63.3281C47.6578 63.0122 47.5402 62.5396 47.6803 62.1109C47.8204 61.6822 48.1921 61.3676 48.6398 61.3022L58.863 59.8179L63.4349 50.553C63.8351 49.7419 65.1651 49.7419 65.5653 50.553L70.1371 59.8179L80.3603 61.3022C80.808 61.3676 81.1797 61.6811 81.3198 62.1109C81.4599 62.5408 81.3424 63.0111 81.0194 63.3281Z" fill="white"/>
<defs>
<filter id="filter0_d_389_571" x="0.265625" y="0.23761" width="127.469" height="138.525" filterUnits="userSpaceOnUse" color-interpolation-filters="sRGB">
<feFlood flood-opacity="0" result="BackgroundImageFix"/>
<feColorMatrix in="SourceAlpha" type="matrix" values="0 0 0 0 0 0 0 0 0 0 0 0 0 0 0 0 0 0 127 0" result="hardAlpha"/>
<feOffset dy="4"/>
<feGaussianBlur stdDeviation="10"/>
<feComposite in2="hardAlpha" operator="out"/>
<feColorMatrix type="matrix" values="0 0 0 0 0.94902 0 0 0 0 0.964706 0 0 0 0 0.980392 0 0 0 1 0"/>
<feBlend mode="normal" in2="BackgroundImageFix" result="effect1_dropShadow_389_571"/>
<feBlend mode="normal" in="SourceGraphic" in2="effect1_dropShadow_389_571" result="shape"/>
</filter>
</defs>
</svg>
