<svg width="129" height="139" viewBox="0 0 129 139" fill="none" xmlns="http://www.w3.org/2000/svg">
<g filter="url(#filter0_d_389_572)">
<path d="M60.5 17.3094C62.9752 15.8803 66.0248 15.8803 68.5 17.3094L104.234 37.9406C106.709 39.3697 108.234 42.0107 108.234 44.8688V86.1312C108.234 88.9893 106.709 91.6303 104.234 93.0594L68.5 113.691C66.0248 115.12 62.9752 115.12 60.5 113.691L24.7657 93.0594C22.2905 91.6303 20.7657 88.9893 20.7657 86.1312V44.8688C20.7657 42.0107 22.2905 39.3697 24.7657 37.9406L60.5 17.3094Z" fill="#1C46AE"/>
</g>
<path d="M60.75 21.7424C63.0705 20.4027 65.9295 20.4027 68.25 21.7424L100.52 40.3736C102.841 41.7134 104.27 44.1893 104.27 46.8688V84.1312C104.27 86.8107 102.841 89.2866 100.52 90.6264L68.25 109.258C65.9295 110.597 63.0705 110.597 60.75 109.258L28.4798 90.6264C26.1593 89.2866 24.7298 86.8107 24.7298 84.1312V46.8688C24.7298 44.1893 26.1593 41.7134 28.4798 40.3736L60.75 21.7424Z" fill="#1C46AE" stroke="white"/>
<g clip-path="url(#clip0_389_572)">
<path d="M83.2212 47.0047C75.8033 46.8717 67.3435 50.7493 61.9887 56.7644C56.8714 56.861 51.8886 58.9589 48.22 62.6275C48.0063 62.8381 47.9303 63.1531 48.0237 63.4381C48.1187 63.7247 48.3657 63.9321 48.6634 63.9749L54.7655 64.8489L54.0119 65.6928C53.7316 66.0063 53.7459 66.4829 54.0435 66.7806L64.2196 76.9566C64.3732 77.1102 64.5759 77.1878 64.7801 77.1878C64.9685 77.1878 65.1569 77.1213 65.3074 76.9867L66.1513 76.2331L67.0253 82.3352C67.068 82.6329 67.3024 82.8514 67.5858 82.9464C67.6586 82.9701 67.7346 82.9812 67.8122 82.9812C68.037 82.9812 68.2666 82.8831 68.4249 82.7263C72.0429 79.1084 74.1408 74.1256 74.2374 69.0083C80.2588 63.6424 84.168 55.1858 83.9954 47.7774C83.9844 47.3562 83.6439 47.0158 83.2212 47.0047ZM75.9252 60.6721C75.1541 61.4431 74.1408 61.8295 73.1259 61.8295C72.1109 61.8295 71.0976 61.4431 70.3265 60.6721C68.7844 59.1283 68.7844 56.6171 70.3265 55.0734C71.8703 53.5296 74.3814 53.5296 75.9252 55.0734C77.4689 56.6171 77.4689 59.1299 75.9252 60.6721Z" fill="white"/>
<path d="M50.3131 73.7662C48.6189 75.4604 46.293 83.1142 46.0333 83.9803C45.9494 84.259 46.027 84.5614 46.2313 84.7672C46.3833 84.9192 46.5843 85 46.7918 85C46.8678 85 46.9438 84.9889 47.0198 84.9667C47.8858 84.7071 55.5397 82.3811 57.2338 80.687C59.1418 78.7791 59.1418 75.6741 57.2338 73.7662C55.3243 71.8583 52.221 71.8599 50.3131 73.7662Z" fill="white"/>
</g>
<defs>
<filter id="filter0_d_389_572" x="0.765625" y="0.23761" width="127.469" height="138.525" filterUnits="userSpaceOnUse" color-interpolation-filters="sRGB">
<feFlood flood-opacity="0" result="BackgroundImageFix"/>
<feColorMatrix in="SourceAlpha" type="matrix" values="0 0 0 0 0 0 0 0 0 0 0 0 0 0 0 0 0 0 127 0" result="hardAlpha"/>
<feOffset dy="4"/>
<feGaussianBlur stdDeviation="10"/>
<feComposite in2="hardAlpha" operator="out"/>
<feColorMatrix type="matrix" values="0 0 0 0 0.94902 0 0 0 0 0.964706 0 0 0 0 0.980392 0 0 0 1 0"/>
<feBlend mode="normal" in2="BackgroundImageFix" result="effect1_dropShadow_389_572"/>
<feBlend mode="normal" in="SourceGraphic" in2="effect1_dropShadow_389_572" result="shape"/>
</filter>
<clipPath id="clip0_389_572">
<rect width="38" height="38" fill="white" transform="translate(46 47)"/>
</clipPath>
</defs>
</svg>
