<svg width="129" height="139" viewBox="0 0 129 139" fill="none" xmlns="http://www.w3.org/2000/svg">
<g filter="url(#filter0_d_389_570)">
<path d="M60.5 17.3094C62.9752 15.8803 66.0248 15.8803 68.5 17.3094L104.234 37.9406C106.709 39.3697 108.234 42.0107 108.234 44.8688V86.1312C108.234 88.9893 106.709 91.6303 104.234 93.0594L68.5 113.691C66.0248 115.12 62.9752 115.12 60.5 113.691L24.7657 93.0594C22.2905 91.6303 20.7657 88.9893 20.7657 86.1312V44.8688C20.7657 42.0107 22.2905 39.3697 24.7657 37.9406L60.5 17.3094Z" fill="#56B9B6"/>
</g>
<path d="M60.75 21.7424C63.0705 20.4027 65.9295 20.4027 68.25 21.7424L100.52 40.3736C102.841 41.7134 104.27 44.1893 104.27 46.8688V84.1312C104.27 86.8107 102.841 89.2866 100.52 90.6264L68.25 109.258C65.9295 110.597 63.0705 110.597 60.75 109.258L28.4798 90.6264C26.1593 89.2866 24.7298 86.8107 24.7298 84.1312V46.8688C24.7298 44.1893 26.1593 41.7134 28.4798 40.3736L60.75 21.7424Z" fill="#56B9B6" stroke="white"/>
<g clip-path="url(#clip0_389_570)">
<path d="M82.9981 79.1448L76.2149 72.3777C76.1807 72.3435 76.1405 72.3184 76.1047 72.2941C75.4952 73.2312 74.7664 74.1219 73.944 74.9442C73.1224 75.7666 72.2302 76.4954 71.2832 77.1065C71.3166 77.1414 71.3417 77.1825 71.3759 77.2159L78.1454 83.9983C79.4853 85.3359 81.6612 85.3344 82.9966 83.9983C84.3334 82.6607 84.3342 80.484 82.9981 79.1448Z" fill="white"/>
<path d="M72.9774 51.6201C66.8152 45.4594 56.7906 45.4594 50.6276 51.6216C44.4586 57.7823 44.4578 67.8145 50.6231 73.9774C56.7883 80.1374 66.8152 80.1374 72.9774 73.9767C79.1396 67.8145 79.1388 57.7815 72.9774 51.6201ZM53.5279 71.0757C48.9655 66.5133 48.967 59.0857 53.5294 54.5279C58.0917 49.9663 65.5148 49.9663 70.0757 54.5256C74.635 59.0857 74.6335 66.505 70.0757 71.0742C65.5141 75.6221 58.0917 75.6388 53.5279 71.0757Z" fill="white"/>
<path d="M56.7768 64.0729C56.4416 62.6958 55.0614 60.7851 53.9001 61.3939C52.9798 61.8636 53.2389 64.0174 53.6729 65.2912C55.6125 71.0833 62.6662 72.3077 63.3996 71.575C64.1208 70.8545 58.1053 69.523 56.7768 64.0729Z" fill="white"/>
</g>
<defs>
<filter id="filter0_d_389_570" x="0.765625" y="0.23761" width="127.469" height="138.525" filterUnits="userSpaceOnUse" color-interpolation-filters="sRGB">
<feFlood flood-opacity="0" result="BackgroundImageFix"/>
<feColorMatrix in="SourceAlpha" type="matrix" values="0 0 0 0 0 0 0 0 0 0 0 0 0 0 0 0 0 0 127 0" result="hardAlpha"/>
<feOffset dy="4"/>
<feGaussianBlur stdDeviation="10"/>
<feComposite in2="hardAlpha" operator="out"/>
<feColorMatrix type="matrix" values="0 0 0 0 0.94902 0 0 0 0 0.964706 0 0 0 0 0.980392 0 0 0 1 0"/>
<feBlend mode="normal" in2="BackgroundImageFix" result="effect1_dropShadow_389_570"/>
<feBlend mode="normal" in="SourceGraphic" in2="effect1_dropShadow_389_570" result="shape"/>
</filter>
<clipPath id="clip0_389_570">
<rect width="38" height="38" fill="white" transform="translate(46 47)"/>
</clipPath>
</defs>
</svg>
