<svg width="129" height="139" viewBox="0 0 129 139" fill="none" xmlns="http://www.w3.org/2000/svg">
<g filter="url(#filter0_d_389_561)">
<path d="M60.5 17.3094C62.9752 15.8803 66.0248 15.8803 68.5 17.3094L104.234 37.9406C106.709 39.3697 108.234 42.0107 108.234 44.8688V86.1312C108.234 88.9893 106.709 91.6303 104.234 93.0594L68.5 113.691C66.0248 115.12 62.9752 115.12 60.5 113.691L24.7657 93.0594C22.2905 91.6303 20.7657 88.9893 20.7657 86.1312V44.8688C20.7657 42.0107 22.2905 39.3697 24.7657 37.9406L60.5 17.3094Z" fill="#ED682C"/>
</g>
<path d="M60.75 21.7424C63.0705 20.4027 65.9295 20.4027 68.25 21.7424L100.52 40.3736C102.841 41.7134 104.27 44.1893 104.27 46.8688V84.1312C104.27 86.8107 102.841 89.2866 100.52 90.6264L68.25 109.258C65.9295 110.597 63.0705 110.597 60.75 109.258L28.4798 90.6264C26.1593 89.2866 24.7298 86.8107 24.7298 84.1312V46.8688C24.7298 44.1893 26.1593 41.7134 28.4798 40.3736L60.75 21.7424Z" fill="#ED682C" stroke="white"/>
<path d="M65 57.6689L69.1769 59.8651L68.379 55.2139L71.7603 51.9187L67.0886 51.2403L65 47L62.9115 51.2403L58.2397 51.9187L61.621 55.2139L60.8232 59.8651L65 57.6689Z" fill="white"/>
<path d="M79.1117 58.8103L77.0231 54.5781L74.9345 58.8103L70.2651 59.4887L73.6441 62.7831L72.8463 67.4351L77.0231 65.239L81.2023 67.4351L80.4021 62.7831L84 59.4887L79.1117 58.8103Z" fill="white"/>
<path d="M49.5979 62.7831L48.7977 67.4351L52.9769 65.239L57.1537 67.4351L56.3558 62.7831L59.7348 59.4887L55.0654 58.8103L52.9769 54.5781L50.8883 58.8103L46 59.4887L49.5979 62.7831Z" fill="white"/>
<path d="M70.5664 68.2266C70.5664 65.1575 68.0691 62.6602 65 62.6602C61.9309 62.6602 59.4336 65.1575 59.4336 68.2266C59.4336 71.2956 61.9309 73.793 65 73.793C68.0691 73.793 70.5664 71.2956 70.5664 68.2266Z" fill="white"/>
<path d="M57.207 81.5859V85H72.793V81.5859C72.793 77.2894 69.2966 73.793 65 73.793C60.7034 73.793 57.207 77.2894 57.207 81.5859Z" fill="white"/>
<path d="M81.6991 83.8125C81.6991 80.7434 79.2018 78.2461 76.1327 78.2461C75.5569 78.2461 75.0125 78.3592 74.4897 78.5221C74.8049 79.4939 75.0194 80.5106 75.0194 81.5859V85H81.6991V83.8125Z" fill="white"/>
<path d="M80.5859 73.793C80.5859 71.3371 78.5887 69.3398 76.1328 69.3398C73.6769 69.3398 71.6797 71.3371 71.6797 73.793C71.6797 73.9347 71.7084 74.0687 71.7214 74.207C72.8194 75.2078 73.7048 76.4292 74.2736 77.8263C74.8412 78.0892 75.4672 78.2461 76.1328 78.2461C78.5887 78.2461 80.5859 76.2489 80.5859 73.793Z" fill="white"/>
<path d="M58.2786 74.207C58.2916 74.0687 58.3203 73.9347 58.3203 73.793C58.3203 71.3371 56.3231 69.3398 53.8672 69.3398C51.4113 69.3398 49.4141 71.3371 49.4141 73.793C49.4141 76.2489 51.4113 78.2461 53.8672 78.2461C54.5328 78.2461 55.1588 78.0892 55.7264 77.8266C56.2952 76.4292 57.1806 75.2078 58.2786 74.207Z" fill="white"/>
<path d="M48.3008 83.8125V85H54.9805V81.5859C54.9805 80.5106 55.195 79.4939 55.5101 78.5221C54.9874 78.3592 54.443 78.2461 53.8672 78.2461C50.7981 78.2461 48.3008 80.7434 48.3008 83.8125Z" fill="white"/>
<defs>
<filter id="filter0_d_389_561" x="0.765625" y="0.23761" width="127.469" height="138.525" filterUnits="userSpaceOnUse" color-interpolation-filters="sRGB">
<feFlood flood-opacity="0" result="BackgroundImageFix"/>
<feColorMatrix in="SourceAlpha" type="matrix" values="0 0 0 0 0 0 0 0 0 0 0 0 0 0 0 0 0 0 127 0" result="hardAlpha"/>
<feOffset dy="4"/>
<feGaussianBlur stdDeviation="10"/>
<feComposite in2="hardAlpha" operator="out"/>
<feColorMatrix type="matrix" values="0 0 0 0 0.94902 0 0 0 0 0.964706 0 0 0 0 0.980392 0 0 0 1 0"/>
<feBlend mode="normal" in2="BackgroundImageFix" result="effect1_dropShadow_389_561"/>
<feBlend mode="normal" in="SourceGraphic" in2="effect1_dropShadow_389_561" result="shape"/>
</filter>
</defs>
</svg>
