<svg width="188" height="113" viewBox="0 0 188 113" fill="none" xmlns="http://www.w3.org/2000/svg">
<path d="M21.3135 10.7887L39 0.57735L56.6865 10.7887V31.2113L39 41.4226L21.3135 31.2113V10.7887Z" stroke="#EBF2FA"/>
<path d="M3.31347 41.7887L21 31.5774L38.6865 41.7887V62.2113L21 72.4226L3.31347 62.2113V41.7887Z" stroke="#EBF2FA"/>
<path d="M21.5 26L27.9952 29.75V37.25L21.5 41L15.0048 37.25V29.75L21.5 26Z" fill="#F19B38"/>
<path d="M39.3135 41.7887L57 31.5774L74.6865 41.7887V62.2113L57 72.4226L39.3135 62.2113V41.7887Z" stroke="#EBF2FA"/>
<path d="M166.687 49.7887L149 39.5774L131.313 49.7887V70.2113L149 80.4226L166.687 70.2113V49.7887Z" stroke="#EBF2FA"/>
<path d="M184.687 80.7887L167 70.5774L149.313 80.7887V101.211L167 111.423L184.687 101.211V80.7887Z" stroke="#EBF2FA"/>
<path d="M166.5 65L160.005 68.75V76.25L166.5 80L172.995 76.25V68.75L166.5 65Z" fill="#FAE0BF"/>
<path d="M148.687 80.7887L131 70.5774L113.313 80.7887V101.211L131 111.423L148.687 101.211V80.7887Z" stroke="#EBF2FA"/>
<mask id="mask0_40_1157" style="mask-type:alpha" maskUnits="userSpaceOnUse" x="43" y="2" width="98" height="110">
<path d="M88 3.3094C90.4752 1.88034 93.5248 1.88034 96 3.3094L136.497 26.6906C138.973 28.1197 140.497 30.7607 140.497 33.6188V80.3812C140.497 83.2393 138.973 85.8803 136.497 87.3094L96 110.691C93.5248 112.12 90.4752 112.12 88 110.691L47.5026 87.3094C45.0274 85.8803 43.5026 83.2393 43.5026 80.3812V33.6188C43.5026 30.7607 45.0274 28.1197 47.5026 26.6906L88 3.3094Z" fill="#C4C4C4"/>
</mask>
<g mask="url(#mask0_40_1157)">
<path d="M91.2959 63.52V-9.46667L162.76 -34V104L91.2959 63.52Z" fill="url(#paint0_linear_40_1157)"/>
<path d="M91.2959 63.52V-9.46667L21.0638 -34V104L91.2959 63.52Z" fill="url(#paint1_linear_40_1157)"/>
<path d="M-12 122.661L91.1443 63L197.81 122.661H-12Z" fill="url(#paint2_linear_40_1157)"/>
</g>
<path d="M95.5 9.17543L131.667 30.0566C133.833 31.3071 135.167 33.6179 135.167 36.1188V77.8812C135.167 80.3821 133.833 82.6929 131.667 83.9434L95.5 104.825C93.3342 106.075 90.6658 106.075 88.5 104.825L52.3327 83.9434C50.1669 82.6929 48.8327 80.3821 48.8327 77.8812V36.1188C48.8327 33.6179 50.1669 31.3071 52.3327 30.0566L88.5 9.17543C90.6658 7.925 93.3342 7.925 95.5 9.17543Z" stroke="white" stroke-width="2"/>
<g clip-path="url(#clip0_40_1157)">
<path d="M73.2544 67.7352V75.5159C73.2544 75.9893 73.639 76.3837 74.1222 76.3837H80.1377C80.6111 76.3837 81.0055 75.9991 81.0055 75.5159V61.8282L76.6369 66.1968C75.7099 67.1139 74.5265 67.6465 73.2544 67.7352Z" fill="white"/>
<path d="M84.0034 61.7296V75.5159C84.0034 75.9893 84.388 76.3837 84.8712 76.3837H90.8867C91.3601 76.3837 91.7545 75.9991 91.7545 75.5159V67.3999C90.3838 67.3703 89.1018 66.8279 88.1354 65.8615L84.0034 61.7296Z" fill="white"/>
<path d="M94.7524 66.542V75.5159C94.7524 75.9893 95.137 76.3837 95.6203 76.3837H101.636C102.109 76.3837 102.504 75.9991 102.504 75.5159V58.9585L95.6104 65.8517C95.3441 66.1179 95.0581 66.3447 94.7524 66.542Z" fill="white"/>
<path d="M112.671 48.7814L105.501 55.9507V75.5159C105.501 75.9893 105.886 76.3837 106.369 76.3837H112.385C112.858 76.3837 113.253 75.9991 113.253 75.5159V49.3238C113.055 49.1562 112.907 49.0082 112.799 48.9096L112.671 48.7814Z" fill="white"/>
<path d="M117.592 36.0798C117.306 35.7741 116.872 35.6163 116.319 35.6163C116.27 35.6163 116.211 35.6163 116.162 35.6163C113.361 35.7445 110.57 35.8826 107.769 36.0108C107.395 36.0305 106.882 36.0502 106.478 36.4546C106.349 36.5828 106.251 36.7307 106.172 36.9082C105.758 37.8056 106.34 38.3874 106.616 38.6635L107.316 39.3736C107.799 39.8666 108.292 40.3597 108.785 40.8429L91.8629 57.7751L84.2597 50.1719C83.8061 49.7183 83.1947 49.4619 82.5438 49.4619C81.893 49.4619 81.2914 49.7183 80.8378 50.1719L70.71 60.2898C69.7633 61.2365 69.7633 62.765 70.71 63.7117L71.1637 64.1653C71.6173 64.619 72.2287 64.8754 72.8796 64.8754C73.5304 64.8754 74.132 64.619 74.5856 64.1653L82.5438 56.2071L90.147 63.8103C90.6006 64.264 91.2121 64.5204 91.8629 64.5204C92.5138 64.5204 93.1153 64.264 93.5788 63.8103L112.671 44.7185L114.83 46.8683C115.087 47.1247 115.442 47.4797 115.984 47.4797C116.211 47.4797 116.438 47.4205 116.674 47.2923C116.832 47.2036 116.97 47.105 117.089 46.9866C117.513 46.5626 117.592 46.0202 117.611 45.5962C117.69 43.7816 117.779 41.9671 117.868 40.1428L117.996 37.4111C118.025 36.8392 117.897 36.3954 117.592 36.0798Z" fill="white"/>
</g>
<defs>
<linearGradient id="paint0_linear_40_1157" x1="93.0001" y1="-2" x2="127" y2="82" gradientUnits="userSpaceOnUse">
<stop stop-color="#EC642B"/>
<stop offset="1" stop-color="#EE792F"/>
</linearGradient>
<linearGradient id="paint1_linear_40_1157" x1="58.0001" y1="15" x2="91.0001" y2="64" gradientUnits="userSpaceOnUse">
<stop stop-color="#EE8144"/>
<stop offset="1" stop-color="#F2A54C"/>
</linearGradient>
<linearGradient id="paint2_linear_40_1157" x1="92.9052" y1="63" x2="92.9052" y2="122.661" gradientUnits="userSpaceOnUse">
<stop stop-color="#F09436"/>
<stop offset="1" stop-color="#F19C38"/>
</linearGradient>
<clipPath id="clip0_40_1157">
<rect width="48" height="48" fill="white" transform="translate(70 32)"/>
</clipPath>
</defs>
</svg>
