<svg width="14" height="12" viewBox="0 0 14 12" fill="none" xmlns="http://www.w3.org/2000/svg">
<path d="M8.17001 7.57778C7.82171 7.80998 7.41713 7.93273 7 7.93273C6.5829 7.93273 6.17832 7.80998 5.83002 7.57778L0.0932148 3.75313C0.0613867 3.73191 0.0303789 3.70979 0 3.68704V9.95414C0 10.6727 0.583105 11.2429 1.28879 11.2429H12.7112C13.4297 11.2429 14 10.6598 14 9.95414V3.68701C13.9695 3.70982 13.9385 3.73199 13.9066 3.75324L8.17001 7.57778Z" fill="#6F7B88"/>
<path d="M0.548242 3.07039L6.28504 6.89507C6.50221 7.03985 6.75109 7.11223 6.99997 7.11223C7.24888 7.11223 7.49779 7.03982 7.71496 6.89507L13.4518 3.07039C13.7951 2.84166 14 2.45884 14 2.04568C14 1.33526 13.422 0.757324 12.7116 0.757324H1.28836C0.577965 0.757352 0 1.33529 0 2.04636C0 2.45884 0.204969 2.84166 0.548242 3.07039Z" fill="#6F7B88"/>
</svg>
