<svg width="452" height="329" viewBox="0 0 452 329" fill="none" xmlns="http://www.w3.org/2000/svg">
<path d="M27.434 322.759C15.8843 309.181 22.6238 287.912 33.4901 273.79C44.3564 259.667 59.1592 247.689 64.4971 230.688C70.7868 210.629 62.2218 189.082 52.212 170.596C42.2022 152.109 30.2804 133.441 29.4152 112.456C28.2905 86.6406 44.1228 63.1929 61.9017 44.3691C84.7849 20.0313 115.801 -1.33346 149.04 2.52119C172.866 5.28685 193.292 20.5758 210.682 37.092C228.071 53.6082 244.042 72.1381 264.736 84.1774C279.686 92.8979 296.687 97.9107 313.929 99.5096C336.06 101.558 358.571 98.0922 380.546 101.636C402.521 105.179 425.309 118.472 429.98 140.191C436.902 172.393 401.673 199.895 400.989 232.832C400.669 247.879 407.66 261.949 412.522 276.192C417.384 290.435 419.893 307.202 411.535 319.717" stroke="#8EE4FD" stroke-width="2.48" stroke-linecap="round" stroke-linejoin="round" stroke-dasharray="8.69 8.69"/>
<path d="M402.711 80.0018C403.806 75.3899 400.951 70.7646 396.334 69.671C391.718 68.5774 387.088 71.4295 385.993 76.0415C384.898 80.6534 387.754 85.2786 392.37 86.3723C396.987 87.4659 401.617 84.6137 402.711 80.0018Z" fill="#8EE4FD"/>
<path d="M29.346 61.2136C29.346 62.5571 28.9472 63.8705 28.2 64.9877C27.4528 66.1048 26.3908 66.9755 25.1482 67.4896C23.9057 68.0038 22.5384 68.1383 21.2193 67.8762C19.9002 67.6141 18.6886 66.9671 17.7375 66.0171C16.7865 65.067 16.1389 63.8566 15.8765 62.5389C15.6141 61.2211 15.7488 59.8552 16.2635 58.6139C16.7782 57.3727 17.6497 56.3117 18.768 55.5653C19.8863 54.8188 21.201 54.4204 22.5459 54.4204C23.4389 54.4204 24.3232 54.5961 25.1482 54.9375C25.9732 55.2789 26.7229 55.7793 27.3543 56.4101C27.9858 57.0409 28.4867 57.7898 28.8284 58.6139C29.1701 59.4381 29.346 60.3215 29.346 61.2136V61.2136Z" fill="#8EE4FD"/>
<path d="M11.4546 185.98C11.4546 187.111 11.1187 188.218 10.4894 189.158C9.86006 190.099 8.96558 190.833 7.91905 191.266C6.87252 191.699 5.72095 191.812 4.60996 191.591C3.49897 191.371 2.47846 190.826 1.67749 190.025C0.876509 189.225 0.331042 188.206 0.110053 187.096C-0.110937 185.986 0.00247702 184.836 0.435963 183.79C0.869449 182.745 1.60353 181.851 2.54538 181.223C3.48723 180.594 4.59455 180.258 5.72731 180.258C7.24558 180.261 8.70101 180.864 9.77459 181.937C10.8482 183.009 11.4523 184.463 11.4546 185.98V185.98Z" fill="#8EE4FD"/>
<path d="M399.717 76.589C405.055 76.589 409.381 72.2668 409.381 66.9351C409.381 61.6034 405.055 57.2812 399.717 57.2812C394.38 57.2812 390.054 61.6034 390.054 66.9351C390.054 72.2668 394.38 76.589 399.717 76.589Z" stroke="#8EE4FD" stroke-width="1.24" stroke-miterlimit="10"/>
<path d="M25.0462 59.4333C28.6059 59.4333 31.4916 56.5505 31.4916 52.9945C31.4916 49.4384 28.6059 46.5557 25.0462 46.5557C21.4865 46.5557 18.6008 49.4384 18.6008 52.9945C18.6008 56.5505 21.4865 59.4333 25.0462 59.4333Z" stroke="#8EE4FD" stroke-width="1.24" stroke-miterlimit="10"/>
<path d="M449.215 193.821C450.39 188.826 447.289 183.825 442.288 182.652C437.288 181.478 432.282 184.576 431.108 189.572C429.933 194.567 433.034 199.567 438.035 200.741C443.035 201.914 448.041 198.816 449.215 193.821Z" stroke="#8EE4FD" stroke-width="1.24" stroke-miterlimit="10"/>
<path d="M57.2558 127.08C53.6278 127.08 50.0814 126.005 47.065 123.991C44.0487 121.977 41.6978 119.115 40.3099 115.767C38.9219 112.418 38.5592 108.734 39.2676 105.179C39.976 101.625 41.7237 98.3602 44.2896 95.7981C46.8556 93.236 50.1245 91.4916 53.6829 90.7856C57.2413 90.0796 60.9294 90.4437 64.2806 91.8318C67.6319 93.2199 70.4958 95.5697 72.5101 98.5839C74.5244 101.598 75.5987 105.142 75.597 108.766C75.5901 113.622 73.6553 118.278 70.2168 121.711C66.7784 125.144 62.1173 127.075 57.2558 127.08V127.08ZM57.2558 91.9038C53.917 91.9021 50.6528 92.8896 47.8759 94.7414C45.099 96.5931 42.9342 99.226 41.6553 102.307C40.3765 105.388 40.041 108.779 40.6913 112.05C41.3416 115.321 42.9485 118.327 45.3087 120.686C47.669 123.045 50.6765 124.652 53.951 125.303C57.2254 125.954 60.6197 125.621 63.7045 124.345C66.7892 123.069 69.4259 120.908 71.281 118.135C73.1361 115.361 74.1262 112.101 74.1262 108.766C74.1216 104.297 72.343 100.012 69.1805 96.8507C66.0179 93.6897 61.7295 91.9107 57.2558 91.9038Z" fill="#8EE4FD"/>
<path d="M51.364 125.982C42.7125 111.056 50.9747 92.2757 51.364 91.4893L52.705 92.0856C52.6185 92.2757 44.3995 110.979 52.705 125.248L51.364 125.982Z" fill="#8EE4FD"/>
<path d="M63.2598 125.982L61.988 125.248C70.2589 110.979 62.0399 92.2757 61.988 92.0856L63.329 91.4893C63.6491 92.2757 71.9027 111.056 63.2598 125.982Z" fill="#8EE4FD"/>
<path d="M74.005 102.655H40.5063V104.125H74.005V102.655Z" fill="#8EE4FD"/>
<path d="M74.005 114.263H40.5063V115.732H74.005V114.263Z" fill="#8EE4FD"/>
<path d="M57.991 91.1777H56.5203V126.354H57.991V91.1777Z" fill="#8EE4FD"/>
<path d="M434.929 118.8H403.083C400.909 118.8 399.146 120.56 399.146 122.732V154.546C399.146 156.718 400.909 158.478 403.083 158.478H434.929C437.103 158.478 438.866 156.718 438.866 154.546V122.732C438.866 120.56 437.103 118.8 434.929 118.8Z" fill="#8EE4FD"/>
<path d="M422.324 144.495C423.189 143.674 423.907 142.904 424.694 142.187C424.836 141.999 425.02 141.847 425.231 141.742C425.442 141.637 425.674 141.582 425.91 141.582C426.145 141.582 426.378 141.637 426.589 141.742C426.8 141.847 426.983 141.999 427.125 142.187C428.155 143.172 429.15 144.183 430.136 145.212C430.299 145.352 430.431 145.524 430.523 145.718C430.615 145.913 430.664 146.124 430.668 146.339C430.673 146.553 430.631 146.767 430.547 146.964C430.462 147.162 430.337 147.339 430.179 147.485C429.538 148.203 428.856 148.884 428.138 149.525C427.612 149.933 426.988 150.195 426.328 150.283C425.668 150.371 424.997 150.282 424.383 150.026C416.346 147.433 410.653 142.247 407.729 134.296C407.212 132.963 407.221 131.484 407.755 130.157C408.288 128.83 409.305 127.755 410.601 127.149C410.899 126.977 411.246 126.912 411.585 126.964C411.925 127.016 412.237 127.182 412.47 127.434C413.542 128.471 414.598 129.525 415.619 130.623C415.771 130.775 415.89 130.956 415.969 131.155C416.049 131.355 416.086 131.569 416.08 131.783C416.073 131.998 416.023 132.209 415.932 132.403C415.84 132.597 415.71 132.771 415.55 132.913C414.918 133.596 414.261 134.244 413.586 134.875C413.491 134.939 413.412 135.022 413.352 135.119C413.293 135.216 413.254 135.324 413.239 135.437C413.225 135.549 413.234 135.664 413.267 135.773C413.3 135.882 413.355 135.982 413.43 136.068C415.663 139.558 418.716 142.451 422.324 144.495V144.495Z" fill="white"/>
<path d="M284.22 12.6157H238.981C238.035 12.6157 237.268 13.3819 237.268 14.327V42.3639C237.268 43.309 238.035 44.0751 238.981 44.0751H284.22C285.166 44.0751 285.933 43.309 285.933 42.3639V14.327C285.933 13.3819 285.166 12.6157 284.22 12.6157Z" fill="#8EE4FD"/>
<path d="M261.579 34.0497C261.487 34.0511 261.399 34.0205 261.328 33.9633L237.865 14.7851C237.823 14.7517 237.788 14.7101 237.763 14.663C237.738 14.6159 237.722 14.5642 237.717 14.5109C237.713 14.4577 237.719 14.404 237.735 14.3531C237.751 14.3022 237.778 14.2551 237.813 14.2147C237.846 14.1732 237.886 14.1389 237.933 14.1136C237.979 14.0884 238.03 14.073 238.083 14.0681C238.136 14.0632 238.189 14.0691 238.239 14.0854C238.289 14.1017 238.336 14.128 238.375 14.1628L261.579 33.1163L284.938 13.7566C284.978 13.7176 285.026 13.6873 285.078 13.6676C285.131 13.6479 285.187 13.6392 285.242 13.6422C285.298 13.6451 285.353 13.6595 285.403 13.6846C285.453 13.7096 285.498 13.7448 285.534 13.7878C285.569 13.8308 285.596 13.8807 285.612 13.9344C285.627 13.9882 285.632 14.0446 285.624 14.1001C285.617 14.1556 285.599 14.209 285.57 14.257C285.541 14.305 285.503 14.3465 285.457 14.3789L261.838 33.9546C261.765 34.0144 261.673 34.0479 261.579 34.0497V34.0497Z" fill="white"/>
<path d="M237.986 43.0206C237.886 43.0215 237.791 42.9844 237.718 42.9169C237.679 42.8798 237.649 42.8355 237.628 42.7865C237.608 42.7375 237.597 42.6849 237.597 42.6317C237.597 42.5785 237.608 42.5258 237.628 42.4768C237.649 42.4278 237.679 42.3835 237.718 42.3465L252.451 26.271C252.526 26.205 252.623 26.169 252.723 26.1699C252.824 26.1709 252.92 26.2087 252.994 26.2762C253.068 26.3436 253.114 26.4359 253.124 26.5355C253.134 26.635 253.107 26.7347 253.048 26.8155L238.28 42.8996C238.242 42.9393 238.197 42.9706 238.146 42.9915C238.095 43.0123 238.041 43.0222 237.986 43.0206V43.0206Z" fill="white"/>
<path d="M285.085 43.0209C285.03 43.0209 284.975 43.0094 284.924 42.9871C284.873 42.9648 284.828 42.9321 284.791 42.8913L270.031 26.8072C269.972 26.7264 269.945 26.6267 269.955 26.5271C269.965 26.4276 270.012 26.3353 270.086 26.2678C270.16 26.2004 270.256 26.1626 270.356 26.1616C270.456 26.1607 270.553 26.1967 270.628 26.2627L285.388 42.3468C285.443 42.4039 285.48 42.4763 285.494 42.5547C285.508 42.6331 285.498 42.7139 285.465 42.7865C285.433 42.8591 285.379 42.9203 285.311 42.9621C285.243 43.0039 285.164 43.0244 285.085 43.0209V43.0209Z" fill="white"/>
<path d="M283.77 254.897C283.77 254.897 269.123 285.716 269.841 319.319H402.944C402.944 319.319 401.508 280.712 385.053 253.548L283.77 254.897Z" fill="#436A91"/>
<path d="M319.561 264.81H388.09" stroke="#0B334C" stroke-width="0.93" stroke-linecap="round" stroke-linejoin="round"/>
<path d="M376.462 255.156V264.81" stroke="#0B334C" stroke-width="0.93" stroke-linecap="round" stroke-linejoin="round"/>
<path d="M360.362 255.156V264.81" stroke="#0B334C" stroke-width="0.93" stroke-linecap="round" stroke-linejoin="round"/>
<path d="M344.252 255.156V264.81" stroke="#0B334C" stroke-width="0.93" stroke-linecap="round" stroke-linejoin="round"/>
<path d="M328.152 255.156V264.81" stroke="#0B334C" stroke-width="0.93" stroke-linecap="round" stroke-linejoin="round"/>
<path d="M381.653 265.164C381.653 265.164 393.635 300.91 392.035 319.682" stroke="#0B334C" stroke-width="0.93" stroke-linecap="round" stroke-linejoin="round"/>
<path d="M344.521 126.613V108.818H318.8V126.613C318.8 128.502 318.049 130.313 316.712 131.649C315.375 132.984 313.562 133.735 311.671 133.735C334.338 167.312 351.9 133.735 351.9 133.735H351.65C349.759 133.735 347.946 132.984 346.609 131.649C345.272 130.313 344.521 128.502 344.521 126.613Z" fill="#CC6F49"/>
<path d="M344.529 111.514V116.57C342.436 118.086 340.209 119.408 337.876 120.52C335.988 121.432 333.918 121.906 331.82 121.906C329.723 121.906 327.653 121.432 325.764 120.52C323.295 119.356 320.95 117.946 318.765 116.311V111.255C320.954 112.889 323.298 114.305 325.764 115.481C327.654 116.387 329.724 116.858 331.82 116.858C333.917 116.858 335.986 116.387 337.876 115.481C340.213 114.369 342.44 113.04 344.529 111.514V111.514Z" fill="#0B334C"/>
<path d="M376.28 144.331C373.417 132.896 355.171 133.251 351.416 132.896C351.026 132.841 350.655 132.694 350.332 132.469C350.008 132.244 349.743 131.946 349.556 131.6C349.556 128.264 349.469 121.557 348.007 121.557C346.061 121.557 333.732 125.446 333.732 125.446L332.435 130.416L331.569 125.878C331.569 125.878 318.376 120.477 316.646 120.909C315.305 121.246 315.391 128.843 315.504 132.248C314.354 133.026 313.044 133.534 311.671 133.735C301.289 133.691 294.515 134.322 288.433 141.297C282.351 148.272 273.604 271.292 273.604 271.292C275.897 273.988 295.856 274.982 322.918 274.533C324.787 274.533 330.557 258.112 332.435 258.112C334.597 258.069 342.609 273.504 344.763 273.453C372.742 272.787 394.725 271.724 394.725 271.724C394.725 271.724 379.144 155.774 376.28 144.331Z" fill="#FCB13A"/>
<path d="M332.218 136.25V256.815" stroke="#0B334C" stroke-width="0.93" stroke-linecap="round" stroke-linejoin="round"/>
<path d="M328.602 211.381C325.141 211.631 321.75 211.873 318.376 212.098C317.372 210.923 316.23 209.635 315.114 208.529C312.121 205.547 310.685 203.343 310.122 201.554C309.56 199.765 305.649 203.153 307.778 207.146C308.832 208.926 309.669 210.827 310.269 212.807C310.269 212.807 301.315 210.309 300.234 215.08C300.234 215.493 300.357 215.898 300.588 216.241C300.82 216.584 301.148 216.851 301.531 217.007C301.531 217.007 298.858 218.122 299.014 219.6C299.169 221.078 300.995 222.322 300.995 222.322C300.995 222.322 298.728 223.29 298.815 224.829C298.901 226.367 300.995 227.352 300.995 227.352C300.995 227.352 300.069 228.364 300.614 229.297C301.065 229.929 301.681 230.425 302.395 230.73C303.11 231.035 303.894 231.137 304.663 231.026C306.601 230.801 309.759 231.095 310.347 229.297C310.347 229.297 317.684 229.867 320.539 228.804C323.232 229.046 325.92 229.265 328.602 229.461V211.381Z" fill="#CC6F49"/>
<path d="M348.656 136.509C350.821 134.618 353.569 133.523 356.442 133.406C361.14 133.164 369.16 133.406 373.702 137.002C378.98 141.219 411.215 175.297 427.541 197.138C429.472 199.707 430.755 202.704 431.28 205.875C431.805 209.045 431.556 212.295 430.555 215.349C429.554 218.403 427.83 221.17 425.529 223.417C423.229 225.663 420.42 227.321 417.34 228.251C414.746 229.009 412.088 229.527 409.398 229.798C386.584 232.21 324.856 231.674 324.856 231.674C324.856 231.674 322.978 210.758 324.319 210.49C325.66 210.223 379.075 203.792 379.075 203.792L347.929 165.86C345.668 163.163 344.056 159.985 343.216 156.569C342.376 153.153 342.331 149.59 343.084 146.154C343.881 142.434 345.83 139.059 348.656 136.509Z" fill="#FCB13A"/>
<path d="M352.843 170.967L378.962 203.671L391.49 204.216" stroke="#0B334C" stroke-width="0.93" stroke-linecap="round" stroke-linejoin="round"/>
<path d="M324.216 210.292L378.962 203.671L388.09 199.566" stroke="#0B334C" stroke-width="0.93" stroke-linecap="round" stroke-linejoin="round"/>
<path d="M324.57 229.236V231.734C324.57 231.734 382.189 231.38 385.589 231.025" stroke="#0B334C" stroke-width="0.93" stroke-linecap="round" stroke-linejoin="round"/>
<path d="M310.261 134.504C310.261 134.504 293.823 130.926 285.924 141.651C278.025 152.377 244.968 226.877 243.531 268.699C242.095 310.521 250.729 321.869 251.067 322.941C251.404 324.012 271.83 325.801 274.685 322.941C277.54 320.08 270.879 268.561 295.925 219.582C320.971 170.604 327.797 142.006 310.261 134.504Z" fill="#FCB13A"/>
<path d="M299.706 168.279C299.706 168.824 289.506 233.523 289.506 233.523" stroke="#0B334C" stroke-width="0.93" stroke-linecap="round" stroke-linejoin="round"/>
<path d="M362.274 76.3989C361.422 76.0458 360.509 75.8641 359.587 75.8641C358.665 75.8641 357.753 76.0458 356.901 76.3989L356.979 74.5839C357.116 71.1916 356.565 67.8065 355.36 64.6323C354.154 61.458 352.318 58.5601 349.963 56.1126C347.607 53.6651 344.781 51.7187 341.653 50.3903C338.526 49.0618 335.161 48.3788 331.763 48.3823C328.364 48.3858 325.002 49.0758 321.877 50.4106C318.752 51.7455 315.929 53.6978 313.579 56.1501C311.229 58.6024 309.399 61.5041 308.2 64.6808C307.001 67.8576 306.457 71.2437 306.601 74.6358C306.601 75.2235 306.653 75.8112 306.679 76.3643C305.394 75.8322 303.98 75.6917 302.616 75.9603C301.251 76.229 299.996 76.8949 299.01 77.8741C298.023 78.8534 297.348 80.1024 297.07 81.4638C296.792 82.8253 296.924 84.2385 297.448 85.5256C298.901 89.0777 304.481 93.2435 308.089 91.9298C308.479 95.1879 309.284 98.3829 310.486 101.437C313.687 108.541 320.694 113.009 325.807 115.455C327.697 116.363 329.767 116.834 331.863 116.834C333.96 116.834 336.03 116.363 337.92 115.455C343.024 113.001 349.988 108.541 353.181 101.411C354.351 98.3687 355.136 95.1924 355.517 91.9557C359.124 93.2435 364.679 89.0864 366.124 85.5428C366.819 83.8196 366.804 81.8917 366.083 80.179C365.362 78.4664 363.993 77.1077 362.274 76.3989V76.3989Z" fill="#CC6F49"/>
<path d="M331.976 82.0254C332.455 83.1116 332.66 84.2987 332.573 85.4825C332.497 86.6086 332.332 87.727 332.08 88.8272C331.818 89.7616 331.653 90.7201 331.587 91.6879C331.587 92.4658 332.244 93.356 332.928 94.3499C332.316 94.2425 331.729 94.0227 331.197 93.7017C330.601 93.3282 330.14 92.774 329.882 92.1201C329.661 91.4732 329.579 90.7871 329.64 90.1063C329.689 89.5252 329.776 88.9478 329.9 88.3778C330.148 87.2925 330.466 86.2244 330.851 85.18C331.249 84.1774 331.595 83.1662 331.976 82.0254Z" fill="#0B334C"/>
<path d="M325.245 76.5717C324.639 76.5717 323.956 76.4939 323.333 76.4852C322.717 76.4627 322.1 76.4975 321.49 76.5889C320.883 76.6854 320.297 76.8872 319.76 77.1853C319.194 77.5031 318.678 77.902 318.229 78.3693L318.185 78.4126C318.107 78.4814 318.008 78.5219 317.903 78.5277C317.799 78.5334 317.696 78.5041 317.61 78.4444C317.524 78.3847 317.461 78.2981 317.431 78.1983C317.4 78.0985 317.404 77.9914 317.441 77.894C317.728 77.1287 318.186 76.4396 318.782 75.8802C319.411 75.3174 320.16 74.9038 320.971 74.6703C321.762 74.4235 322.592 74.3239 323.42 74.3764C324.236 74.4189 325.034 74.6308 325.764 74.9987C325.963 75.1053 326.112 75.285 326.18 75.4997C326.247 75.7144 326.229 75.947 326.127 76.1482C326.053 76.2888 325.94 76.406 325.803 76.4868C325.665 76.5677 325.508 76.609 325.349 76.6062L325.245 76.5717Z" fill="#0B334C"/>
<path d="M337.79 74.9641C338.523 74.596 339.324 74.3841 340.143 74.3418C340.975 74.2994 341.808 74.4107 342.6 74.6702C343.411 74.917 344.156 75.3423 344.78 75.9148C345.373 76.4765 345.832 77.1649 346.121 77.9285C346.167 78.0421 346.167 78.1692 346.12 78.2824C346.073 78.3955 345.983 78.4858 345.87 78.5335C345.789 78.5695 345.698 78.5806 345.611 78.5652C345.523 78.5498 345.442 78.5087 345.377 78.4471L345.325 78.4039C344.877 77.9346 344.361 77.5354 343.794 77.2198C343.257 76.9202 342.671 76.7183 342.064 76.6235C341.451 76.532 340.831 76.4973 340.212 76.5198C339.598 76.5198 338.915 76.5889 338.309 76.6062H338.188C337.966 76.6065 337.752 76.5214 337.591 76.3685C337.43 76.2157 337.334 76.0068 337.323 75.7851C337.312 75.6178 337.351 75.451 337.434 75.3052C337.517 75.1594 337.641 75.0409 337.79 74.9641V74.9641Z" fill="#0B334C"/>
<path d="M343.128 85.3008C343.128 87.3059 342.115 88.9308 340.87 88.9308C339.624 88.9308 338.612 87.3059 338.612 85.3008C338.612 83.2957 339.624 81.6709 340.87 81.6709C342.115 81.6709 343.128 83.313 343.128 85.3008Z" fill="#0B334C"/>
<path d="M324.968 85.3008C324.968 87.3059 323.956 88.9308 322.71 88.9308C321.464 88.9308 320.452 87.3059 320.452 85.3008C320.452 83.2957 321.456 81.6709 322.71 81.6709C323.965 81.6709 324.968 83.313 324.968 85.3008Z" fill="#0B334C"/>
<path d="M336.665 98.9996C337.187 98.6973 337.73 98.4344 338.292 98.2131C338.837 97.9884 339.356 97.781 339.927 97.5044C339.608 98.0612 339.102 98.4869 338.499 98.7057C337.92 98.9501 337.291 99.0509 336.665 98.9996V98.9996Z" fill="#0B334C"/>
<path d="M331.249 97.003C332.196 97.1211 333.15 97.1673 334.104 97.1413C334.99 97.1175 335.867 96.9512 336.7 96.6487C337.529 96.3463 338.268 95.8377 338.845 95.1708C339.167 94.8352 339.456 94.4707 339.71 94.0818C339.979 93.6843 340.16 93.2175 340.437 92.8286C340.4 93.3252 340.316 93.8171 340.186 94.2979C340.034 94.7835 339.816 95.2459 339.537 95.6721C339.254 96.1172 338.904 96.5165 338.499 96.8561C338.283 97.0117 338.058 97.15 337.833 97.2969C337.601 97.4259 337.361 97.5414 337.115 97.6426C336.138 97.995 335.091 98.1076 334.061 97.971C333.065 97.8557 332.105 97.5254 331.249 97.003V97.003Z" fill="#0B334C"/>
<path d="M334.762 103.468C334.301 102.972 333.702 102.624 333.042 102.47C332.383 102.316 331.692 102.363 331.059 102.604C329.992 103.034 329.123 103.843 328.619 104.877C327.451 107.089 329.597 111.091 330.912 113.191C331.02 113.359 331.167 113.498 331.341 113.597C331.515 113.696 331.71 113.751 331.91 113.758C332.11 113.764 332.309 113.723 332.489 113.636C332.669 113.549 332.825 113.42 332.945 113.26C334.28 111.456 335.231 109.397 335.739 107.21C335.897 106.565 335.894 105.891 335.73 105.247C335.565 104.604 335.245 104.01 334.796 103.52L334.762 103.468Z" fill="#0B334C"/>
<path d="M357.204 56.6244C357.133 54.8585 356.417 53.1797 355.191 51.9056C353.965 50.6315 352.314 49.8505 350.551 49.7102V49.7102C347.029 49.4164 343.508 50.03 339.987 50.2547C336.466 50.4794 328.55 41.612 325.833 40.4971C322.961 39.2871 319.647 39.8144 316.862 41.2836C312.83 43.4356 308.798 48.1113 309.793 52.908H309.586C308.614 52.8164 307.634 52.9311 306.71 53.2445C305.786 53.5579 304.939 54.0629 304.224 54.7264C303.509 55.3899 302.943 56.197 302.562 57.0945C302.182 57.9921 301.995 58.96 302.016 59.9346C302.016 61.473 302.128 63.0027 302.249 64.5325C302.474 67.2463 302.829 71.9566 303.426 74.9037C303.703 76.2952 308.747 80.5474 309.655 81.6969C309.793 81.8942 309.981 82.0519 310.199 82.1545C310.417 82.2571 310.659 82.301 310.899 82.2818C311.139 82.2626 311.371 82.1809 311.57 82.045C311.769 81.9091 311.929 81.7235 312.034 81.5067C312.839 79.9251 312.692 77.6348 313.064 75.5519C313.513 73.0628 315.529 66.3215 318.566 64.714C320.824 63.5299 323.471 65.6906 325.626 67.108C327.78 68.5254 328.498 69.4242 330.817 70.349C332.635 71.0039 334.587 71.1998 336.499 70.9193C338.412 70.6389 340.225 69.8907 341.778 68.7415C342.498 68.2169 343.335 67.876 344.217 67.7484C345.099 67.6208 345.998 67.7105 346.838 68.0095C347.677 68.3086 348.43 68.808 349.032 69.4642C349.634 70.1205 350.066 70.9138 350.291 71.775L350.421 72.2158C350.905 73.8579 350.421 77.2372 350.265 79.9943C350.216 80.2862 350.247 80.5861 350.357 80.8612C350.466 81.1364 350.649 81.3762 350.886 81.5546C351.122 81.733 351.403 81.843 351.698 81.8726C351.993 81.9023 352.29 81.8505 352.558 81.7228V81.7228C353.852 81.0398 354.979 80.0786 355.857 78.9085C356.735 77.7384 357.343 76.3883 357.636 74.9556C359.124 68.0241 357.446 63.7892 357.204 56.6244Z" fill="#0B334C"/>
<path d="M343.37 44.4209C341.951 42.3294 338.179 38.371 329.64 37.429C325.572 36.9972 321.479 37.9669 318.038 40.1773C310.044 45.2765 295.354 57.3763 294.324 77.8855C294.164 81.5681 295.442 85.1688 297.889 87.9283C301.503 92.0646 305.462 95.8869 309.724 99.3539C309.724 99.3539 299.533 70.2107 327.105 53.0636C367.525 61.4298 353.414 100.46 353.414 100.46C353.414 100.46 367.257 93.6929 367.542 81.8784C367.966 63.9707 352.982 44.2913 343.37 44.4209Z" fill="#FCB13A"/>
<path d="M327.122 53.0637C327.122 53.0637 343.517 49.3559 343.898 44.7494C344.183 41.2923 340.29 41.759 338.707 43.3406C337.123 44.9222 327.122 53.0637 327.122 53.0637Z" fill="#FDC56D"/>
<path d="M306.16 88.1705C305.282 83.3316 305.601 78.3518 307.089 73.6642C308.577 68.9766 311.19 64.7233 314.699 61.2744" stroke="#0B334C" stroke-width="0.93" stroke-linecap="round" stroke-linejoin="round"/>
<path d="M343.18 49.1743C343.18 49.1743 355.941 54.576 359.721 67.324" stroke="#0B334C" stroke-width="0.93" stroke-linecap="round" stroke-linejoin="round"/>
<path d="M99.8385 223.515C99.8385 223.515 70.5012 260.679 66.2014 312.889H205.768C205.768 312.889 200.758 252.468 170.34 224.232L99.8385 223.515Z" fill="#00A2DD"/>
<path d="M109.684 226.021C109.684 226.557 106.284 272.692 76.7561 270.704" stroke="#0B334C" stroke-width="0.93" stroke-linecap="round" stroke-linejoin="round"/>
<path d="M69.6013 311.454L79.4467 270.704" stroke="#0B334C" stroke-width="0.93" stroke-linecap="round" stroke-linejoin="round"/>
<path d="M214.558 218.139C214.289 214.924 213.969 211.709 213.563 208.502C212.282 198.727 210.699 189.108 208.51 179.705C207.524 174.969 206.313 170.328 205.162 165.661C204.011 160.993 202.662 156.396 201.278 151.832C195.967 133.806 189.564 116.12 182.106 98.8697V98.8697L181.154 96.5881C180.699 95.4826 180.118 94.4328 179.424 93.4594L175.098 87.4527C175.098 87.4527 168.514 71.8094 167.355 71.8959C166.196 71.9823 165.114 80.2188 167.234 85.8538C165.442 87.1919 163.966 88.9059 162.908 90.8752C162.121 92.8294 161.527 94.8556 161.134 96.9251C160.998 97.5711 161.091 98.2444 161.397 98.8295C161.704 99.4145 162.204 99.8749 162.813 100.132C164.682 100.909 167.139 102.137 167.45 103.295L168.705 108.377C170.435 115.204 173.619 130.139 173.671 130.286C173.953 131.123 173.983 132.025 173.757 132.879L173.861 133.985C174.12 136.984 171.196 139.231 168.497 139.352C167.94 139.38 167.384 139.307 166.853 139.136C165.786 139.628 164.574 139.705 163.453 139.352C163.816 142.296 164.044 145.258 164.137 148.237C166.819 167.683 168.038 187.31 169.327 206.912C172.788 214.302 176.517 221.605 180.574 228.804L182.305 231.708C183.557 233.851 185.367 235.616 187.542 236.815C189.717 238.014 192.176 238.603 194.659 238.518C195.295 238.611 195.938 238.643 196.58 238.614C200.156 238.461 203.616 237.298 206.557 235.261C209.499 233.223 211.802 230.394 213.199 227.101L213.623 226.764C213.563 226.661 213.511 226.557 213.459 226.453C214.44 223.798 214.815 220.958 214.558 218.139V218.139Z" fill="#ED8D5D"/>
<path d="M185.186 205.823L183.403 185.798L182.867 201.442" stroke="#0B334C" stroke-width="0.93" stroke-linecap="round" stroke-linejoin="round"/>
<path d="M183.412 185.816L168.592 207.768L165.806 201.528L157.345 182.557L154.81 125.516C164.681 126.026 169.241 127.564 173.489 128.973C175.115 136.492 177.356 146.958 178.68 154.486C178.844 155.35 178.991 156.214 179.138 157.01C180.799 166.447 182.244 175.894 183.343 185.306C183.412 185.652 183.412 185.816 183.412 185.816Z" fill="#1F5B99"/>
<path d="M165.867 201.174L154.594 168.288L165.331 205.642L165.867 201.174Z" fill="#0B334C"/>
<path d="M155.078 126.319C147.223 137.961 138.589 142.23 131.719 142.23C128.677 142.282 125.699 141.348 123.232 139.568C117.695 135.437 116.146 126.319 116.146 126.319H117.799C119.563 126.319 121.256 125.619 122.503 124.372C123.751 123.126 124.452 121.436 124.452 119.673V100.953L127.696 100.737L148.46 99.3452V119.673C148.458 121.43 149.153 123.117 150.394 124.363C151.634 125.609 153.319 126.312 155.078 126.319V126.319Z" fill="#ED8D5D"/>
<path d="M124.435 105.577V110.296C126.391 111.708 128.47 112.943 130.646 113.986C132.401 114.829 134.323 115.267 136.27 115.267C138.217 115.267 140.139 114.829 141.893 113.986C144.199 112.904 146.388 111.59 148.425 110.062V105.352C146.381 106.87 144.197 108.19 141.902 109.293C140.146 110.13 138.224 110.564 136.278 110.564C134.333 110.564 132.411 110.13 130.655 109.293C128.469 108.253 126.386 107.009 124.435 105.577V105.577Z" fill="#0B334C"/>
<path d="M165.503 206.903C167.113 211.363 173.74 225.304 173.74 225.304H97.3294C97.3294 225.304 107.357 207.076 107.175 202.971C106.993 198.866 90.1832 147.554 92.3288 140.744C94.4744 133.933 97.762 129.119 103.1 127.693C108.438 126.267 116.795 126.31 116.795 126.31C116.795 126.31 123.639 141.478 136.348 140.216C149.057 138.955 154.767 125.524 154.767 125.524C154.767 125.524 166.758 124.971 173.567 129.041C173.627 129.361 173.705 129.69 173.774 130.009C175.556 138.159 177.235 146.318 178.688 154.494C176.82 159.879 163.911 202.478 165.503 206.903Z" fill="#1F5B99"/>
<path d="M133.657 141.297V163.82" stroke="#0B334C" stroke-width="0.93" stroke-linecap="round" stroke-linejoin="round"/>
<path d="M138.666 147.191C138.666 147.509 138.572 147.82 138.395 148.084C138.218 148.348 137.967 148.555 137.673 148.676C137.379 148.798 137.055 148.83 136.743 148.768C136.431 148.706 136.144 148.553 135.919 148.328C135.694 148.103 135.541 147.816 135.479 147.505C135.417 147.193 135.449 146.87 135.571 146.576C135.692 146.282 135.899 146.031 136.163 145.854C136.428 145.678 136.739 145.583 137.057 145.583C137.484 145.583 137.893 145.753 138.195 146.054C138.497 146.356 138.666 146.765 138.666 147.191Z" stroke="#0B334C" stroke-width="0.93" stroke-linecap="round" stroke-linejoin="round"/>
<path d="M138.424 155.704C138.424 156.022 138.33 156.333 138.153 156.597C137.976 156.862 137.725 157.068 137.431 157.189C137.137 157.311 136.813 157.343 136.501 157.281C136.189 157.219 135.902 157.066 135.677 156.841C135.452 156.616 135.299 156.33 135.237 156.018C135.175 155.706 135.207 155.383 135.328 155.089C135.45 154.795 135.656 154.544 135.921 154.368C136.186 154.191 136.497 154.097 136.815 154.097C137.242 154.097 137.651 154.266 137.953 154.568C138.255 154.869 138.424 155.278 138.424 155.704V155.704Z" stroke="#0B334C" stroke-width="0.93" stroke-linecap="round" stroke-linejoin="round"/>
<path d="M138.13 164.217C138.13 164.535 138.036 164.846 137.859 165.111C137.682 165.375 137.431 165.581 137.137 165.703C136.843 165.824 136.519 165.856 136.207 165.794C135.895 165.732 135.608 165.579 135.383 165.354C135.158 165.129 135.005 164.843 134.943 164.531C134.88 164.219 134.912 163.896 135.034 163.602C135.156 163.308 135.362 163.057 135.627 162.881C135.891 162.704 136.203 162.61 136.521 162.61C136.948 162.61 137.357 162.779 137.659 163.081C137.96 163.382 138.13 163.791 138.13 164.217Z" stroke="#0B334C" stroke-width="0.93" stroke-linecap="round" stroke-linejoin="round"/>
<path d="M129.539 189.558C129.539 189.558 140.994 182.938 145.112 176.145L129.539 189.558Z" fill="#0B334C"/>
<path d="M135.742 192.427C135.46 192.396 135.186 192.31 134.938 192.173C134.689 192.036 134.469 191.852 134.292 191.63C134.114 191.409 133.982 191.154 133.903 190.882C133.824 190.609 133.799 190.324 133.83 190.042C133.83 190.042 133.83 189.99 133.83 189.964V190.025C133.695 190.274 133.512 190.495 133.291 190.674C133.071 190.853 132.817 190.986 132.544 191.067C132.271 191.147 131.985 191.173 131.703 191.142C131.42 191.112 131.146 191.026 130.897 190.889V190.889C130.647 190.753 130.426 190.569 130.247 190.348C130.067 190.127 129.934 189.872 129.853 189.599C129.773 189.326 129.747 189.04 129.778 188.757C129.809 188.474 129.895 188.2 130.032 187.95L130.084 187.864V187.907C129.665 188.299 129.107 188.509 128.533 188.491C127.959 188.473 127.416 188.229 127.021 187.812C126.826 187.606 126.674 187.363 126.573 187.098C126.472 186.833 126.425 186.55 126.434 186.267C126.443 185.983 126.508 185.704 126.625 185.446C126.742 185.188 126.909 184.955 127.117 184.761V184.761L127.169 184.709C126.68 185.008 126.094 185.102 125.536 184.971C124.979 184.84 124.496 184.494 124.192 184.009C123.89 183.523 123.793 182.937 123.923 182.38C124.053 181.822 124.399 181.339 124.885 181.036V181.036L124.98 180.976L124.902 181.019C124.379 181.256 123.782 181.277 123.244 181.076C122.706 180.875 122.269 180.469 122.03 179.947C121.792 179.426 121.772 178.831 121.973 178.295C122.174 177.759 122.58 177.324 123.102 177.086V177.086C123.626 176.849 124.222 176.828 124.76 177.029C125.299 177.23 125.735 177.636 125.975 178.158C126.196 178.653 126.224 179.212 126.055 179.727C125.885 180.241 125.529 180.674 125.058 180.941V180.941C125.539 180.698 126.093 180.644 126.612 180.79C127.131 180.935 127.577 181.27 127.861 181.728V181.728C128.132 182.162 128.24 182.678 128.165 183.185C128.091 183.691 127.839 184.155 127.454 184.493V184.493C127.879 184.218 128.386 184.1 128.889 184.16C129.392 184.22 129.858 184.454 130.205 184.822V184.822C130.525 185.166 130.724 185.606 130.773 186.073C130.821 186.541 130.716 187.012 130.473 187.414C130.808 187.081 131.243 186.866 131.712 186.802C132.18 186.738 132.657 186.829 133.069 187.06C133.454 187.272 133.765 187.597 133.96 187.991C134.155 188.385 134.224 188.829 134.159 189.264C134.36 188.875 134.674 188.556 135.06 188.349C135.446 188.142 135.886 188.057 136.322 188.106V188.106C136.751 188.156 137.157 188.332 137.486 188.612C137.816 188.892 138.055 189.263 138.173 189.679V189.679C138.201 189.254 138.354 188.847 138.613 188.509C138.871 188.171 139.224 187.916 139.627 187.777V187.777C140.039 187.639 140.483 187.626 140.903 187.742C141.322 187.857 141.697 188.095 141.98 188.426V188.426C141.811 188.015 141.773 187.563 141.87 187.13C141.968 186.697 142.196 186.304 142.525 186.006C142.882 185.678 143.339 185.48 143.823 185.444C144.306 185.408 144.788 185.536 145.19 185.807V185.807C144.84 185.458 144.62 185 144.568 184.509C144.516 184.018 144.635 183.524 144.904 183.11C145.188 182.665 145.627 182.34 146.136 182.196C146.645 182.053 147.189 182.101 147.664 182.333V182.333C147.207 182.063 146.866 181.634 146.707 181.128C146.547 180.622 146.58 180.076 146.799 179.593V179.593C146.913 179.333 147.078 179.098 147.284 178.901C147.489 178.705 147.731 178.551 147.997 178.448C148.262 178.345 148.545 178.296 148.829 178.302C149.113 178.309 149.394 178.372 149.654 178.487V178.487C149.913 178.602 150.148 178.767 150.344 178.973C150.539 179.178 150.693 179.42 150.795 179.685C150.897 179.95 150.945 180.232 150.938 180.516C150.931 180.8 150.868 181.079 150.753 181.339C150.637 181.598 150.472 181.832 150.266 182.028C150.06 182.223 149.818 182.376 149.553 182.478C149.288 182.58 149.005 182.629 148.721 182.622C148.437 182.615 148.157 182.552 147.898 182.436V182.436H147.82L147.915 182.497C148.154 182.65 148.361 182.85 148.523 183.083C148.686 183.317 148.8 183.58 148.86 183.857C148.921 184.135 148.926 184.422 148.875 184.702C148.824 184.982 148.718 185.248 148.564 185.487V185.487C148.41 185.725 148.211 185.931 147.978 186.092C147.744 186.253 147.482 186.367 147.204 186.426C146.927 186.486 146.641 186.49 146.362 186.438C146.083 186.387 145.817 186.281 145.579 186.127H145.536L145.605 186.204C145.991 186.628 146.194 187.187 146.168 187.759C146.142 188.331 145.89 188.869 145.466 189.255C145.043 189.641 144.483 189.844 143.911 189.818C143.338 189.792 142.799 189.54 142.412 189.117V189.117L142.352 189.057L142.404 189.178C142.588 189.72 142.55 190.313 142.296 190.826C142.043 191.34 141.597 191.732 141.054 191.917C140.786 192.01 140.502 192.049 140.219 192.031C139.936 192.014 139.659 191.941 139.404 191.817C139.15 191.692 138.922 191.519 138.734 191.306C138.547 191.093 138.403 190.846 138.312 190.578V190.578C138.292 190.533 138.278 190.487 138.268 190.439C138.268 190.439 138.268 190.509 138.268 190.552C138.209 191.079 137.957 191.566 137.562 191.92C137.166 192.274 136.654 192.47 136.123 192.47V192.47L135.742 192.427ZM149.507 178.512C148.962 178.335 148.51 177.948 148.251 177.437C147.991 176.927 147.945 176.334 148.122 175.79V175.79C148.211 175.52 148.351 175.269 148.537 175.053C148.722 174.837 148.948 174.66 149.202 174.532C149.456 174.403 149.733 174.326 150.017 174.305C150.301 174.283 150.586 174.318 150.856 174.407V174.407C151.401 174.585 151.853 174.972 152.112 175.482C152.372 175.993 152.418 176.585 152.241 177.13V177.13C152.099 177.564 151.823 177.942 151.453 178.21C151.084 178.479 150.639 178.624 150.182 178.625C149.952 178.626 149.724 178.588 149.507 178.512V178.512ZM120.256 175.79C120.16 175.523 120.119 175.239 120.134 174.956C120.149 174.673 120.22 174.395 120.343 174.14C120.466 173.884 120.639 173.655 120.851 173.467C121.063 173.278 121.311 173.134 121.58 173.042C121.847 172.946 122.131 172.905 122.414 172.92C122.698 172.935 122.976 173.006 123.232 173.129C123.488 173.252 123.717 173.424 123.905 173.636C124.094 173.848 124.239 174.096 124.331 174.364V174.364C124.426 174.631 124.468 174.915 124.453 175.198C124.438 175.481 124.367 175.759 124.244 176.014C124.121 176.27 123.948 176.499 123.736 176.687C123.523 176.876 123.276 177.02 123.007 177.112V177.112C122.777 177.198 122.534 177.242 122.289 177.242V177.242C121.841 177.24 121.405 177.099 121.041 176.839C120.677 176.579 120.403 176.212 120.256 175.79V175.79ZM150.822 174.442C150.272 174.301 149.8 173.95 149.506 173.466C149.211 172.981 149.119 172.401 149.247 171.849V171.849C149.388 171.3 149.739 170.829 150.225 170.537C150.71 170.244 151.291 170.154 151.843 170.285V170.285C152.393 170.424 152.866 170.774 153.159 171.259C153.453 171.745 153.542 172.326 153.409 172.877C153.293 173.344 153.023 173.759 152.644 174.055C152.264 174.351 151.796 174.512 151.315 174.511V174.511C151.156 174.491 150.999 174.453 150.848 174.399L150.822 174.442ZM118.941 171.469C118.787 170.917 118.857 170.328 119.138 169.828C119.419 169.329 119.886 168.962 120.438 168.807V168.807C120.711 168.729 120.998 168.707 121.28 168.741C121.563 168.775 121.836 168.864 122.084 169.004C122.332 169.144 122.549 169.331 122.724 169.555C122.899 169.78 123.027 170.036 123.102 170.311V170.311C123.257 170.862 123.186 171.452 122.905 171.951C122.625 172.45 122.157 172.817 121.606 172.973C121.417 173.023 121.222 173.049 121.026 173.05V173.05C120.553 173.051 120.093 172.896 119.717 172.61C119.34 172.325 119.068 171.924 118.941 171.469ZM151.895 170.181C151.614 170.129 151.347 170.022 151.108 169.867C150.869 169.711 150.663 169.51 150.502 169.274C150.341 169.039 150.228 168.774 150.17 168.495C150.113 168.216 150.11 167.928 150.164 167.649V167.649C150.216 167.368 150.323 167.1 150.48 166.86C150.636 166.621 150.838 166.415 151.075 166.254C151.311 166.093 151.577 165.981 151.858 165.923C152.138 165.866 152.427 165.865 152.708 165.92V165.92C152.988 165.972 153.256 166.079 153.495 166.234C153.734 166.39 153.94 166.591 154.1 166.827C154.261 167.062 154.374 167.327 154.432 167.606C154.49 167.885 154.492 168.173 154.438 168.452V168.452C154.338 168.94 154.073 169.379 153.687 169.694C153.3 170.009 152.817 170.181 152.318 170.181V170.181C152.178 170.199 152.036 170.205 151.895 170.198V170.181ZM117.859 167.147C117.794 166.87 117.785 166.583 117.831 166.302C117.878 166.022 117.98 165.753 118.131 165.512C118.282 165.271 118.48 165.062 118.713 164.898C118.945 164.733 119.208 164.617 119.486 164.555V164.555C119.764 164.491 120.052 164.482 120.333 164.53C120.614 164.578 120.883 164.68 121.124 164.832C121.365 164.984 121.574 165.182 121.738 165.415C121.902 165.647 122.019 165.91 122.081 166.188V166.188C122.145 166.465 122.154 166.752 122.107 167.032C122.06 167.312 121.958 167.581 121.807 167.822C121.656 168.062 121.459 168.271 121.227 168.436C120.995 168.6 120.732 168.718 120.455 168.781C120.296 168.815 120.133 168.832 119.97 168.833V168.833C119.479 168.833 119.003 168.666 118.619 168.36C118.235 168.054 117.968 167.626 117.859 167.147V167.147ZM152.734 165.92C152.452 165.878 152.182 165.781 151.939 165.634C151.695 165.487 151.483 165.294 151.314 165.065C151.145 164.836 151.023 164.576 150.955 164.3C150.887 164.025 150.874 163.738 150.917 163.457V163.457C150.961 163.177 151.06 162.908 151.209 162.666C151.357 162.423 151.552 162.213 151.781 162.046C152.011 161.879 152.272 161.759 152.548 161.693C152.824 161.626 153.111 161.615 153.391 161.659V161.659C153.958 161.747 154.467 162.055 154.806 162.517C155.145 162.979 155.286 163.556 155.199 164.122V164.122C155.119 164.632 154.86 165.096 154.469 165.431C154.077 165.767 153.579 165.953 153.063 165.955V165.955C152.953 165.964 152.843 165.964 152.734 165.955V165.92ZM116.968 162.826C116.865 162.263 116.989 161.683 117.313 161.211C117.637 160.74 118.136 160.416 118.699 160.311V160.311C118.978 160.259 119.264 160.262 119.542 160.32C119.82 160.379 120.083 160.492 120.317 160.652C120.551 160.813 120.751 161.018 120.905 161.256C121.06 161.494 121.165 161.761 121.216 162.04V162.04C121.32 162.602 121.196 163.183 120.872 163.654C120.547 164.126 120.049 164.45 119.486 164.555C119.357 164.567 119.226 164.567 119.097 164.555V164.555C118.597 164.557 118.111 164.386 117.723 164.07C117.335 163.755 117.068 163.315 116.968 162.826V162.826ZM153.391 161.642C153.109 161.609 152.836 161.52 152.588 161.381C152.339 161.243 152.121 161.056 151.945 160.833C151.769 160.61 151.639 160.354 151.562 160.081C151.485 159.807 151.463 159.521 151.497 159.239V159.239C151.568 158.67 151.862 158.151 152.314 157.797C152.766 157.442 153.34 157.281 153.91 157.347V157.347C154.48 157.418 154.998 157.712 155.352 158.163C155.705 158.615 155.865 159.189 155.796 159.758V159.758C155.733 160.282 155.48 160.765 155.084 161.115C154.689 161.465 154.179 161.659 153.651 161.659L153.391 161.642ZM116.242 158.505C116.16 157.939 116.305 157.364 116.645 156.904C116.985 156.445 117.493 156.138 118.058 156.05V156.05C118.626 155.966 119.204 156.109 119.666 156.449C120.128 156.79 120.437 157.298 120.524 157.865V157.865C120.608 158.431 120.465 159.008 120.124 159.468C119.783 159.928 119.274 160.234 118.707 160.32V160.32H118.379C117.865 160.32 117.367 160.138 116.976 159.805C116.584 159.473 116.324 159.011 116.242 158.505V158.505ZM153.902 157.364C153.331 157.309 152.806 157.031 152.439 156.591C152.073 156.15 151.896 155.583 151.946 155.013C151.973 154.73 152.054 154.456 152.186 154.204C152.319 153.953 152.499 153.731 152.718 153.549C152.937 153.368 153.189 153.231 153.46 153.147C153.731 153.063 154.017 153.034 154.3 153.06V153.06C154.583 153.085 154.859 153.165 155.111 153.297C155.363 153.429 155.586 153.61 155.768 153.828C155.949 154.047 156.086 154.299 156.17 154.571C156.253 154.842 156.282 155.128 156.255 155.411V155.411C156.205 155.946 155.958 156.443 155.562 156.806C155.165 157.168 154.647 157.37 154.109 157.372H153.902V157.364ZM115.653 154.183C115.618 153.902 115.639 153.616 115.715 153.342C115.791 153.069 115.921 152.813 116.096 152.59C116.271 152.367 116.489 152.18 116.737 152.041C116.984 151.902 117.257 151.814 117.539 151.781V151.781C117.821 151.746 118.107 151.767 118.381 151.843C118.655 151.918 118.911 152.048 119.134 152.223C119.358 152.398 119.545 152.615 119.684 152.863C119.823 153.11 119.911 153.383 119.945 153.665V153.665C119.98 153.947 119.959 154.233 119.883 154.507C119.807 154.781 119.678 155.037 119.502 155.261C119.327 155.485 119.109 155.673 118.862 155.812C118.614 155.952 118.341 156.042 118.058 156.076V156.076H117.799C117.272 156.076 116.763 155.883 116.368 155.535C115.973 155.186 115.719 154.706 115.653 154.183V154.183ZM154.3 153.086C154.009 153.071 153.724 152.997 153.462 152.869C153.201 152.741 152.968 152.561 152.778 152.34C152.588 152.12 152.445 151.863 152.357 151.586C152.269 151.308 152.238 151.016 152.267 150.726C152.309 150.155 152.575 149.624 153.008 149.248C153.441 148.873 154.005 148.683 154.577 148.721V148.721C155.148 148.763 155.68 149.029 156.056 149.462C156.432 149.894 156.622 150.457 156.584 151.029V151.029C156.546 151.576 156.302 152.088 155.9 152.462C155.499 152.836 154.97 153.044 154.421 153.042H154.274L154.3 153.086ZM115.178 149.827C115.149 149.545 115.176 149.26 115.258 148.989C115.34 148.717 115.475 148.464 115.655 148.245C115.835 148.026 116.057 147.844 116.308 147.711C116.558 147.578 116.833 147.495 117.115 147.468V147.468C117.398 147.439 117.683 147.467 117.955 147.549C118.227 147.631 118.48 147.765 118.699 147.945C118.919 148.125 119.101 148.347 119.234 148.597C119.368 148.847 119.45 149.122 119.477 149.404V149.404C119.506 149.686 119.478 149.97 119.396 150.241C119.314 150.512 119.179 150.764 118.999 150.983C118.819 151.201 118.597 151.382 118.346 151.515C118.096 151.647 117.822 151.729 117.539 151.755V151.755H117.323C116.788 151.753 116.273 151.553 115.876 151.194C115.48 150.835 115.231 150.342 115.178 149.81V149.827ZM154.594 148.764C154.311 148.751 154.033 148.682 153.777 148.561C153.521 148.441 153.291 148.271 153.1 148.061C152.91 147.852 152.763 147.607 152.667 147.34C152.571 147.074 152.529 146.791 152.543 146.509C152.556 146.225 152.624 145.947 152.744 145.69C152.864 145.433 153.034 145.202 153.244 145.011C153.454 144.82 153.7 144.672 153.967 144.576C154.234 144.48 154.518 144.438 154.801 144.452V144.452C155.086 144.465 155.364 144.534 155.622 144.655C155.879 144.776 156.11 144.947 156.301 145.157C156.492 145.367 156.64 145.613 156.736 145.881C156.832 146.148 156.874 146.432 156.861 146.716V146.716C156.834 147.271 156.594 147.794 156.191 148.177C155.789 148.56 155.254 148.774 154.698 148.773H154.594V148.764ZM114.797 145.463C114.776 145.18 114.81 144.895 114.899 144.625C114.988 144.355 115.13 144.106 115.315 143.891C115.501 143.676 115.727 143.499 115.981 143.372C116.235 143.244 116.512 143.167 116.795 143.147V143.147C117.079 143.125 117.364 143.16 117.634 143.249C117.904 143.338 118.154 143.479 118.369 143.665C118.584 143.85 118.761 144.076 118.889 144.33C119.017 144.583 119.093 144.86 119.114 145.143V145.143C119.155 145.715 118.967 146.279 118.593 146.713C118.218 147.147 117.687 147.415 117.115 147.459H116.96C116.411 147.459 115.883 147.25 115.482 146.877C115.081 146.503 114.836 145.992 114.797 145.446V145.463ZM154.801 144.443C154.517 144.435 154.238 144.371 153.978 144.256C153.719 144.14 153.485 143.974 153.29 143.768C153.094 143.561 152.942 143.319 152.84 143.053C152.739 142.788 152.691 142.506 152.699 142.222V142.222C152.707 141.937 152.771 141.657 152.888 141.397C153.004 141.138 153.171 140.903 153.378 140.708C153.586 140.513 153.83 140.361 154.096 140.26C154.363 140.159 154.646 140.112 154.931 140.122V140.122C155.503 140.14 156.045 140.384 156.438 140.8C156.83 141.216 157.041 141.771 157.025 142.343V142.343C157.009 142.905 156.774 143.439 156.37 143.832C155.966 144.224 155.425 144.443 154.862 144.443H154.801ZM114.52 141.098C114.504 140.814 114.544 140.53 114.637 140.262C114.731 139.993 114.877 139.746 115.067 139.534C115.256 139.322 115.486 139.15 115.743 139.026C115.999 138.903 116.278 138.832 116.562 138.817V138.817C117.135 138.788 117.696 138.988 118.123 139.372C118.549 139.756 118.806 140.292 118.837 140.865V140.865C118.863 141.434 118.663 141.99 118.281 142.412C117.898 142.835 117.365 143.089 116.795 143.121H116.674C116.122 143.121 115.59 142.91 115.189 142.531C114.788 142.151 114.549 141.632 114.52 141.081V141.098ZM154.923 140.113C154.639 140.111 154.359 140.053 154.098 139.942C153.836 139.831 153.6 139.67 153.401 139.467C153.203 139.265 153.046 139.026 152.94 138.763C152.835 138.5 152.782 138.218 152.786 137.935C152.789 137.651 152.848 137.371 152.96 137.11C153.072 136.849 153.234 136.613 153.437 136.415C153.641 136.217 153.881 136.06 154.145 135.955C154.409 135.849 154.69 135.797 154.975 135.8C155.258 135.803 155.539 135.861 155.8 135.972C156.061 136.082 156.297 136.243 156.496 136.446C156.694 136.648 156.851 136.888 156.957 137.151C157.062 137.414 157.115 137.695 157.111 137.978V137.978C157.105 138.548 156.874 139.091 156.469 139.492C156.065 139.893 155.519 140.119 154.949 140.122L154.923 140.113ZM114.321 136.725C114.311 136.441 114.356 136.158 114.455 135.892C114.555 135.626 114.705 135.382 114.899 135.174C115.093 134.966 115.325 134.798 115.584 134.68C115.843 134.563 116.122 134.497 116.406 134.487V134.487C116.98 134.47 117.537 134.681 117.957 135.072C118.376 135.464 118.624 136.005 118.647 136.578V136.578C118.665 137.15 118.456 137.706 118.066 138.124C117.675 138.542 117.134 138.788 116.562 138.808H116.484C115.921 138.808 115.379 138.589 114.976 138.197C114.572 137.804 114.337 137.27 114.321 136.708V136.725ZM152.794 133.648C152.794 133.075 153.02 132.525 153.424 132.117C153.827 131.71 154.375 131.477 154.949 131.47V131.47C155.233 131.468 155.515 131.522 155.778 131.629C156.042 131.736 156.281 131.894 156.483 132.094C156.685 132.295 156.845 132.533 156.954 132.795C157.064 133.057 157.12 133.338 157.12 133.622C157.122 133.906 157.069 134.187 156.962 134.449C156.855 134.712 156.698 134.951 156.498 135.152C156.299 135.354 156.062 135.514 155.8 135.624C155.539 135.733 155.258 135.791 154.975 135.792V135.792C154.689 135.794 154.406 135.74 154.141 135.632C153.877 135.525 153.637 135.366 153.434 135.165C153.231 134.964 153.07 134.725 152.961 134.462C152.851 134.199 152.794 133.916 152.794 133.631V133.648ZM114.209 132.352C114.204 132.068 114.255 131.786 114.36 131.522C114.464 131.258 114.62 131.018 114.817 130.814C115.015 130.61 115.251 130.447 115.512 130.334C115.772 130.221 116.053 130.161 116.337 130.157V130.157C116.621 130.152 116.903 130.203 117.167 130.308C117.431 130.412 117.672 130.567 117.876 130.765C118.08 130.962 118.244 131.198 118.357 131.458C118.469 131.719 118.53 131.999 118.534 132.283V132.283C118.539 132.566 118.487 132.848 118.383 133.112C118.279 133.376 118.123 133.617 117.925 133.821C117.728 134.025 117.492 134.188 117.231 134.3C116.97 134.413 116.69 134.473 116.406 134.478V134.478C116.12 134.484 115.835 134.433 115.569 134.328C115.303 134.223 115.06 134.066 114.855 133.867C114.65 133.667 114.486 133.429 114.374 133.166C114.261 132.903 114.202 132.621 114.2 132.335L114.209 132.352ZM152.734 129.361C152.725 129.075 152.773 128.789 152.875 128.521C152.977 128.253 153.132 128.009 153.33 127.801C153.528 127.594 153.766 127.427 154.029 127.312C154.292 127.198 154.575 127.136 154.862 127.132C155.146 127.125 155.429 127.174 155.694 127.276C155.959 127.378 156.201 127.532 156.407 127.728C156.612 127.923 156.778 128.158 156.892 128.417C157.007 128.677 157.07 128.957 157.077 129.24V129.24C157.084 129.524 157.035 129.807 156.932 130.071C156.83 130.336 156.676 130.578 156.48 130.784C156.284 130.989 156.05 131.154 155.79 131.269C155.53 131.384 155.25 131.446 154.966 131.453H154.862C154.303 131.444 153.77 131.22 153.373 130.827C152.976 130.434 152.747 129.902 152.734 129.344V129.361ZM116.32 130.148C116.035 130.142 115.755 130.081 115.495 129.967C115.235 129.853 115 129.689 114.803 129.485C114.606 129.28 114.451 129.039 114.348 128.774C114.244 128.51 114.194 128.228 114.2 127.944V127.944C114.206 127.66 114.267 127.38 114.381 127.12C114.495 126.86 114.659 126.625 114.864 126.429C115.069 126.232 115.31 126.078 115.575 125.974C115.84 125.871 116.122 125.821 116.406 125.827V125.827C116.69 125.832 116.97 125.894 117.231 126.008C117.491 126.121 117.726 126.285 117.923 126.49C118.12 126.695 118.274 126.936 118.378 127.2C118.481 127.465 118.531 127.747 118.526 128.031V128.031C118.514 128.596 118.281 129.135 117.877 129.53C117.473 129.926 116.929 130.148 116.363 130.148H116.32Z" fill="#FCB13A"/>
<path d="M105.021 251.595L104.891 251.388C100.003 243.782 95.0282 235.883 90.3823 227.966C85.7365 220.049 81.0992 212.089 76.7389 204.026C74.5154 199.903 72.3266 195.763 70.207 191.615L71.894 190.232C73.2523 189.126 74.6366 188.028 76.0122 186.93C74.6452 185.401 73.2783 183.862 71.894 182.341C66.0543 175.876 60.1626 169.196 55.2052 161.944C53.7604 163.215 52.307 164.537 50.8795 165.79C48.6647 167.818 46.4643 169.87 44.2784 171.944C41.6522 174.448 39.9627 177.774 39.4906 181.37C39.0184 184.965 39.792 188.614 41.6829 191.71L41.7521 191.822C44.1832 195.988 46.8046 200.015 49.3655 204.086L51.7446 207.673C53.6134 210.473 55.4821 213.247 57.4114 215.987C68.1832 231.446 79.8842 246.238 92.45 260.281L92.9259 260.825C94.2088 262.173 95.9395 263.006 97.7936 263.17C99.6476 263.333 101.498 262.816 102.997 261.714C104.497 260.613 105.543 259.003 105.939 257.186C106.336 255.369 106.055 253.471 105.15 251.846C105.116 251.733 105.064 251.664 105.021 251.595Z" fill="#ED8D5D"/>
<path d="M103.36 251.024C103.36 251.024 116.795 256.694 116.553 258.863C116.311 261.033 109.165 260.687 109.165 260.687C109.165 260.687 118.569 273.651 117.392 275.215C116.216 276.78 107.919 266.823 107.919 266.823C107.919 266.823 113.023 276.287 111.63 277.99C110.238 279.692 103.386 267.757 103.386 267.757C103.386 267.757 106.249 278.327 104.009 279.087C101.768 279.848 98.9906 266.927 98.9906 266.927C98.9906 266.927 99.328 274.705 97.641 274.965C95.954 275.224 91.8445 257.921 91.8445 257.921L103.36 251.024Z" fill="#ED8D5D"/>
<path d="M65.1287 186.87L69.9562 191.701L68.5287 187.233" stroke="#0B334C" stroke-width="0.93" stroke-linecap="round" stroke-linejoin="round"/>
<path d="M98.584 171.685L110.757 163.275L99.6654 175.972L98.584 171.685Z" fill="#0B334C"/>
<path d="M50.2825 164.079L73.9011 190.093L114.693 159.524L105.029 127.391C105.029 127.391 95.0973 130.079 89.4565 134.901C83.8157 139.724 50.2825 164.079 50.2825 164.079Z" fill="#1F5B99"/>
<path d="M168.358 81.3859C167.009 84.7047 161.801 88.5939 158.435 87.358C158.067 90.3966 157.314 93.3762 156.194 96.2254C154.421 99.8909 151.741 103.044 148.408 105.387C146.36 106.901 144.17 108.212 141.868 109.302C140.112 110.14 138.19 110.576 136.244 110.576C134.298 110.576 132.376 110.14 130.621 109.302C130.119 109.06 129.6 108.801 129.072 108.507C127.455 107.664 125.904 106.699 124.435 105.62C120.976 103.229 118.2 99.9792 116.38 96.1909C115.279 93.3561 114.538 90.3944 114.174 87.3753C111.821 88.2396 108.576 86.5715 106.388 84.3763C105.503 83.5222 104.789 82.5072 104.285 81.3859C103.738 80.0503 103.647 78.5713 104.027 77.1788C104.407 75.7863 105.237 74.5582 106.388 73.6853L106.561 73.5556L106.976 73.2877C107.123 73.2013 107.27 73.1149 107.417 73.0457L107.884 72.8296C108.085 72.7461 108.29 72.674 108.499 72.6136C109.589 72.2835 110.749 72.2537 111.855 72.5272C112.211 72.5995 112.559 72.7066 112.894 72.8469C112.894 72.2852 112.842 71.7147 112.824 71.1184C112.77 69.7787 112.833 68.4367 113.015 67.1082C113.82 61.2154 116.831 55.8468 121.442 52.0848C126.053 48.3228 131.921 46.4473 137.862 46.8365C143.802 47.2258 149.374 49.8507 153.454 54.1821C157.534 58.5134 159.818 64.229 159.845 70.1763C159.845 70.5048 159.845 70.8418 159.845 71.1789C159.845 71.7234 159.802 72.2765 159.776 72.821C160.718 72.4354 161.736 72.2699 162.752 72.337H163.107C163.429 72.3762 163.747 72.4397 164.059 72.5272C164.306 72.5922 164.549 72.673 164.785 72.7692C165.589 73.0977 166.319 73.5818 166.934 74.1937C167.549 74.8055 168.036 75.533 168.369 76.334C168.701 77.1351 168.871 77.9939 168.869 78.861C168.867 79.7281 168.694 80.5862 168.358 81.3859V81.3859Z" fill="#ED8D5D"/>
<path d="M143.762 90.7026C143.761 91.8055 144.086 92.8842 144.698 93.802C145.311 94.7199 146.181 95.4357 147.201 95.859C148.22 96.2822 149.343 96.3939 150.426 96.1797C151.509 95.9656 152.504 95.4354 153.285 94.6561C154.066 93.8768 154.599 92.8836 154.815 91.802C155.031 90.7204 154.921 89.5991 154.499 88.58C154.077 87.5609 153.361 86.6897 152.444 86.0768C151.526 85.4639 150.446 85.1367 149.342 85.1367C147.864 85.1367 146.446 85.7228 145.4 86.7664C144.353 87.81 143.765 89.2257 143.762 90.7026Z" fill="#E6794E"/>
<path d="M117.721 90.7025C117.721 91.805 118.048 92.8828 118.662 93.7995C119.275 94.7162 120.146 95.4307 121.166 95.8527C122.186 96.2746 123.308 96.385 124.39 96.1699C125.473 95.9548 126.467 95.4239 127.247 94.6443C128.028 93.8646 128.559 92.8714 128.774 91.79C128.99 90.7087 128.879 89.5878 128.457 88.5692C128.035 87.5506 127.319 86.6799 126.402 86.0674C125.484 85.4549 124.405 85.1279 123.301 85.1279C121.821 85.1279 120.402 85.7152 119.356 86.7607C118.309 87.8061 117.721 89.224 117.721 90.7025Z" fill="#E6794E"/>
<path d="M136.149 78.0669C136.504 79.1299 136.832 80.0634 137.17 81.0227C137.517 81.9985 137.806 82.9942 138.035 84.0044C138.153 84.5428 138.233 85.0886 138.277 85.6379C138.335 86.2719 138.259 86.911 138.052 87.5134C137.813 88.1234 137.382 88.6391 136.824 88.9826C136.339 89.2816 135.801 89.4868 135.24 89.5876C135.889 88.6628 136.512 87.8591 136.495 87.1072C136.434 86.2037 136.28 85.3088 136.036 84.4366C135.8 83.4105 135.647 82.3672 135.578 81.3166C135.494 80.2027 135.691 79.0857 136.149 78.0669V78.0669Z" fill="#0B334C"/>
<path d="M141.928 71.4814C142.61 71.1382 143.355 70.9382 144.117 70.8937C144.889 70.8477 145.663 70.9414 146.401 71.1703C147.158 71.4014 147.853 71.8002 148.434 72.337C148.993 72.8589 149.423 73.5041 149.689 74.2211C149.729 74.3268 149.728 74.4441 149.684 74.5487C149.641 74.6533 149.559 74.7372 149.455 74.7829C149.378 74.8149 149.294 74.8237 149.213 74.8084C149.131 74.793 149.056 74.7541 148.996 74.6965H148.953C148.534 74.2598 148.053 73.8871 147.526 73.5902C147.034 73.3093 146.494 73.1218 145.934 73.0371C145.362 72.9447 144.782 72.91 144.204 72.9334C143.624 72.9334 142.992 72.9939 142.43 73.0112H142.309C142.128 73.0179 141.949 72.9625 141.804 72.8542C141.658 72.7459 141.554 72.5912 141.509 72.4157C141.463 72.2402 141.479 72.0544 141.554 71.8892C141.629 71.724 141.758 71.5893 141.92 71.5073L141.928 71.4814Z" fill="#0B334C"/>
<path d="M130.214 72.942C129.652 72.942 129.02 72.8642 128.44 72.8642C127.862 72.8427 127.283 72.8745 126.71 72.9593C126.152 73.052 125.614 73.2391 125.118 73.5124C124.596 73.8273 124.124 74.2175 123.717 74.6706L123.673 74.7138C123.634 74.754 123.587 74.786 123.535 74.8078C123.483 74.8296 123.427 74.8409 123.371 74.8409C123.314 74.8409 123.258 74.8296 123.206 74.8078C123.154 74.786 123.107 74.754 123.068 74.7138C123.011 74.6537 122.973 74.5786 122.957 74.4974C122.942 74.4162 122.95 74.3323 122.981 74.2557C123.249 73.5397 123.678 72.8949 124.236 72.3716C124.817 71.8372 125.512 71.4413 126.269 71.2135C127.006 70.9763 127.781 70.8824 128.553 70.9369C129.316 70.9772 130.061 71.1774 130.742 71.5246C130.835 71.572 130.918 71.6376 130.986 71.7175C131.053 71.7973 131.104 71.8898 131.136 71.9896C131.167 72.0894 131.178 72.1945 131.169 72.2987C131.159 72.4028 131.129 72.504 131.079 72.5963C131.01 72.7286 130.906 72.8391 130.777 72.9155C130.649 72.9918 130.502 73.0309 130.352 73.0284L130.214 72.942Z" fill="#0B334C"/>
<path d="M125.741 81.1176C125.741 82.993 126.684 84.5055 127.852 84.5055C129.02 84.5055 129.963 82.993 129.963 81.1262C129.963 79.2594 129.02 77.7383 127.852 77.7383C126.684 77.7383 125.741 79.2508 125.741 81.1176Z" fill="#0B334C"/>
<path d="M142.689 81.1262C142.689 82.993 143.632 84.5142 144.8 84.5142C145.968 84.5142 146.903 82.993 146.903 81.1262C146.903 79.2594 145.96 77.7383 144.8 77.7383C143.641 77.7383 142.689 79.2594 142.689 81.1262Z" fill="#0B334C"/>
<path d="M131.771 93.9004C131.485 93.947 131.193 93.947 130.906 93.9004C130.609 93.8551 130.318 93.7738 130.041 93.6584C129.772 93.5453 129.519 93.3971 129.288 93.2176C129.045 93.0438 128.849 92.8121 128.717 92.5435C129.245 92.8027 129.721 92.9929 130.24 93.2089C130.482 93.3213 130.742 93.4164 130.993 93.5374C131.258 93.6444 131.518 93.7656 131.771 93.9004Z" fill="#0B334C"/>
<path d="M136.832 92.0423C136.04 92.5141 135.154 92.8089 134.237 92.9066C133.274 93.0354 132.294 92.9287 131.382 92.5954C131.153 92.5058 130.931 92.4019 130.716 92.2843L130.093 91.8694C129.719 91.5544 129.395 91.1843 129.132 90.7718C128.614 89.9766 128.315 89.058 128.267 88.1099C128.527 88.4988 128.7 88.9136 128.951 89.2766C129.176 89.6414 129.437 89.9831 129.729 90.2965C130.264 90.9172 130.949 91.3904 131.719 91.6707C132.51 91.9599 133.343 92.1175 134.185 92.1374C135.069 92.1723 135.954 92.1406 136.832 92.0423V92.0423Z" fill="#0B334C"/>
<path d="M130.439 45.1294C124.314 46.0228 118.679 48.9808 114.468 53.5128C109.366 58.9849 106.493 66.1636 106.414 73.6417C107.181 73.0678 108.065 72.6677 109.003 72.4692C109.942 72.2707 110.912 72.2786 111.847 72.4922C113.404 76.4678 115.584 80.7027 115.584 80.7027L117.738 75.5171C139.921 70.15 139.03 59.7874 139.03 59.7874C139.03 59.7874 146.366 75.1541 153.339 75.8715C153.339 75.8715 155.13 81.0571 155.848 80.7027C156.333 80.4607 159.759 72.6391 159.75 72.8379C161.122 72.269 162.646 72.1776 164.076 72.5786C163.401 56.8489 151.133 41.9748 130.439 45.1294Z" fill="#0B334C"/>
<path d="M125.854 116.276C126.952 113.442 126.675 109.596 124.443 105.603C120.985 103.211 118.209 99.9618 116.389 96.1735C115.287 93.3387 114.546 90.377 114.183 87.3579C111.829 88.2222 108.585 86.5541 106.396 84.3589C106.766 89.6156 108.082 94.7625 110.281 99.5527C109.217 102.292 106.881 109.535 109.468 114.911C108.248 118.8 107.062 124.738 109.563 128.402C108.274 131.755 105.713 139.845 108.922 144.348C107.417 148.591 105.202 157.113 110.013 160.769C108.336 162.204 107.211 164.177 106.831 166.35C106.45 168.523 106.838 170.76 107.928 172.679L122.817 174.407C122.817 174.407 124.815 165.6 121.32 161.244C125.983 158.28 127.108 150.916 123.708 144.339C126.563 140.701 126.814 134.625 123.881 129.128C126.667 126.215 127.463 121.229 125.854 116.276Z" fill="#0B334C"/>
<path d="M159.378 100.348C159.76 100.42 160.152 100.417 160.533 100.338C160.913 100.26 161.275 100.107 161.596 99.8885C161.917 99.6702 162.192 99.3908 162.406 99.0662C162.619 98.7417 162.766 98.3783 162.839 97.997L167.692 72.3541C167.765 71.9727 167.762 71.5808 167.683 71.2006C167.604 70.8205 167.451 70.4596 167.233 70.1386C167.014 69.8176 166.734 69.5427 166.409 69.3296C166.085 69.1166 165.721 68.9696 165.339 68.897C164.957 68.8243 164.565 68.8275 164.184 68.9063C163.804 68.9851 163.443 69.138 163.121 69.3563C162.8 69.5746 162.525 69.854 162.312 70.1785C162.098 70.5031 161.951 70.8664 161.878 71.2478L157.025 96.8907C156.951 97.2722 156.953 97.6644 157.032 98.045C157.11 98.4256 157.263 98.7869 157.482 99.1082C157.7 99.4295 157.981 99.7044 158.306 99.9172C158.632 100.13 158.996 100.276 159.378 100.348Z" fill="#00A2DD"/>
<path d="M233.124 197.552V166.637H208.796V197.552C208.796 199.338 208.086 201.05 206.822 202.313C205.558 203.575 203.844 204.285 202.056 204.285V204.285C223.486 236.047 240.123 204.285 240.123 204.285H239.881C238.994 204.287 238.116 204.115 237.296 203.777C236.476 203.44 235.732 202.944 235.104 202.319C234.476 201.694 233.978 200.951 233.638 200.133C233.299 199.315 233.124 198.438 233.124 197.552Z" fill="#FFA58A"/>
<path d="M233.132 183.266V188.045C231.152 189.483 229.044 190.735 226.834 191.788C225.053 192.645 223.101 193.091 221.124 193.091C219.147 193.091 217.195 192.645 215.414 191.788C213.081 190.687 210.863 189.355 208.796 187.812V183.024C210.868 184.572 213.088 185.912 215.423 187.025C217.205 187.879 219.156 188.322 221.133 188.322C223.109 188.322 225.06 187.879 226.843 187.025C229.053 185.973 231.159 184.714 233.132 183.266Z" fill="#0B334C"/>
<path d="M201.468 203.499C201.468 203.499 217.577 213.87 239.05 203.499C239.05 203.499 258.282 203.499 261.769 210.465C265.255 217.431 273.016 318.784 273.016 318.784H173.471C173.471 318.784 174.544 222.53 179.104 214.207C183.663 205.884 201.468 203.499 201.468 203.499Z" fill="#F64652"/>
<path d="M328.645 277.203C327.226 275.285 325.799 273.392 324.319 271.499C323.783 270.808 323.229 270.133 322.684 269.451H279.254C280.119 270.237 280.906 271.015 281.719 271.801C285.889 275.838 289.99 279.934 293.978 284.1C288.788 284.904 283.527 285.638 278.285 286.304C269.071 287.471 259.796 288.413 250.487 289.217C241.178 290.02 231.765 290.634 222.595 291.109H222.344H222.093C218.632 289.078 210.803 284.757 209.531 285.924C207.887 287.402 212.395 293.08 212.395 293.08C212.395 293.08 196.156 292.993 195.559 294.895C194.962 296.796 208.069 297.73 208.069 297.73C208.069 297.73 197.246 299.121 196.666 301.273C196.087 303.425 209.972 302.016 209.972 302.016C209.972 302.016 199.59 305.906 200.265 308.196C200.94 310.486 213.243 305.145 213.243 305.145C213.243 305.145 206.615 309.466 207.411 310.996C208.026 312.172 218.01 308.403 222.603 306.614C241.605 308.672 260.714 309.567 279.825 309.294C284.678 309.25 289.532 309.069 294.394 308.887C299.256 308.706 304.127 308.369 309.015 307.911C310.745 307.781 312.475 307.634 314.249 307.461L315.806 307.314C319.075 306.983 322.199 305.797 324.862 303.875C327.526 301.954 329.635 299.364 330.977 296.369C332.32 293.373 332.848 290.076 332.508 286.812C332.169 283.547 330.973 280.43 329.043 277.774L328.645 277.203Z" fill="#FFA58A"/>
<path d="M296.124 289.113L293.615 283.936L297.733 286.079" stroke="#0B334C" stroke-width="0.93" stroke-linecap="round" stroke-linejoin="round"/>
<path d="M289.635 279.641H330.298C330.298 279.641 332.175 283.141 332.279 285.051L289.635 279.641Z" fill="#0B334C"/>
<path d="M240.901 203.498C240.901 203.498 252.806 200.041 276.424 220.654C300.043 241.267 331.708 279.641 331.708 279.641H286.365C286.365 279.641 256.041 248.527 238.055 236.747C238.038 236.747 219.61 219.047 240.901 203.498Z" fill="#F64652"/>
<path d="M286.106 276.607H327.079" stroke="#0B334C" stroke-width="0.93" stroke-linecap="round" stroke-linejoin="round"/>
<path d="M230.996 293.08C230.996 293.08 235.494 287.402 233.851 285.924C232.579 284.783 224.792 289.104 221.297 291.109H221.055H220.804C211.642 290.634 202.195 290.064 192.92 289.217C183.646 288.37 174.337 287.488 165.123 286.304C159.874 285.641 154.643 284.907 149.429 284.1C153.409 279.934 157.51 275.838 161.688 271.801L164.145 269.451H120.654C120.109 270.133 119.555 270.808 119.01 271.499C117.566 273.392 116.138 275.285 114.685 277.203L114.278 277.756C112.344 280.411 111.145 283.528 110.801 286.793C110.458 290.058 110.983 293.356 112.323 296.354C113.663 299.351 115.77 301.943 118.433 303.868C121.096 305.792 124.219 306.981 127.489 307.314L129.046 307.461C130.776 307.634 132.507 307.781 134.289 307.911C139.168 308.369 144.048 308.593 148.91 308.887C153.772 309.181 158.626 309.25 163.479 309.294C182.587 309.567 201.693 308.672 220.692 306.614C225.286 308.421 235.269 312.172 235.884 310.996C236.688 309.466 230.061 305.145 230.061 305.145C230.061 305.145 242.364 310.495 243.038 308.196C243.713 305.897 233.331 302.016 233.331 302.016C233.331 302.016 247.174 303.416 246.629 301.273C246.084 299.13 235.235 297.73 235.235 297.73C235.235 297.73 248.342 296.788 247.745 294.895C247.148 293.002 230.996 293.08 230.996 293.08Z" fill="#FFA58A"/>
<path d="M136.703 286.788L149.585 284.109L142.603 288.845" stroke="#0B334C" stroke-width="0.93" stroke-linecap="round" stroke-linejoin="round"/>
<path d="M153.608 279.641H112.902C112.353 280.985 111.877 282.359 111.475 283.755C111.38 284.463 153.608 279.641 153.608 279.641Z" fill="#0B334C"/>
<path d="M201.468 203.498C201.468 203.498 189.572 200.041 165.953 220.654C142.335 241.267 110.67 279.641 110.67 279.641H156.021C156.021 279.641 186.354 248.527 204.331 236.747C204.331 236.747 222.768 219.047 201.468 203.498Z" fill="#F64652"/>
<path d="M198.985 206.359C198.985 206.359 216.521 221.726 241.213 206.359" stroke="#0B334C" stroke-width="0.93" stroke-linecap="round" stroke-linejoin="round"/>
<path d="M117.375 274.637H156.558" stroke="#0B334C" stroke-width="0.93" stroke-linecap="round" stroke-linejoin="round"/>
<path d="M249.916 150.052C248.29 149.382 246.464 149.382 244.838 150.052C244.838 149.481 244.89 148.911 244.907 148.323C245.031 145.12 244.505 141.924 243.361 138.928C242.217 135.933 240.479 133.199 238.252 130.891C236.024 128.583 233.352 126.749 230.397 125.498C227.442 124.248 224.264 123.607 221.055 123.614V123.614C217.843 123.615 214.665 124.264 211.711 125.523C208.757 126.782 206.089 128.624 203.866 130.939C201.642 133.255 199.911 135.995 198.775 138.996C197.639 141.996 197.122 145.196 197.254 148.401L197.332 150.069C196.119 149.566 194.785 149.432 193.496 149.685C192.207 149.938 191.022 150.565 190.089 151.489C189.156 152.412 188.517 153.591 188.253 154.876C187.988 156.161 188.11 157.496 188.603 158.712C189.979 162.074 195.256 166.024 198.665 164.762C199.039 167.841 199.8 170.861 200.931 173.75C203.959 180.466 210.586 184.692 215.423 187.008C217.204 187.863 219.156 188.307 221.133 188.307C223.109 188.307 225.061 187.863 226.843 187.008C231.67 184.692 238.263 180.457 241.282 173.724C242.401 170.851 243.154 167.849 243.523 164.788C246.931 166.006 252.174 162.074 253.559 158.738C253.891 157.929 254.06 157.062 254.057 156.187C254.054 155.313 253.878 154.447 253.54 153.641C253.201 152.834 252.707 152.102 252.086 151.486C251.464 150.87 250.727 150.383 249.916 150.052V150.052Z" fill="#FFA58A"/>
<path d="M221.263 155.376C221.717 156.411 221.91 157.542 221.825 158.669C221.753 159.734 221.597 160.792 221.358 161.832C221.108 162.715 220.951 163.622 220.891 164.537C220.891 165.272 221.505 166.119 222.154 167.052C221.586 166.951 221.043 166.743 220.553 166.439C219.985 166.092 219.55 165.566 219.316 164.943C219.102 164.334 219.022 163.685 219.082 163.042C219.13 162.49 219.211 161.942 219.325 161.4C219.552 160.375 219.841 159.365 220.19 158.375C220.614 157.398 220.899 156.456 221.263 155.376Z" fill="#0B334C"/>
<path d="M214.886 150.216C214.315 150.216 213.675 150.139 213.087 150.13C212.508 150.117 211.93 150.152 211.357 150.234C210.791 150.325 210.247 150.516 209.747 150.795C209.213 151.096 208.726 151.475 208.303 151.919L208.259 151.962C208.186 152.032 208.09 152.074 207.989 152.082C207.888 152.089 207.787 152.062 207.704 152.004C207.621 151.946 207.56 151.862 207.532 151.764C207.504 151.667 207.51 151.563 207.55 151.47C207.823 150.745 208.258 150.092 208.822 149.56C209.41 149.017 210.114 148.615 210.881 148.384C211.629 148.147 212.416 148.054 213.199 148.108C213.973 148.148 214.73 148.348 215.423 148.695C215.611 148.796 215.752 148.967 215.815 149.171C215.878 149.375 215.858 149.595 215.76 149.784C215.691 149.918 215.585 150.029 215.455 150.106C215.325 150.182 215.176 150.221 215.025 150.216H214.886Z" fill="#0B334C"/>
<path d="M226.756 148.695C227.449 148.348 228.206 148.148 228.98 148.108C229.763 148.054 230.55 148.147 231.298 148.384C232.065 148.615 232.769 149.017 233.357 149.56C233.921 150.092 234.356 150.745 234.629 151.47C234.669 151.563 234.675 151.667 234.647 151.764C234.619 151.862 234.558 151.946 234.475 152.004C234.392 152.062 234.291 152.089 234.19 152.082C234.089 152.074 233.993 152.032 233.92 151.962L233.876 151.919C233.454 151.475 232.967 151.096 232.432 150.795C231.932 150.516 231.388 150.325 230.822 150.234C230.25 150.152 229.671 150.117 229.092 150.13C228.504 150.13 227.864 150.199 227.293 150.216H227.172C227.063 150.223 226.955 150.209 226.852 150.173C226.75 150.138 226.656 150.082 226.575 150.01C226.494 149.937 226.429 149.849 226.383 149.751C226.337 149.653 226.311 149.547 226.306 149.439C226.309 149.286 226.352 149.137 226.431 149.006C226.51 148.876 226.622 148.769 226.756 148.695Z" fill="#0B334C"/>
<path d="M231.809 158.504C231.809 160.406 230.848 161.962 229.672 161.962C228.495 161.962 227.535 160.423 227.535 158.504C227.535 156.586 228.487 155.047 229.672 155.047C230.857 155.047 231.809 156.577 231.809 158.504Z" fill="#0B334C"/>
<path d="M214.627 158.504C214.627 160.406 213.675 161.962 212.49 161.962C211.305 161.962 210.353 160.423 210.353 158.504C210.353 156.586 211.313 155.047 212.49 155.047C213.667 155.047 214.627 156.577 214.627 158.504Z" fill="#0B334C"/>
<path d="M225.692 171.469C225.941 171.318 226.198 171.183 226.462 171.062C226.722 170.933 226.981 170.838 227.232 170.717L228.002 170.406L228.772 170.051C228.639 170.321 228.443 170.555 228.201 170.734C227.967 170.92 227.708 171.071 227.431 171.183C227.153 171.298 226.863 171.38 226.566 171.425C226.278 171.481 225.984 171.496 225.692 171.469Z" fill="#0B334C"/>
<path d="M220.614 169.542C221.509 169.652 222.411 169.696 223.313 169.671C224.164 169.655 225.006 169.498 225.804 169.204C226.59 168.922 227.288 168.439 227.829 167.804C228.124 167.488 228.387 167.143 228.616 166.776C228.867 166.404 229.04 165.989 229.308 165.592C229.26 166.551 228.962 167.48 228.443 168.288C228.175 168.707 227.845 169.082 227.466 169.403L226.834 169.818C226.618 169.942 226.392 170.049 226.159 170.138C225.237 170.479 224.244 170.586 223.27 170.449C222.329 170.343 221.422 170.033 220.614 169.542Z" fill="#0B334C"/>
<path d="M250.608 124.522C248.783 118.273 230.528 117.478 214.981 122.387C214.981 122.387 215.994 109.691 201.251 130.857C201.251 130.857 193.223 135.55 193.257 141.271C193.257 145.376 198.206 153.146 200.992 157.2C201.144 157.421 201.358 157.593 201.608 157.693C201.857 157.793 202.131 157.817 202.394 157.762C202.657 157.706 202.898 157.574 203.086 157.381C203.274 157.189 203.4 156.945 203.449 156.681C204.254 152.36 205.569 144.486 205.421 140.13C205.421 140.13 227.864 147.373 238.539 144.936C238.539 148.548 238.799 156.517 239.976 156.932C241.49 157.459 249.164 148.479 249.605 145.973C249.856 144.538 248.783 141.012 247.598 138.618C249.193 136.681 250.3 134.39 250.824 131.936C251.348 129.483 251.274 126.94 250.608 124.522V124.522Z" fill="#0B334C"/>
<path d="M164.915 233.488H280.742C281.43 233.488 282.09 233.762 282.577 234.248C283.064 234.734 283.337 235.394 283.337 236.081V309.415H162.216V236.159C162.205 235.803 162.267 235.449 162.399 235.118C162.532 234.787 162.73 234.487 162.984 234.237C163.237 233.986 163.539 233.791 163.871 233.662C164.204 233.533 164.559 233.474 164.915 233.488V233.488Z" fill="#8EE4FD"/>
<path d="M224.789 279.75C229.345 278.671 232.163 274.106 231.082 269.555C230.002 265.003 225.433 262.188 220.876 263.267C216.32 264.347 213.503 268.911 214.583 273.463C215.663 278.015 220.233 280.829 224.789 279.75Z" fill="#1F5B99"/>
<path d="M426.399 309.467H12.562V328.766H426.399V309.467Z" fill="#0B334C"/>
<path d="M61.3738 220.352C59.0639 219.773 62.9138 215.227 65.3276 212.651C62.7852 206.949 59.233 201.752 54.8419 197.31C54.4774 196.942 54.0369 196.658 53.5512 196.476C53.0655 196.295 52.5462 196.222 52.0292 196.261C51.5123 196.301 51.0101 196.452 50.5576 196.705C50.1051 196.958 49.7131 197.306 49.4088 197.725C43.0932 206.558 41.1293 217.189 41.4234 227.646C44.1314 228.675 49.651 231.034 49.4434 233.083C49.2617 234.941 44.5985 233.48 41.657 232.382C43.569 253.773 53.7692 273.167 53.7692 273.167C70.7953 250.057 71.4442 231.363 67.3261 218.01C65.466 219.41 63.0868 220.775 61.3738 220.352Z" fill="#3ADFE0"/>
<path d="M51.3467 280.747C51.1131 279.969 69.5149 227.119 86.3161 226.851C103.117 226.583 114.001 247.706 110.177 251.224C106.353 254.741 84.1446 249.599 87.1294 252.848C90.1141 256.098 96.075 263.142 92.3203 264.499C88.5655 265.856 76.86 263.41 73.8839 266.392C70.9078 269.373 53.5096 288.059 51.3467 280.747Z" fill="#2CD0D1"/>
<path d="M57.3076 274.248C57.3076 274.248 39.1394 225.226 16.3686 221.432C-6.40221 217.638 0.371925 251.5 9.86264 249.875C19.3534 248.25 31.0069 243.367 29.6487 248.518C28.2904 253.669 15.0103 262.874 23.6878 265.856C32.3652 268.837 42.3923 265.035 45.3771 269.373C48.3619 273.712 52.6963 278.31 57.3076 274.248Z" fill="#2CD0D1"/>
<path d="M67.9922 243.86C64.5921 248.328 55.2918 269.243 55.2918 269.243C55.2918 269.243 48.8464 254.05 44.3735 247.075" stroke="#0B334C" stroke-width="0.93" stroke-linecap="round" stroke-linejoin="round"/>
<path d="M55.2919 264.239L52.783 201.32" stroke="#0B334C" stroke-width="0.93" stroke-linecap="round" stroke-linejoin="round"/>
<path d="M70.0512 309.458H40.7658L35.3413 269.917H75.4757L70.0512 309.458Z" fill="#FCB13A"/>
<path d="M38.2915 274.965H72.6467" stroke="#0B334C" stroke-width="0.93" stroke-linecap="round" stroke-linejoin="round"/>
</svg>
