<svg width="51" height="45" viewBox="0 0 51 45" fill="none" xmlns="http://www.w3.org/2000/svg">
<path d="M25.1581 22.5801C26.2916 22.5801 27.2105 21.6613 27.2105 20.5278C27.2105 19.3943 26.2916 18.4754 25.1581 18.4754C24.0246 18.4754 23.1057 19.3943 23.1057 20.5278C23.1057 21.6613 24.0246 22.5801 25.1581 22.5801Z" fill="white"/>
<path d="M25.1577 16.422C26.8582 16.422 28.2367 15.0434 28.2367 13.3429C28.2367 11.6424 26.8582 10.2639 25.1577 10.2639C23.4572 10.2639 22.0786 11.6424 22.0786 13.3429C22.0786 15.0434 23.4572 16.422 25.1577 16.422Z" fill="white"/>
<path d="M25.1577 8.21149C27.4253 8.21149 29.2635 6.37328 29.2635 4.10574C29.2635 1.8382 27.4253 0 25.1577 0C22.8902 0 21.052 1.8382 21.052 4.10574C21.052 6.37328 22.8902 8.21149 25.1577 8.21149Z" fill="white"/>
<path d="M31.9076 34.5161C33.0411 34.5161 33.96 33.5972 33.96 32.4637C33.96 31.3302 33.0411 30.4113 31.9076 30.4113C30.7741 30.4113 29.8552 31.3302 29.8552 32.4637C29.8552 33.5972 30.7741 34.5161 31.9076 34.5161Z" fill="white"/>
<path d="M38.1291 39.1351C39.8296 39.1351 41.2082 37.7566 41.2082 36.0561C41.2082 34.3556 39.8296 32.977 38.1291 32.977C36.4286 32.977 35.05 34.3556 35.05 36.0561C35.05 37.7566 36.4286 39.1351 38.1291 39.1351Z" fill="white"/>
<path d="M46.1284 44.7799C48.396 44.7799 50.2342 42.9417 50.2342 40.6741C50.2342 38.4066 48.396 36.5684 46.1284 36.5684C43.8609 36.5684 42.0227 38.4066 42.0227 40.6741C42.0227 42.9417 43.8609 44.7799 46.1284 44.7799Z" fill="white"/>
<path d="M18.328 34.5278C19.4615 34.5278 20.3804 33.6089 20.3804 32.4754C20.3804 31.3419 19.4615 30.423 18.328 30.423C17.1945 30.423 16.2756 31.3419 16.2756 32.4754C16.2756 33.6089 17.1945 34.5278 18.328 34.5278Z" fill="white"/>
<path d="M25.0775 38.6454C26.211 38.6454 27.1299 37.7265 27.1299 36.593C27.1299 35.4595 26.211 34.5406 25.0775 34.5406C23.944 34.5406 23.0251 35.4595 23.0251 36.593C23.0251 37.7265 23.944 38.6454 25.0775 38.6454Z" fill="white"/>
<path d="M18.328 26.7094C19.4615 26.7094 20.3804 25.7906 20.3804 24.6571C20.3804 23.5236 19.4615 22.6047 18.328 22.6047C17.1945 22.6047 16.2756 23.5236 16.2756 24.6571C16.2756 25.7906 17.1945 26.7094 18.328 26.7094Z" fill="white"/>
<path d="M31.9076 26.6976C33.0411 26.6976 33.96 25.7787 33.96 24.6452C33.96 23.5117 33.0411 22.5929 31.9076 22.5929C30.7741 22.5929 29.8552 23.5117 29.8552 24.6452C29.8552 25.7787 30.7741 26.6976 31.9076 26.6976Z" fill="white"/>
<path d="M12.1062 39.147C13.8067 39.147 15.1852 37.7684 15.1852 36.0679C15.1852 34.3674 13.8067 32.9888 12.1062 32.9888C10.4056 32.9888 9.0271 34.3674 9.0271 36.0679C9.0271 37.7684 10.4056 39.147 12.1062 39.147Z" fill="white"/>
<path d="M4.10599 44.7917C6.37353 44.7917 8.21173 42.9535 8.21173 40.6859C8.21173 38.4184 6.37353 36.5802 4.10599 36.5802C1.83845 36.5802 0.000244141 38.4184 0.000244141 40.6859C0.000244141 42.9535 1.83845 44.7917 4.10599 44.7917Z" fill="white"/>
</svg>
