<svg width="14" height="14" viewBox="0 0 14 14" fill="none" xmlns="http://www.w3.org/2000/svg">
<path d="M7.00002 0.350098C3.14022 0.350098 1.88128e-05 3.17623 1.88128e-05 6.6501C1.88128e-05 7.86436 0.384086 9.0406 1.11255 10.0577C0.974652 11.583 0.605052 12.7154 0.0683855 13.2518C-0.00254785 13.3227 -0.0202812 13.4312 0.0245188 13.5208C0.0641855 13.6009 0.145852 13.6501 0.233352 13.6501C0.244085 13.6501 0.254819 13.6494 0.265786 13.6478C0.360286 13.6345 2.55549 13.3185 4.14332 12.402C5.04492 12.7658 6.00532 12.9501 7.00002 12.9501C10.8598 12.9501 14 10.124 14 6.6501C14 3.17623 10.8598 0.350098 7.00002 0.350098ZM3.73335 7.58343C3.21862 7.58343 2.80002 7.16483 2.80002 6.6501C2.80002 6.13536 3.21862 5.71676 3.73335 5.71676C4.24809 5.71676 4.66669 6.13536 4.66669 6.6501C4.66669 7.16483 4.24809 7.58343 3.73335 7.58343ZM7.00002 7.58343C6.48529 7.58343 6.06669 7.16483 6.06669 6.6501C6.06669 6.13536 6.48529 5.71676 7.00002 5.71676C7.51475 5.71676 7.93335 6.13536 7.93335 6.6501C7.93335 7.16483 7.51475 7.58343 7.00002 7.58343ZM10.2667 7.58343C9.75195 7.58343 9.33335 7.16483 9.33335 6.6501C9.33335 6.13536 9.75195 5.71676 10.2667 5.71676C10.7814 5.71676 11.2 6.13536 11.2 6.6501C11.2 7.16483 10.7814 7.58343 10.2667 7.58343Z" fill="#6F7B88"/>
</svg>
