<svg width="391" height="562" viewBox="0 0 391 562" fill="none" xmlns="http://www.w3.org/2000/svg">
<path d="M384.938 289.5L254.831 514.853C251.794 520.113 246.182 523.353 240.108 523.353L-20.1072 523.353C-26.1807 523.353 -31.7929 520.113 -34.8297 514.853L-164.937 289.5C-167.974 284.24 -167.974 277.76 -164.937 272.5L-34.8297 47.1469C-31.7929 41.887 -26.1807 38.6468 -20.1072 38.6468L240.108 38.6469C246.182 38.6469 251.794 41.887 254.831 47.1469L384.938 272.5C387.975 277.76 387.975 284.24 384.938 289.5Z" stroke="#DCF3FE" stroke-width="2"/>
<path d="M332.534 379.05L339.912 389.14L334.863 400.575L322.435 401.919L315.057 391.828L320.107 380.394L332.534 379.05Z" fill="#DFB7F6"/>
<path d="M20.5005 25L31.3258 31.25V43.75L20.5005 50L9.67517 43.75V31.25L20.5005 25Z" fill="#8DD2FF"/>
</svg>
