<svg width="1213" height="932" viewBox="0 0 1213 932" fill="none" xmlns="http://www.w3.org/2000/svg">
<path d="M1194 0.577351C1194.62 0.220085 1195.38 0.220085 1196 0.57735L1209.59 8.42265C1210.21 8.77991 1210.59 9.44017 1210.59 10.1547V25.8453C1210.59 26.5598 1210.21 27.2201 1209.59 27.5774L1196 35.4226C1195.38 35.7799 1194.62 35.7799 1194 35.4226L1180.41 27.5774C1179.79 27.2201 1179.41 26.5598 1179.41 25.8453V10.1547C1179.41 9.44017 1179.79 8.77991 1180.41 8.42265L1194 0.577351Z" fill="#DBA5F5"/>
<path d="M-68.5 276.774C-62.312 273.201 -54.688 273.201 -48.5 276.774L217.721 430.477C223.909 434.049 227.721 440.652 227.721 447.797V755.203C227.721 762.348 223.909 768.951 217.721 772.523L-48.5 926.227C-54.688 929.799 -62.312 929.799 -68.5 926.227L-334.721 772.523C-340.909 768.951 -344.721 762.348 -344.721 755.203V447.797C-344.721 440.652 -340.909 434.049 -334.721 430.477L-68.5 276.774Z" fill="#ECF3F8"/>
<path d="M164 838.577C164.619 838.22 165.381 838.22 166 838.577L179.588 846.423C180.207 846.78 180.588 847.44 180.588 848.155V863.845C180.588 864.56 180.207 865.22 179.588 865.577L166 873.423C165.381 873.78 164.619 873.78 164 873.423L150.412 865.577C149.793 865.22 149.412 864.56 149.412 863.845V848.155C149.412 847.44 149.793 846.78 150.412 846.423L164 838.577Z" fill="#3A83F7"/>
<path d="M219.5 264.577C220.119 264.22 220.881 264.22 221.5 264.577L230.325 269.673C230.944 270.03 231.325 270.69 231.325 271.405V281.595C231.325 282.31 230.944 282.97 230.325 283.327L221.5 288.423C220.881 288.78 220.119 288.78 219.5 288.423L210.675 283.327C210.056 282.97 209.675 282.31 209.675 281.595V271.405C209.675 270.69 210.056 270.03 210.675 269.673L219.5 264.577Z" fill="#F19B38"/>
<circle cx="183" cy="517" r="2" fill="#B5E2FC"/>
<circle cx="193" cy="517" r="2" fill="#B5E2FC"/>
<circle cx="183" cy="527" r="2" fill="#B5E2FC"/>
<circle cx="193" cy="527" r="2" fill="#B5E2FC"/>
<circle cx="183" cy="537" r="2" fill="#B5E2FC"/>
<circle cx="193" cy="537" r="2" fill="#B5E2FC"/>
<circle cx="183" cy="547" r="2" fill="#B5E2FC"/>
<circle cx="193" cy="547" r="2" fill="#B5E2FC"/>
<circle cx="183" cy="557" r="2" fill="#B5E2FC"/>
<circle cx="193" cy="557" r="2" fill="#B5E2FC"/>
<circle cx="183" cy="567" r="2" fill="#B5E2FC"/>
<circle cx="193" cy="567" r="2" fill="#B5E2FC"/>
<circle cx="1136.26" cy="372.259" r="2.25926" fill="#B5E2FC"/>
<circle cx="1147.56" cy="372.259" r="2.25926" fill="#B5E2FC"/>
<circle cx="1136.26" cy="383.556" r="2.25926" fill="#B5E2FC"/>
<circle cx="1147.56" cy="383.556" r="2.25926" fill="#B5E2FC"/>
<circle cx="1136.26" cy="394.852" r="2.25926" fill="#B5E2FC"/>
<circle cx="1147.56" cy="394.852" r="2.25926" fill="#B5E2FC"/>
<circle cx="1136.26" cy="406.148" r="2.25926" fill="#B5E2FC"/>
<circle cx="1147.56" cy="406.148" r="2.25926" fill="#B5E2FC"/>
<circle cx="1136.26" cy="417.444" r="2.25926" fill="#B5E2FC"/>
<circle cx="1147.56" cy="417.444" r="2.25926" fill="#B5E2FC"/>
<circle cx="1136.26" cy="428.741" r="2.25926" fill="#B5E2FC"/>
<circle cx="1147.56" cy="428.741" r="2.25926" fill="#B5E2FC"/>
<circle cx="1083.74" cy="702.259" r="2.25926" transform="rotate(90 1083.74 702.259)" fill="#F3C9B1"/>
<circle cx="1083.74" cy="713.555" r="2.25926" transform="rotate(90 1083.74 713.555)" fill="#F3C9B1"/>
<circle cx="1072.44" cy="702.259" r="2.25926" transform="rotate(90 1072.44 702.259)" fill="#F3C9B1"/>
<circle cx="1072.44" cy="713.555" r="2.25926" transform="rotate(90 1072.44 713.555)" fill="#F3C9B1"/>
<circle cx="1061.15" cy="702.259" r="2.25926" transform="rotate(90 1061.15 702.259)" fill="#F3C9B1"/>
<circle cx="1061.15" cy="713.555" r="2.25926" transform="rotate(90 1061.15 713.555)" fill="#F3C9B1"/>
<circle cx="1049.85" cy="702.259" r="2.25926" transform="rotate(90 1049.85 702.259)" fill="#F3C9B1"/>
<circle cx="1049.85" cy="713.555" r="2.25926" transform="rotate(90 1049.85 713.555)" fill="#F3C9B1"/>
<circle cx="1038.56" cy="702.259" r="2.25926" transform="rotate(90 1038.56 702.259)" fill="#F3C9B1"/>
<circle cx="1038.56" cy="713.555" r="2.25926" transform="rotate(90 1038.56 713.555)" fill="#F3C9B1"/>
<circle cx="1027.26" cy="702.259" r="2.25926" transform="rotate(90 1027.26 702.259)" fill="#F3C9B1"/>
<circle cx="1027.26" cy="713.555" r="2.25926" transform="rotate(90 1027.26 713.555)" fill="#F3C9B1"/>
</svg>
