<svg width="1440" height="300" viewBox="0 0 1440 300" fill="none" xmlns="http://www.w3.org/2000/svg">
<g opacity="0.57">
<path opacity="0.57" d="M0.0512695 147.434C178.867 191.207 431.857 5.96074 538.175 60.4608C647.913 116.716 784.941 264.577 923.429 245C1061.92 225.424 1156.71 114.778 1439.91 299.854" stroke="#7EC8FE" stroke-width="0.25" stroke-miterlimit="10"/>
<path opacity="0.57" d="M6.56982 148.909C188.92 197.985 441.308 12.7138 549.791 62.3014C661.539 113.498 795.673 254.447 932.484 238.625C1069.29 222.803 1167.98 115.509 1437.7 291.772" stroke="#7EC8FE" stroke-width="0.25" stroke-miterlimit="10"/>
<path opacity="0.57" d="M13.1011 150.384C198.96 204.762 450.746 19.4669 561.47 64.1298C675.216 110.39 806.405 244.305 941.602 232.238C1076.8 220.17 1179.25 116.192 1435.48 283.715" stroke="#7EC8FE" stroke-width="0.25" stroke-miterlimit="10"/>
<path opacity="0.57" d="M19.6323 151.859C209.013 211.527 460.172 26.2199 573.021 65.9705C688.765 107.22 817.034 234.188 950.592 225.862C1084.15 217.537 1190.52 116.911 1433.26 275.56" stroke="#7EC8FE" stroke-width="0.25" stroke-miterlimit="10"/>
<path opacity="0.57" d="M26.1636 153.285C219.053 218.256 469.725 32.6074 584.637 67.7624C702.481 103.795 827.74 223.985 959.646 219.475C1091.55 214.965 1201.79 117.618 1431.02 267.454" stroke="#7EC8FE" stroke-width="0.25" stroke-miterlimit="10"/>
<path opacity="0.57" d="M32.6948 154.809C229.106 225.082 479.176 39.4214 596.239 69.6396C716.094 100.577 838.434 213.904 968.713 213.1C1098.99 212.295 1213.06 118.325 1428.83 259.335" stroke="#7EC8FE" stroke-width="0.25" stroke-miterlimit="10"/>
<path opacity="0.57" d="M39.2261 156.284C239.146 231.86 488.615 46.1379 607.829 71.4803C729.682 97.3711 849.101 203.763 977.728 206.712C1106.36 209.662 1224.3 119.032 1426.59 251.241" stroke="#7EC8FE" stroke-width="0.25" stroke-miterlimit="10"/>
<path opacity="0.57" d="M45.7573 157.759C249.199 238.625 498.053 52.8666 619.483 73.3086C743.321 94.1774 859.859 193.621 986.808 200.337C1113.76 207.054 1235.61 119.739 1424.4 243.135" stroke="#7EC8FE" stroke-width="0.25" stroke-miterlimit="10"/>
<path opacity="0.57" d="M52.2886 159.234C259.24 245.39 507.491 59.5953 631.137 75.1249C756.959 90.9715 870.616 183.467 995.901 193.925C1121.19 204.384 1246.91 120.434 1422.25 235.005" stroke="#7EC8FE" stroke-width="0.25" stroke-miterlimit="10"/>
<path opacity="0.57" d="M58.8198 160.709C269.293 252.131 516.917 66.3362 642.701 76.99C770.509 87.8144 881.22 173.288 1004.9 187.575C1128.59 201.861 1258.14 121.165 1419.98 226.935" stroke="#7EC8FE" stroke-width="0.25" stroke-miterlimit="10"/>
<path opacity="0.57" d="M65.3511 162.184C279.333 258.945 526.381 73.0893 654.316 78.8184C784.109 84.6451 891.913 163.22 1013.96 181.212C1136 199.204 1269.42 121.897 1417.77 218.853" stroke="#7EC8FE" stroke-width="0.25" stroke-miterlimit="10"/>
<path opacity="0.57" d="M71.8823 163.659C289.386 265.71 535.78 79.8423 665.932 80.6591C797.709 81.4758 902.619 153.078 1023.01 174.812C1143.4 196.546 1280.69 122.579 1415.55 210.723" stroke="#7EC8FE" stroke-width="0.25" stroke-miterlimit="10"/>
<path opacity="0.57" d="M78.4136 165.133C299.426 272.488 545.206 86.6076 677.534 82.4875C811.31 78.3309 913.312 142.948 1032.07 168.425C1150.82 193.901 1291.96 123.323 1413.34 202.617" stroke="#7EC8FE" stroke-width="0.25" stroke-miterlimit="10"/>
<path opacity="0.57" d="M84.9448 166.596C309.479 279.265 554.644 93.3851 689.15 84.3281C824.897 75.1859 924.006 132.806 1041.12 162.05C1158.23 191.293 1303.23 124.03 1411.12 194.511" stroke="#7EC8FE" stroke-width="0.25" stroke-miterlimit="10"/>
<path opacity="0.57" d="M91.4761 168.071C319.519 286.031 564.031 100.175 700.765 86.1688C838.523 72.0532 934.712 122.677 1050.17 155.65C1165.64 188.623 1314.48 124.713 1408.91 186.404" stroke="#7EC8FE" stroke-width="0.25" stroke-miterlimit="10"/>
<path opacity="0.57" d="M98.0073 169.546C329.559 292.808 573.521 106.964 712.38 87.9972C852.136 68.9204 945.456 112.535 1059.23 149.287C1173 186.039 1325.78 125.419 1406.69 178.298" stroke="#7EC8FE" stroke-width="0.25" stroke-miterlimit="10"/>
<path opacity="0.57" d="M104.539 171.021C339.612 299.561 582.959 113.754 723.996 89.8988C865.75 65.8608 956.098 102.466 1068.28 142.96C1180.47 183.455 1337.05 126.187 1404.48 170.253" stroke="#7EC8FE" stroke-width="0.25" stroke-miterlimit="10"/>
<path opacity="0.57" d="M111.057 172.496C349.652 306.351 592.461 120.775 735.637 91.6663C879.439 62.8987 966.83 92.2636 1077.36 136.524C1187.89 180.785 1348.34 126.834 1402.29 162.123" stroke="#7EC8FE" stroke-width="0.25" stroke-miterlimit="10"/>
<path opacity="0.57" d="M117.588 174.008C359.705 313.165 601.9 127.565 747.226 93.5557C893.027 59.7903 977.498 82.1827 1086.39 130.186C1195.28 178.189 1359.59 127.589 1400.04 154.041" stroke="#7EC8FE" stroke-width="0.25" stroke-miterlimit="10"/>
<path opacity="0.57" d="M124.119 175.446C369.746 319.894 611.351 134.281 758.842 95.3476C906.64 56.5723 988.191 71.9922 1095.5 123.762C1202.8 175.531 1370.83 128.26 1397.83 145.886" stroke="#7EC8FE" stroke-width="0.25" stroke-miterlimit="10"/>
<path opacity="0.57" d="M130.651 176.921C379.799 326.671 620.802 141.095 770.444 97.2127C920.087 53.3298 998.885 61.8626 1104.46 117.374C1210.04 172.886 1382.1 128.967 1395.59 137.78" stroke="#7EC8FE" stroke-width="0.25" stroke-miterlimit="10"/>
<path opacity="0.57" d="M137.182 178.396C389.839 333.448 630.227 147.788 782.06 99.0167C933.892 50.2458 1009.59 51.7208 1113.54 110.999C1217.49 170.278 1393.4 129.674 1393.4 129.674" stroke="#7EC8FE" stroke-width="0.25" stroke-miterlimit="10"/>
<path opacity="0.57" d="M136.529 174.751C188.702 204.725 240.017 223.278 290.064 231.713C355.121 242.526 418.551 236.346 478.882 221.486C512.512 213.066 545.417 202.214 577.311 189.025C612.836 174.398 646.133 157.844 677.201 142.485C713.853 124.383 747.636 107.903 778.244 97.0907C810.9 85.6446 840.892 76.0879 868.208 70.9317C919.075 61.314 959.646 62.9109 999.486 71.5411C1034 79.0987 1068.13 92.3977 1105.31 111.145C1107.15 112.084 1109.01 113.01 1110.88 113.973C1149.15 133.55 1195.76 139.182 1240.54 139.962C1318.79 141.303 1390.81 125.2 1393.99 125.59" stroke="#7EC8FE" stroke-width="0.25" stroke-miterlimit="10"/>
<path opacity="0.57" d="M135.888 171.094C188.331 199.216 239.62 218.963 289.565 228.495C354.007 240.795 417.36 236.297 477.947 222.766C511.827 215.202 544.923 204.754 576.838 191.548C612.286 176.848 645.019 159.356 675.524 143.155C711.215 124.213 744.089 106.867 774.491 95.1769C806.789 82.8775 837.345 72.0166 865.096 67.4576C916.066 59.1199 955.484 64.3858 995.171 74.6252C1029.75 83.5358 1064.73 97.1639 1102.56 114.363C1104.46 115.217 1106.41 116.07 1108.26 116.948C1147.44 134.793 1193.95 137.67 1239.07 137.183C1316.35 136.341 1388.29 120.739 1394.65 121.494" stroke="#7EC8FE" stroke-width="0.25" stroke-miterlimit="10"/>
<path opacity="0.57" d="M135.235 167.45C187.959 193.718 239.133 214.587 288.976 225.265C353.008 238.978 416.169 236.236 477.025 224.131C511.128 217.393 544.409 207.319 576.338 194.072C611.697 179.249 643.892 160.867 673.795 143.838C708.526 124.054 740.516 105.745 770.688 93.251C802.588 80.0374 833.746 67.8965 861.933 63.9958C912.992 56.9136 951.27 65.9217 990.791 77.7214C1025.37 88.0338 1061.3 101.918 1099.77 117.582C1101.71 118.374 1103.62 119.142 1105.6 119.922C1145.68 136.037 1192.09 136.207 1237.51 134.415C1313.79 131.429 1385.65 116.277 1395.2 117.423" stroke="#7EC8FE" stroke-width="0.25" stroke-miterlimit="10"/>
<path opacity="0.57" d="M134.582 163.793C187.588 188.172 238.711 210.199 288.438 222.035C351.881 237.138 414.978 236.175 476.09 225.448C510.296 219.353 544.169 210.052 575.852 196.595C611.133 181.663 642.765 162.464 672.079 144.509C705.862 123.908 736.969 104.685 766.846 91.3372C798.375 77.2581 830.096 63.7886 858.732 60.5095C909.88 54.6585 947.006 67.4455 986.386 80.8053C1020.96 92.5196 1057.85 106.647 1096.94 120.787L1102.91 122.884C1143.89 137.268 1190.17 134.72 1235.99 131.636C1311.3 126.553 1383.09 111.804 1395.82 113.352" stroke="#7EC8FE" stroke-width="0.25" stroke-miterlimit="10"/>
<path opacity="0.57" d="M133.929 160.148C187.217 182.699 238.276 205.798 287.887 218.805C350.805 235.297 413.787 236.175 475.155 226.777C509.451 221.45 543.605 212.759 575.365 199.118C610.557 184.064 641.638 163.939 670.375 145.191C703.185 123.774 733.434 103.637 763.094 89.4113C794.264 74.4789 826.562 59.6684 855.62 56.9867C906.845 52.3546 942.857 68.9448 982.083 83.804C1016.66 96.9323 1054.49 111.304 1094.22 123.908C1096.24 124.554 1098.27 125.127 1100.31 125.773C1142.19 138.426 1188.35 133.197 1234.55 128.772C1308.82 121.665 1380.54 107.245 1396.48 109.146" stroke="#7EC8FE" stroke-width="0.25" stroke-miterlimit="10"/>
<path opacity="0.57" d="M133.289 156.491C186.858 177.213 237.84 201.398 287.35 215.574C349.729 233.444 412.596 236.077 474.233 228.093C508.605 223.534 543.042 215.465 574.878 201.642C609.993 186.465 640.524 165.487 668.659 145.862C700.509 123.652 729.887 102.576 759.303 87.4853C790.038 71.6996 822.951 55.5362 852.469 53.5614C903.772 50.1361 938.643 70.5416 977.716 86.9855C1012.29 101.516 1051.1 116.107 1091.44 127.211C1093.51 127.784 1095.59 128.296 1097.66 128.833C1140.45 139.803 1186.47 131.868 1233.04 126.09C1306.29 116.984 1378 102.856 1397.1 105.148" stroke="#7EC8FE" stroke-width="0.25" stroke-miterlimit="10"/>
<path opacity="0.57" d="M132.636 152.846C186.487 171.679 237.417 196.985 286.799 212.356C348.654 231.592 411.405 236.016 473.298 229.422C507.76 225.619 542.453 218.171 574.392 204.165C609.417 188.867 639.41 167.035 666.943 146.544C697.845 123.542 726.339 101.528 755.512 85.5959C785.94 68.9448 819.352 51.4648 849.319 50.1239C900.698 47.8688 934.43 72.0654 973.361 90.0939C1007.94 106.05 1047.72 120.848 1088.62 130.442C1090.74 130.941 1092.87 131.38 1095.02 131.831C1138.69 141.01 1184.58 130.515 1231.54 123.299C1303.77 112.279 1375.44 98.4316 1397.73 101.065" stroke="#7EC8FE" stroke-width="0.25" stroke-miterlimit="10"/>
<path opacity="0.57" d="M131.983 149.189C186.115 166.17 236.995 192.572 286.261 209.126C347.604 229.714 410.227 236.09 472.376 230.738C506.953 227.776 541.915 220.865 573.905 206.688C608.854 191.28 638.308 168.595 665.202 147.19C695.169 123.408 722.83 100.455 751.696 83.6212C781.753 66.129 815.728 47.235 846.143 46.6011C897.586 45.5163 930.191 73.6378 968.982 93.1291C1003.56 110.512 1044.31 125.505 1085.85 133.611C1088.02 134.038 1090.19 134.391 1092.35 134.757C1136.92 142.205 1182.67 129.101 1230 120.519C1301.2 107.598 1372.86 93.8971 1398.32 96.9445" stroke="#7EC8FE" stroke-width="0.25" stroke-miterlimit="10"/>
<path opacity="0.57" d="M131.33 145.545C185.744 160.672 236.56 188.209 285.71 205.896C344.89 227.304 408.245 236.233 471.403 232.067C505.98 229.861 541.3 223.534 573.38 209.211C608.239 193.682 637.156 170.204 663.473 147.897C692.492 123.347 719.219 99.4311 747.893 81.7317C777.578 63.3863 812.117 44.0413 842.98 43.1514C894.461 41.6643 925.965 75.2346 964.64 96.2496C999.218 115.058 1040.95 130.222 1083.1 136.841C1085.31 137.195 1087.53 137.475 1089.73 137.755C1135.2 143.472 1180.81 127.796 1228.53 117.764C1298.69 103.003 1370.32 89.46 1399.01 92.8853" stroke="#7EC8FE" stroke-width="0.25" stroke-miterlimit="10"/>
<path opacity="0.57" d="M130.676 141.888C185.385 155.162 236.188 183.759 285.172 202.666C343.901 225.549 407.147 236.029 470.545 233.383C505.263 231.957 540.813 226.277 572.996 211.735C607.778 196.083 636.157 171.74 661.859 148.568C689.956 123.262 715.787 98.395 744.204 79.8058C773.531 60.6192 808.607 38.946 839.932 39.6774C891.49 40.8963 921.893 76.8071 960.312 99.3336C994.889 119.581 1037.61 134.903 1080.35 140.059C1082.61 140.328 1084.87 140.523 1087.11 140.73C1133.45 144.752 1178.93 126.468 1227.02 114.997C1296.17 98.4438 1367.75 84.9864 1399.57 88.7896" stroke="#7EC8FE" stroke-width="0.25" stroke-miterlimit="10"/>
<path opacity="0.57" d="M130.036 138.243C185.014 149.653 235.702 179.286 284.622 199.435C344.376 224.058 406.641 235.931 469.584 234.712C504.379 234.042 540.212 228.983 572.445 214.258C607.138 198.484 635.004 173.325 660.092 149.25C687.254 123.177 712.188 97.3467 740.337 77.892C769.305 57.8522 804.932 34.7771 836.718 36.2033C888.34 38.5316 917.564 78.3796 955.919 102.43C990.497 124.103 1034.2 139.572 1077.58 143.277C1079.89 143.472 1082.19 143.582 1084.47 143.692C1131.7 145.971 1177.06 125.249 1225.52 112.218C1293.66 93.9336 1365.19 80.525 1400.19 84.706" stroke="#7EC8FE" stroke-width="0.25" stroke-miterlimit="10"/>
<path opacity="0.57" d="M129.383 134.586C184.642 144.143 235.279 174.812 284.084 196.205C343.313 222.157 405.45 235.87 468.649 236.029C503.534 236.126 539.648 231.689 571.946 216.781C606.523 200.935 633.916 174.922 658.376 149.921C684.616 123.103 708.654 96.2862 736.495 75.966C765.104 55.0973 801.282 30.5961 833.516 32.7293C885.202 36.1668 913.287 79.952 951.514 105.514C986.091 128.674 1030.79 144.24 1074.72 146.483C1077.07 146.605 1079.41 146.642 1081.74 146.666C1129.96 147.19 1175.19 124.03 1224.01 109.402C1291.18 89.399 1362.62 76.0148 1400.74 80.5859" stroke="#7EC8FE" stroke-width="0.25" stroke-miterlimit="10"/>
<path opacity="0.57" d="M128.73 130.941C184.271 138.657 234.907 170.351 283.572 192.987C342.263 220.243 404.246 235.809 467.727 237.394C502.676 238.247 539.084 234.432 571.459 219.341C606.036 203.336 632.84 176.555 656.66 150.64C681.991 123.079 705.119 95.311 732.755 74.0766C761.006 52.379 797.722 26.4394 830.417 29.2918C882.167 33.8263 909.112 81.5732 947.211 108.634C981.788 133.197 1027.46 148.921 1072 149.738C1074.39 149.738 1076.77 149.738 1079.14 149.677C1128.2 148.458 1173.35 122.86 1222.51 106.708C1288.69 85.0229 1360.05 71.6143 1401.41 76.4902" stroke="#7EC8FE" stroke-width="0.25" stroke-miterlimit="10"/>
<path opacity="0.57" d="M128.077 127.285C183.912 133.136 234.459 165.938 283.034 189.757C341.2 218.329 403.068 235.626 466.792 238.674C501.844 240.234 538.508 237.101 570.972 221.84C605.434 205.701 631.764 178.115 654.957 151.286C679.391 122.982 701.61 94.2384 728.977 72.1263C756.87 49.5754 794.136 22.1486 827.279 25.8055C879.107 31.4128 904.899 83.097 942.857 111.718C977.434 137.719 1024.09 153.553 1069.23 152.932C1071.66 152.932 1074.1 152.773 1076.5 152.639C1126.45 149.689 1171.51 121.616 1221.01 103.88C1286.25 80.5615 1357.5 67.1041 1402.05 72.431" stroke="#7EC8FE" stroke-width="0.25" stroke-miterlimit="10"/>
<path opacity="0.57" d="M127.436 123.64C183.541 127.626 234.049 161.428 282.393 186.526C340.112 216.403 401.826 235.578 465.806 240.002C500.947 242.318 537.906 239.795 570.434 224.363C604.807 208.102 630.624 179.724 653.176 151.956C676.727 122.921 697.999 93.2144 725.123 70.2003C752.656 46.8205 790.435 17.9919 824.065 22.3193C875.969 28.987 900.596 84.706 938.438 114.778C973.016 142.229 1020.64 158.173 1066.39 156.125C1068.87 156.003 1071.34 155.808 1073.8 155.589C1124.67 150.908 1169.64 120.446 1219.45 101.125C1283.74 76.1854 1354.88 62.6427 1402.58 68.3596" stroke="#7EC8FE" stroke-width="0.25" stroke-miterlimit="10"/>
<path opacity="0.57" d="M126.783 119.983C183.131 122.116 233.652 157.003 281.907 183.296C339.126 214.477 400.686 235.517 464.936 241.319C500.153 244.403 537.394 242.538 569.948 226.886C604.294 210.577 629.664 181.321 651.512 152.639C674.179 122.872 694.541 92.1783 721.383 68.2865C748.571 44.0656 786.939 13.7743 820.953 18.8452C872.947 26.5735 896.408 86.3029 934.135 117.874C968.713 146.764 1017.38 162.805 1063.66 159.38C1066.22 159.197 1068.7 158.917 1071.2 158.612C1122.97 152.2 1167.89 119.361 1218 98.395C1281.38 71.8825 1352.35 58.1691 1403.27 64.2639" stroke="#7EC8FE" stroke-width="0.25" stroke-miterlimit="10"/>
<path opacity="0.57" d="M126.13 116.326C182.798 116.606 233.243 152.529 281.356 180.066C338.088 212.539 399.495 235.468 464.001 242.648C499.308 246.487 536.831 245.207 569.512 229.41C603.731 212.917 628.627 182.943 649.834 153.285C671.605 122.811 691.045 91.1178 717.605 66.3362C744.499 41.2986 783.366 9.53232 817.828 15.3468C869.899 24.1234 892.195 87.8631 929.794 120.934C964.269 151.31 1013.92 167.425 1060.92 162.549C1063.48 162.281 1066.04 161.928 1068.6 161.538C1121.28 153.395 1166.17 118.203 1216.54 95.5792C1279.04 67.543 1349.84 53.7077 1403.94 60.2292" stroke="#7EC8FE" stroke-width="0.25" stroke-miterlimit="10"/>
<path opacity="0.57" d="M125.477 112.681C182.427 111.097 232.858 148.031 280.818 176.848C337.064 210.601 398.304 235.358 463.066 243.964C498.463 248.572 536.267 247.913 569.026 231.933C603.155 215.318 627.589 184.564 648.092 153.992C669.018 122.774 687.549 90.167 713.789 64.4346C740.337 38.6168 779.755 5.32688 814.652 11.8971C866.813 21.722 887.93 89.4844 925.414 124.042C959.889 155.845 1010.53 172.045 1058.1 165.755C1060.73 165.414 1063.33 164.987 1065.91 164.536C1119.47 154.65 1164.37 117.155 1214.99 92.8243C1276.63 63.2034 1347.23 49.2584 1404.53 56.1212" stroke="#7EC8FE" stroke-width="0.25" stroke-miterlimit="10"/>
<path opacity="0.57" d="M124.773 109.024C182.017 105.599 232.423 143.582 280.216 173.63C335.988 208.675 397.062 235.37 462.067 245.305C497.541 250.681 535.627 250.632 568.462 234.468C602.502 217.732 626.488 186.185 646.3 154.675C666.367 122.738 683.937 89.143 709.922 62.533C736.111 35.862 776.092 1.09705 811.425 8.43523C863.688 19.284 883.55 91.1299 920.983 127.15C955.381 160.44 1007.06 176.665 1055.25 168.985C1057.92 168.559 1060.56 168.047 1063.19 167.498C1117.65 155.881 1162.56 116.082 1213.4 90.0451C1274.22 58.8883 1344.59 44.7848 1405.04 52.0133" stroke="#7EC8FE" stroke-width="0.25" stroke-miterlimit="10"/>
<path opacity="0.57" d="M124.184 105.38C181.697 100.089 232.129 139.035 279.73 170.387C335.066 206.652 395.922 235.297 461.209 246.609C496.772 252.704 535.14 253.326 568.053 236.979C602.015 220.133 625.553 187.794 644.66 155.309C663.87 122.64 680.518 88.046 706.208 60.5583C731.897 33.0706 772.596 -3.19368 808.351 4.91245C860.717 16.7852 879.401 92.6781 916.693 130.186C951.091 164.914 1003.71 181.163 1052.54 172.143C1055.26 171.631 1057.95 171.054 1060.61 170.412C1115.99 157.113 1160.94 115.034 1212.03 87.2537C1272.04 54.5975 1342.15 40.2991 1405.78 47.9176" stroke="#7EC8FE" stroke-width="0.25" stroke-miterlimit="10"/>
<path opacity="0.57" d="M123.492 101.723C181.287 94.5797 231.68 134.635 279.141 167.157C334.016 204.762 394.731 235.236 460.3 247.938C495.94 254.837 534.577 256.032 567.579 239.503C601.464 222.535 624.567 189.403 642.957 156.016C661.347 122.628 676.958 87.0343 702.43 58.6811C727.902 30.3279 769.023 -7.41132 805.214 1.47495C857.681 14.3229 875.226 94.2505 912.365 133.318C946.75 169.461 1000.34 185.868 1049.79 175.397C1109.98 162.647 1156.83 115.424 1210.5 84.4744C1269.74 50.3433 1339.56 35.8254 1406.43 43.8341" stroke="#7EC8FE" stroke-width="0.25" stroke-miterlimit="10"/>
</g>
</svg>
