<svg width="172" height="174" viewBox="0 0 172 174" fill="none" xmlns="http://www.w3.org/2000/svg">
<g filter="url(#filter0_d_40_591)">
<path d="M58.4177 13.8126C62.447 9.62599 68.4294 7.95295 74.046 9.44198L131.581 24.6953C137.061 26.1481 141.363 30.3922 142.89 35.8518L159.292 94.5014C160.819 99.9611 159.342 105.821 155.411 109.906L114.135 152.792C110.106 156.979 104.124 158.652 98.5071 157.163L40.9719 141.91C35.492 140.457 31.1901 136.213 29.6632 130.753L13.2613 72.1037C11.7345 66.644 13.2107 60.784 17.1419 56.6994L58.4177 13.8126Z" fill="url(#paint0_linear_40_591)" fill-opacity="0.63" shape-rendering="crispEdges"/>
</g>
<defs>
<filter id="filter0_d_40_591" x="0.669678" y="0.907288" width="171.214" height="172.791" filterUnits="userSpaceOnUse" color-interpolation-filters="sRGB">
<feFlood flood-opacity="0" result="BackgroundImageFix"/>
<feColorMatrix in="SourceAlpha" type="matrix" values="0 0 0 0 0 0 0 0 0 0 0 0 0 0 0 0 0 0 127 0" result="hardAlpha"/>
<feOffset dy="4"/>
<feGaussianBlur stdDeviation="6"/>
<feComposite in2="hardAlpha" operator="out"/>
<feColorMatrix type="matrix" values="0 0 0 0 0.784314 0 0 0 0 0.937255 0 0 0 0 0.968627 0 0 0 0.18 0"/>
<feBlend mode="normal" in2="BackgroundImageFix" result="effect1_dropShadow_40_591"/>
<feBlend mode="normal" in="SourceGraphic" in2="effect1_dropShadow_40_591" result="shape"/>
</filter>
<linearGradient id="paint0_linear_40_591" x1="64.946" y1="7.02945" x2="107.607" y2="159.576" gradientUnits="userSpaceOnUse">
<stop stop-color="#56BDE2"/>
<stop offset="1" stop-color="#65DBEA"/>
</linearGradient>
</defs>
</svg>
