<svg width="73" height="143" viewBox="0 0 73 143" fill="none" xmlns="http://www.w3.org/2000/svg">
<path d="M13 143V20.625V0L2 9.96875V129.938L13 143Z" fill="#347069"/>
<g filter="url(#filter0_d_171_214)">
<path d="M2.01294 10L51.8891 55.9483C60.5399 63.9179 60.4788 77.5957 51.7572 85.4877L2.01294 130.5V10Z" fill="#56B9B6"/>
</g>
<path d="M35.9419 77.0281C36.2293 77.0281 36.4623 76.7987 36.4623 76.5158C36.4623 76.2329 36.2293 76.0035 35.9419 76.0035C35.6544 76.0035 35.4214 76.2329 35.4214 76.5158C35.4214 76.7987 35.6544 77.0281 35.9419 77.0281Z" fill="white"/>
<path d="M35.7264 60.6351L33.86 58.7981L31.0828 61.5316C31.9004 61.9158 32.653 62.4122 33.3213 63.0024L35.7264 60.6351Z" fill="white"/>
<path d="M28.0921 63.2006C28.1067 63.2006 28.1202 63.1965 28.1348 63.1965C29.5697 63.1965 30.7371 64.3455 30.7371 65.7579C30.7371 67.1702 29.5697 68.3193 28.1348 68.3193H25.5324V69.8561C25.5324 70.1389 25.7661 70.3684 26.0529 70.3684H30.2167C31.0775 70.3684 31.7781 71.0579 31.7781 71.9052C31.7781 72.7526 31.0775 73.4421 30.2167 73.4421H25.0119C24.7251 73.4421 24.4915 73.6716 24.4915 73.9544C24.4915 74.2371 24.7251 74.4666 25.0119 74.4666H26.0529C26.9137 74.4666 27.6143 75.1562 27.6143 76.0035V78.5649H29.6962C29.8019 78.5649 29.9049 78.5757 30.0043 78.5956C30.5987 77.1577 31.6199 76.171 32.614 75.2166C34.0578 73.8309 35.4214 72.5215 35.4214 69.8561C35.4214 65.6728 32.1612 62.1678 28.0119 61.7129C28.089 62.0249 28.1348 62.3491 28.1348 62.6842C28.1348 62.8584 28.1145 63.0295 28.0921 63.2006Z" fill="white"/>
<path d="M33.431 75.8632C33.3742 76.0758 33.3394 76.2941 33.3394 76.5159C33.3394 77.9282 34.5068 79.0773 35.9417 79.0773C37.3767 79.0773 38.5441 77.9282 38.5441 76.5159C38.5441 75.1035 37.3767 73.9545 35.9417 73.9545C35.6362 73.9545 35.3416 74.0144 35.0585 74.1158C34.5682 74.7603 33.9988 75.3176 33.431 75.8632ZM37.5031 76.5159C37.5031 77.3632 36.8026 78.0527 35.9417 78.0527C35.0809 78.0527 34.3803 77.3632 34.3803 76.5159C34.3803 75.6686 35.0809 74.979 35.9417 74.979C36.8026 74.979 37.5031 75.6686 37.5031 76.5159Z" fill="white"/>
<path d="M21.5736 75.2166C22.5677 76.171 23.5888 77.1576 24.1832 78.5956C24.2826 78.5756 24.3857 78.5648 24.4913 78.5648H26.5732V76.0034C26.5732 75.7207 26.3395 75.4912 26.0528 75.4912H25.0118C24.1509 75.4912 23.4504 74.8016 23.4504 73.9543C23.4504 73.107 24.1509 72.4175 25.0118 72.4175H30.2165C30.5033 72.4175 30.737 72.188 30.737 71.9052C30.737 71.6224 30.5033 71.3929 30.2165 71.3929H26.0528C25.1919 71.3929 24.4913 70.7034 24.4913 69.8561V68.3192H18.9264C18.8291 68.8248 18.7661 69.3381 18.7661 69.8561C18.7661 72.5215 20.1298 73.8308 21.5736 75.2166Z" fill="white"/>
<path d="M35.5489 65.9326L38.3287 63.1965L36.4623 61.3595L34.0562 63.7278C34.6552 64.3866 35.159 65.1273 35.5489 65.9326Z" fill="white"/>
<path d="M41.262 60.3093C41.859 59.7222 42.1874 58.9405 42.1874 58.1101C42.1874 56.3955 40.7697 55 39.0276 55C38.1834 55 37.3902 55.3238 36.7932 55.9108L36.1572 56.5368L40.626 60.9353L41.262 60.3093Z" fill="white"/>
<path d="M34.593 58.0759L35.4184 57.2636L39.8863 61.6612L39.061 62.4736L34.593 58.0759Z" fill="white"/>
<path d="M27.0937 84.7123C27.8624 84.7123 28.5479 84.3097 28.9278 83.6877H25.2595C25.6395 84.3097 26.3249 84.7123 27.0937 84.7123Z" fill="white"/>
<path d="M29.6962 81.6385H24.4914C24.2046 81.6385 23.9709 81.8681 23.9709 82.1508C23.9709 82.4336 24.2046 82.6631 24.4914 82.6631H29.6962C29.9829 82.6631 30.2166 82.4336 30.2166 82.1508C30.2166 81.8681 29.9829 81.6385 29.6962 81.6385Z" fill="white"/>
<path d="M17.4202 80.1017L19.2866 81.9387L22.919 78.3635C22.4807 77.5931 21.8869 76.9609 21.2462 76.3364L17.4202 80.1017Z" fill="white"/>
<path d="M40.276 74.7638C39.9486 73.9908 40.1204 73.1291 40.7064 72.5518L40.7283 72.5302L39.9913 71.8048L39.9694 71.8264C39.3828 72.4042 38.5058 72.5733 37.7381 72.2567C36.9569 71.9391 36.4625 71.2116 36.4625 70.3966V70.3684H36.4458C36.3849 71.3832 36.1429 72.2172 35.7905 72.937C35.8415 72.9349 35.891 72.9298 35.942 72.9298C37.951 72.9298 39.5853 74.5389 39.5853 76.5158C39.5853 78.4927 37.951 80.1018 35.942 80.1018C34.0865 80.1018 32.5537 78.7283 32.3299 76.961C31.7392 77.5962 31.2317 78.2837 30.908 79.1443C31.1234 79.4081 31.2577 79.738 31.2577 80.1018C31.2577 80.2524 31.2286 80.3948 31.1875 80.5326L31.8927 81.2267L31.9146 81.2052C32.5006 80.6279 33.376 80.4583 34.1458 80.7744C34.9271 81.093 35.4215 81.8199 35.4215 82.635V82.6632H36.4625V82.635C36.4625 81.8199 36.9569 81.0925 37.722 80.7816C38.5064 80.4578 39.3823 80.6274 39.9699 81.2052L39.9918 81.2267L40.7288 80.5013L40.7069 80.4798C40.1209 79.9025 39.9491 79.0403 40.2697 78.2842C40.5919 77.5147 41.331 77.0281 42.159 77.0281H42.1877V76.0035H42.159C41.331 76.0035 40.5919 75.5168 40.276 74.7638Z" fill="white"/>
<path d="M29.6962 79.5895H24.4914C24.2046 79.5895 23.9709 79.819 23.9709 80.1018C23.9709 80.3845 24.2046 80.614 24.4914 80.614H29.6962C29.9829 80.614 30.2166 80.3845 30.2166 80.1018C30.2166 79.819 29.9829 79.5895 29.6962 79.5895Z" fill="white"/>
<path d="M12.9539 81.8533L14.9046 83.7733L18.3522 82.4681L14.28 78.46L12.9539 81.8533Z" fill="white"/>
<path d="M14.0819 67.2947H28.1347C28.9956 67.2947 29.6961 66.6052 29.6961 65.7579C29.6961 64.9105 28.9956 64.221 28.1347 64.221C27.2738 64.221 26.5733 64.9105 26.5733 65.7579H25.5323C25.5323 64.7558 26.1257 63.8952 26.9792 63.4746C27.049 63.2175 27.0938 62.9536 27.0938 62.6842C27.0938 60.989 25.6932 59.6105 23.9709 59.6105C22.397 59.6105 21.0953 60.7631 20.8819 62.2549C21.7599 62.4956 22.4095 63.281 22.4095 64.221H21.3685C21.3685 63.656 20.9017 63.1964 20.3276 63.1964C19.7535 63.1964 19.2866 63.656 19.2866 64.221H18.2457C18.2457 63.2595 18.9244 62.4567 19.8331 62.2364C19.9794 60.9194 20.7632 59.7903 21.8729 59.1499C21.1421 57.8636 19.7681 57.0491 18.2457 57.0491C15.9499 57.0491 14.0819 58.8877 14.0819 61.1473C14.0819 61.4977 14.1267 61.8435 14.2151 62.1785C15.8749 62.2477 17.2047 63.595 17.2047 65.2456H16.1638C16.1638 64.1155 15.2301 63.1964 14.0819 63.1964C12.9337 63.1964 12 64.1155 12 65.2456C12 66.3757 12.9337 67.2947 14.0819 67.2947Z" fill="white"/>
<path d="M16.6843 79.3773L20.503 75.6187C19.8836 75.0173 19.2773 74.3872 18.7891 73.6316L14.8179 77.5403L16.6843 79.3773Z" fill="white"/>
<path d="M12.0234 84.2343C12.0083 84.2748 12 84.3173 12 84.3603C12 84.598 12.2608 84.7748 12.4861 84.6887L13.8414 84.1754L12.5449 82.8993L12.0234 84.2343Z" fill="white"/>
<defs>
<filter id="filter0_d_171_214" x="0.0129395" y="4" width="72.325" height="136.5" filterUnits="userSpaceOnUse" color-interpolation-filters="sRGB">
<feFlood flood-opacity="0" result="BackgroundImageFix"/>
<feColorMatrix in="SourceAlpha" type="matrix" values="0 0 0 0 0 0 0 0 0 0 0 0 0 0 0 0 0 0 127 0" result="hardAlpha"/>
<feOffset dx="6" dy="2"/>
<feGaussianBlur stdDeviation="4"/>
<feComposite in2="hardAlpha" operator="out"/>
<feColorMatrix type="matrix" values="0 0 0 0 0.175 0 0 0 0 0.175 0 0 0 0 0.175 0 0 0 0.16 0"/>
<feBlend mode="normal" in2="BackgroundImageFix" result="effect1_dropShadow_171_214"/>
<feBlend mode="normal" in="SourceGraphic" in2="effect1_dropShadow_171_214" result="shape"/>
</filter>
</defs>
</svg>
