<svg width="73" height="143" viewBox="0 0 73 143" fill="none" xmlns="http://www.w3.org/2000/svg">
<path d="M13 143V20.625V0L2 9.96875V129.938L13 143Z" fill="#1E407B"/>
<g filter="url(#filter0_d_348_1182)">
<path d="M2.01318 10L51.8893 55.9483C60.5401 63.9179 60.479 77.5957 51.7574 85.4877L2.01318 130.5V10Z" fill="#316ACC"/>
</g>
<g clip-path="url(#clip0_348_1182)">
<path d="M35.4673 76.3864C34.2793 78.0181 32.3547 79.0809 30.1864 79.0809H27.1439C26.0929 79.0809 25.1978 78.4136 24.8589 77.4797C24.4406 77.3549 24.0303 77.1929 23.63 76.994C22.7822 76.5728 22.0124 76.0021 21.3348 75.2952C16.9392 76.2608 13.6494 80.1775 13.6494 84.8631V85.4756C13.6494 86.3175 14.332 87 15.1739 87H38.8259C39.6678 87 40.3504 86.3175 40.3504 85.4756V84.8631C40.3503 81.2434 38.3869 78.0825 35.4673 76.3864Z" fill="white"/>
<path d="M19.7146 72.153C20.3698 72.153 20.9401 71.7898 21.2355 71.254C21.2433 71.2752 21.2512 71.2963 21.2591 71.3173C21.2615 71.3237 21.2638 71.33 21.2662 71.3363C21.9593 73.1607 23.3079 74.6901 25.0863 75.3584C25.5164 74.675 26.2769 74.2205 27.144 74.2205H30.1865C30.49 74.2205 30.7725 74.1349 31.0201 73.9964C31.436 73.7639 31.8099 73.174 32.0031 72.8613C32.3121 72.3609 32.5515 71.8309 32.7638 71.253C32.8831 71.4697 33.0472 71.6582 33.2438 71.8059V72.5519C33.2438 74.2377 31.8723 75.6093 30.1865 75.6093H27.144C26.5688 75.6093 26.1025 76.0756 26.1025 76.6507C26.1025 77.226 26.5688 77.6922 27.144 77.6922H30.1865C33.0209 77.6922 35.3268 75.3863 35.3268 72.5519V71.8059C35.7484 71.4892 36.0211 70.9851 36.0211 70.4172V67.2767V66.0725C36.0211 65.4929 35.7369 64.9802 35.3005 64.6649C34.962 60.3817 31.3686 57 26.9999 57C22.6313 57 19.0379 60.3817 18.6994 64.6648C18.263 64.9801 17.9788 65.4929 17.9788 66.0724V70.4171C17.9788 71.3785 18.7598 72.153 19.7146 72.153ZM26.9999 59.083C30.2339 59.083 32.9014 61.5545 33.2131 64.7079C33.0085 64.8689 32.8408 65.0747 32.7253 65.3108C31.7425 62.7468 29.5487 60.9617 26.9999 60.9617C24.3961 60.9617 22.2375 62.8081 21.2783 65.3005C21.277 65.3039 21.2758 65.3074 21.2745 65.3108C21.159 65.0747 20.9913 64.8689 20.7866 64.7079C21.0986 61.5545 23.766 59.083 26.9999 59.083Z" fill="white"/>
</g>
<defs>
<filter id="filter0_d_348_1182" x="0.0131836" y="4" width="72.325" height="136.5" filterUnits="userSpaceOnUse" color-interpolation-filters="sRGB">
<feFlood flood-opacity="0" result="BackgroundImageFix"/>
<feColorMatrix in="SourceAlpha" type="matrix" values="0 0 0 0 0 0 0 0 0 0 0 0 0 0 0 0 0 0 127 0" result="hardAlpha"/>
<feOffset dx="6" dy="2"/>
<feGaussianBlur stdDeviation="4"/>
<feComposite in2="hardAlpha" operator="out"/>
<feColorMatrix type="matrix" values="0 0 0 0 0.175 0 0 0 0 0.175 0 0 0 0 0.175 0 0 0 0.16 0"/>
<feBlend mode="normal" in2="BackgroundImageFix" result="effect1_dropShadow_348_1182"/>
<feBlend mode="normal" in="SourceGraphic" in2="effect1_dropShadow_348_1182" result="shape"/>
</filter>
<clipPath id="clip0_348_1182">
<rect width="30" height="30" fill="white" transform="translate(12 57)"/>
</clipPath>
</defs>
</svg>
