<svg width="73" height="143" viewBox="0 0 73 143" fill="none" xmlns="http://www.w3.org/2000/svg">
<path d="M58 143V20.625V0L69 9.96875V129.938L58 143Z" fill="#B93E23"/>
<g filter="url(#filter0_d_348_1179)">
<path d="M68.9871 10L19.1109 55.9483C10.4601 63.9179 10.5212 77.5957 19.2428 85.4877L68.9871 130.5V10Z" fill="#DF6E55"/>
</g>
<path d="M37.7656 67.7813C37.6002 67.7808 37.4387 67.8319 37.3036 67.9275C37.1685 68.023 37.0665 68.1582 37.0117 68.3143C36.957 68.4704 36.9521 68.6398 36.9979 68.7987C37.0438 68.9577 37.1379 69.0985 37.2674 69.2016L38.1167 69.8813C37.9934 69.1877 37.9254 68.4855 37.9133 67.7813H37.7656Z" fill="white"/>
<path d="M30.4062 83.7187V85.5937H33.2188V79.1278C32.3731 79.5605 31.6632 80.2179 31.167 81.0278C30.6708 81.8378 30.4076 82.7689 30.4062 83.7187Z" fill="white"/>
<path d="M37.1684 61.3434C37.2924 61.6076 37.3606 61.8945 37.3687 62.1863C37.3767 62.478 37.3245 62.7683 37.2153 63.0389C37.1524 63.1966 37.1235 63.3658 37.1305 63.5354C37.1376 63.7051 37.1803 63.8713 37.256 64.0233L38.0365 65.5838C38.0603 65.5577 38.087 65.5346 38.1162 65.5148L41.2507 63.4252C42.034 62.9025 42.9547 62.624 43.8963 62.625C44.767 62.6237 45.6115 62.3275 46.2921 61.7845L47.457 60.8522C47.5078 60.8118 47.5665 60.7824 47.6292 60.7657C47.692 60.749 47.7575 60.7454 47.8217 60.7552C47.8858 60.7651 47.9472 60.7883 48.0019 60.8233C48.0566 60.8582 48.1034 60.9041 48.1395 60.9581L49.2274 62.5898C49.6649 63.2468 49.9453 63.9957 50.0468 64.7784L50.4546 63.6577C50.6697 63.0664 50.739 62.4321 50.6568 61.8083C50.5746 61.1846 50.3432 60.5899 49.9823 60.0746C49.6213 59.5593 49.1415 59.1386 48.5834 58.8482C48.0253 58.5578 47.4055 58.4062 46.7763 58.4063H42.7971C40.3426 58.4055 37.9257 59.0098 35.7603 60.1655L35.9009 60.2123C36.1787 60.3034 36.4347 60.4508 36.6528 60.6455C36.8709 60.8401 37.0464 61.0777 37.1684 61.3434Z" fill="white"/>
<path d="M42.125 69.6562C42.2493 69.6562 42.3685 69.6069 42.4565 69.519C42.5444 69.431 42.5938 69.3118 42.5938 69.1875V67.7812H40.7188V69.1875C40.7188 69.3118 40.7681 69.431 40.856 69.519C40.944 69.6069 41.0632 69.6562 41.1875 69.6562H42.125Z" fill="white"/>
<path d="M46.8125 69.6562C46.9368 69.6562 47.056 69.6069 47.144 69.519C47.2319 69.431 47.2812 69.3118 47.2812 69.1875V67.7812H45.4062V69.1875C45.4062 69.3118 45.4556 69.431 45.5435 69.519C45.6315 69.6069 45.7507 69.6562 45.875 69.6562H46.8125Z" fill="white"/>
<path d="M49.1562 65.4501C49.1572 64.6172 48.9107 63.8027 48.448 63.1101L47.6436 61.9036L46.8781 62.5167C46.0311 63.1926 44.98 63.5612 43.8964 63.5625C43.1394 63.5617 42.3992 63.7857 41.7697 64.2061L38.8438 66.157V66.8437H43.0625C43.1868 66.8437 43.306 66.8931 43.394 66.981C43.4819 67.0689 43.5312 67.1882 43.5312 67.3125V67.7812H44.4688V67.3125C44.4688 67.1882 44.5181 67.0689 44.606 66.981C44.694 66.8931 44.8132 66.8437 44.9375 66.8437H49.1562V65.4501Z" fill="white"/>
<path d="M38.8508 67.7812C38.8876 69.9297 39.4874 72.0309 40.5904 73.875H47.4093C48.5121 72.0309 49.1117 69.9297 49.1483 67.7812H48.2188V69.1875C48.2188 69.5605 48.0706 69.9181 47.8069 70.1819C47.5432 70.4456 47.1855 70.5938 46.8125 70.5938H45.875C45.5021 70.5938 45.1444 70.4456 44.8807 70.1819C44.617 69.9181 44.4688 69.5605 44.4688 69.1875V68.7188H43.5313V69.1875C43.5313 69.5605 43.3831 69.9181 43.1194 70.1819C42.8557 70.4456 42.498 70.5938 42.125 70.5938H41.1875C40.8146 70.5938 40.4569 70.4456 40.1932 70.1819C39.9295 69.9181 39.7813 69.5605 39.7813 69.1875V67.7812H38.8508Z" fill="white"/>
<path d="M54.7812 79.1278V85.5937H57.5938V83.7187C57.5924 82.7689 57.3291 81.8378 56.8329 81.0279C56.3367 80.2179 55.6268 79.5605 54.7812 79.1278Z" fill="white"/>
<path d="M52.4375 74.8125H35.5625C35.1895 74.8125 34.8319 74.9607 34.5681 75.2244C34.3044 75.4881 34.1562 75.8458 34.1562 76.2188V85.5938H53.8438V76.2188C53.8438 75.8458 53.6956 75.4881 53.4319 75.2244C53.1681 74.9607 52.8105 74.8125 52.4375 74.8125ZM45.0312 75.4688L45.7812 76.0312L42.9688 79.7812L42.2188 79.2188L45.0312 75.4688ZM41.5194 79.1686L40.8561 79.8319L38.9811 77.9569C38.9375 77.9133 38.9029 77.8616 38.8793 77.8047C38.8558 77.7478 38.8436 77.6868 38.8436 77.6252C38.8436 77.5636 38.8558 77.5026 38.8793 77.4457C38.9029 77.3888 38.9375 77.3371 38.9811 77.2936L40.8561 75.4186L41.5194 76.0819L39.9753 77.625L41.5194 79.1686ZM44 84.1875C43.6292 84.1875 43.2666 84.0775 42.9583 83.8715C42.65 83.6655 42.4096 83.3726 42.2677 83.03C42.1258 82.6874 42.0887 82.3104 42.161 81.9467C42.2334 81.583 42.412 81.2489 42.6742 80.9867C42.9364 80.7245 43.2705 80.5459 43.6342 80.4735C43.9979 80.4012 44.3749 80.4383 44.7175 80.5802C45.0601 80.7221 45.353 80.9625 45.559 81.2708C45.765 81.5791 45.875 81.9417 45.875 82.3125C45.875 82.8098 45.6775 83.2867 45.3258 83.6383C44.9742 83.99 44.4973 84.1875 44 84.1875ZM49.0189 77.9564L47.1439 79.8314L46.4806 79.1681L48.0242 77.625L46.4806 76.0814L47.1439 75.4181L49.0189 77.2931C49.0625 77.3367 49.0971 77.3884 49.1207 77.4453C49.1442 77.5022 49.1564 77.5632 49.1564 77.6248C49.1564 77.6864 49.1442 77.7474 49.1207 77.8043C49.0971 77.8612 49.0625 77.9129 49.0189 77.9564Z" fill="white"/>
<path d="M44 81.375C43.8146 81.375 43.6333 81.43 43.4792 81.533C43.325 81.636 43.2048 81.7824 43.1339 81.9537C43.0629 82.125 43.0443 82.3135 43.0805 82.4954C43.1167 82.6773 43.206 82.8443 43.3371 82.9754C43.4682 83.1065 43.6352 83.1958 43.8171 83.232C43.999 83.2682 44.1875 83.2496 44.3588 83.1786C44.5301 83.1077 44.6765 82.9875 44.7795 82.8333C44.8825 82.6792 44.9375 82.4979 44.9375 82.3125C44.9375 82.0639 44.8387 81.8254 44.6629 81.6496C44.4871 81.4738 44.2486 81.375 44 81.375Z" fill="white"/>
<path d="M50.0857 67.7813C50.0739 68.4856 50.0057 69.1878 49.8818 69.8813L50.7317 69.2016C50.8611 69.0986 50.9552 68.9579 51.001 68.799C51.0469 68.6401 51.0421 68.4708 50.9875 68.3148C50.9328 68.1587 50.8309 68.0235 50.696 67.9279C50.5611 67.8323 50.3997 67.781 50.2343 67.7813H50.0857Z" fill="white"/>
<defs>
<filter id="filter0_d_348_1179" x="0.662109" y="4" width="72.325" height="136.5" filterUnits="userSpaceOnUse" color-interpolation-filters="sRGB">
<feFlood flood-opacity="0" result="BackgroundImageFix"/>
<feColorMatrix in="SourceAlpha" type="matrix" values="0 0 0 0 0 0 0 0 0 0 0 0 0 0 0 0 0 0 127 0" result="hardAlpha"/>
<feOffset dx="-4" dy="2"/>
<feGaussianBlur stdDeviation="4"/>
<feComposite in2="hardAlpha" operator="out"/>
<feColorMatrix type="matrix" values="0 0 0 0 0.175 0 0 0 0 0.175 0 0 0 0 0.175 0 0 0 0.16 0"/>
<feBlend mode="normal" in2="BackgroundImageFix" result="effect1_dropShadow_348_1179"/>
<feBlend mode="normal" in="SourceGraphic" in2="effect1_dropShadow_348_1179" result="shape"/>
</filter>
</defs>
</svg>
