<svg width="73" height="143" viewBox="0 0 73 143" fill="none" xmlns="http://www.w3.org/2000/svg">
<path d="M58 143V20.625V0L69 9.96875V129.938L58 143Z" fill="#7B2D9A"/>
<g filter="url(#filter0_d_348_1181)">
<path d="M68.9868 10L19.1107 55.9483C10.4599 63.9179 10.521 77.5957 19.2426 85.4877L68.9868 130.5V10Z" fill="#A242C8"/>
</g>
<g clip-path="url(#clip0_348_1181)">
<path d="M36.6309 65.1016L34.0318 65.3024C33.3086 65.3583 32.6645 65.7373 32.2645 66.3423L29.2671 70.8758C28.9637 71.3345 28.9155 71.9087 29.138 72.4117C29.3605 72.9146 29.8178 73.2651 30.3613 73.3493L32.7411 73.7179C33.2978 70.7636 34.6304 67.8166 36.6309 65.1016Z" fill="white"/>
<path d="M42.282 83.2587L42.6506 85.6385C42.7348 86.1819 43.0853 86.6393 43.5882 86.8617C43.7974 86.9543 44.0189 87 44.2393 87C44.5488 87 44.8562 86.9099 45.1242 86.7327L49.6578 83.7353C50.2627 83.3353 50.6418 82.6911 50.6976 81.968L50.8984 79.3689C48.1833 81.3694 45.2363 82.7021 42.282 83.2587Z" fill="white"/>
<path d="M41.3871 81.6092C41.4697 81.6092 41.5528 81.6024 41.6357 81.5885C42.8734 81.3816 44.0664 81.033 45.2044 80.5766L35.4234 70.7957C34.9671 71.9336 34.6184 73.1266 34.4115 74.3643C34.3299 74.8522 34.4936 75.3493 34.8433 75.6991L40.3009 81.1567C40.5913 81.447 40.9833 81.6092 41.3871 81.6092Z" fill="white"/>
<path d="M56.6079 70.3009C59.0014 65.6735 59.09 60.7835 58.9649 58.4902C58.9221 57.7044 58.2956 57.0779 57.5098 57.0351C57.1363 57.0147 56.6938 57 56.195 57C53.6306 57 49.573 57.3884 45.6991 59.3921C42.6205 60.9845 38.5836 64.4908 36.2019 69.0987C36.23 69.1207 36.2575 69.144 36.2834 69.1699L46.8302 79.7167C46.8561 79.7426 46.8794 79.77 46.9013 79.7981C51.5092 77.4164 55.0155 73.3795 56.6079 70.3009ZM46.4431 63.3421C48.1565 61.6288 50.9444 61.6286 52.6578 63.3421C53.4879 64.1721 53.9449 65.2757 53.9449 66.4495C53.9449 67.6233 53.4879 68.7269 52.6578 69.5569C51.8013 70.4135 50.6757 70.8418 49.5505 70.842C48.425 70.842 47.2999 70.4137 46.4431 69.5569C45.6131 68.7269 45.156 67.6233 45.156 66.4495C45.156 65.2757 45.6131 64.1721 46.4431 63.3421Z" fill="white"/>
<path d="M47.6861 68.3138C48.7141 69.3419 50.387 69.3419 51.415 68.3138C51.913 67.8158 52.1873 67.1537 52.1873 66.4494C52.1873 65.7451 51.913 65.083 51.415 64.585C50.901 64.071 50.2258 63.814 49.5505 63.814C48.8754 63.814 48.2001 64.071 47.6861 64.585C47.1882 65.083 46.9138 65.7451 46.9138 66.4494C46.9138 67.1537 47.1881 67.8159 47.6861 68.3138Z" fill="white"/>
<path d="M29.8968 81.7228C30.1217 81.7228 30.3466 81.637 30.5182 81.4654L33.3877 78.5958C33.731 78.2526 33.731 77.6961 33.3877 77.3529C33.0445 77.0096 32.488 77.0096 32.1448 77.3529L29.2753 80.2224C28.932 80.5656 28.932 81.1221 29.2753 81.4654C29.4469 81.637 29.6718 81.7228 29.8968 81.7228Z" fill="white"/>
<path d="M36.0175 79.9825C35.6743 79.6393 35.1178 79.6393 34.7746 79.9825L29.2577 85.4994C28.9144 85.8427 28.9144 86.3991 29.2577 86.7424C29.4293 86.914 29.6542 86.9998 29.8792 86.9998C30.1041 86.9998 30.3291 86.914 30.5006 86.7423L36.0175 81.2255C36.3608 80.8822 36.3608 80.3258 36.0175 79.9825Z" fill="white"/>
<path d="M37.4042 82.6124L34.5348 85.4819C34.1915 85.8252 34.1915 86.3816 34.5348 86.7249C34.7064 86.8965 34.9313 86.9823 35.1562 86.9823C35.3811 86.9823 35.6061 86.8966 35.7777 86.7249L38.6472 83.8554C38.9904 83.5121 38.9904 82.9557 38.6472 82.6124C38.304 82.2692 37.7475 82.2692 37.4042 82.6124Z" fill="white"/>
</g>
<defs>
<filter id="filter0_d_348_1181" x="0.661865" y="4" width="72.325" height="136.5" filterUnits="userSpaceOnUse" color-interpolation-filters="sRGB">
<feFlood flood-opacity="0" result="BackgroundImageFix"/>
<feColorMatrix in="SourceAlpha" type="matrix" values="0 0 0 0 0 0 0 0 0 0 0 0 0 0 0 0 0 0 127 0" result="hardAlpha"/>
<feOffset dx="-4" dy="2"/>
<feGaussianBlur stdDeviation="4"/>
<feComposite in2="hardAlpha" operator="out"/>
<feColorMatrix type="matrix" values="0 0 0 0 0.175 0 0 0 0 0.175 0 0 0 0 0.175 0 0 0 0.16 0"/>
<feBlend mode="normal" in2="BackgroundImageFix" result="effect1_dropShadow_348_1181"/>
<feBlend mode="normal" in="SourceGraphic" in2="effect1_dropShadow_348_1181" result="shape"/>
</filter>
<clipPath id="clip0_348_1181">
<rect width="30" height="30" fill="white" transform="translate(29 57)"/>
</clipPath>
</defs>
</svg>
