<svg width="73" height="143" viewBox="0 0 73 143" fill="none" xmlns="http://www.w3.org/2000/svg">
<path d="M13 143V20.625V0L2 9.96875V129.938L13 143Z" fill="#926F46"/>
<g filter="url(#filter0_d_348_1180)">
<path d="M2.01318 10L51.8893 55.9483C60.5401 63.9179 60.479 77.5957 51.7574 85.4877L2.01318 130.5V10Z" fill="#ECB169"/>
</g>
<g clip-path="url(#clip0_348_1180)">
<path d="M34.002 73.0547C30.1572 73.0547 27.0293 76.1826 27.0293 80.0273C27.0293 83.8721 30.1572 87 34.002 87C37.879 87 41.0332 83.8721 41.0332 80.0273C41.0332 76.1826 37.879 73.0547 34.002 73.0547ZM36.142 79.1838L33.7982 81.9963C33.6302 82.1979 33.3821 82.3125 33.1231 82.3125C33.0894 82.3125 33.0556 82.3106 33.0217 82.3066C32.7271 82.2724 32.4696 82.092 32.3369 81.8266L31.3994 79.9516C31.1823 79.5175 31.3583 78.9895 31.7924 78.7725C32.2266 78.5553 32.7545 78.7314 32.9716 79.1655L33.3081 79.8386L34.7916 78.0584C35.1023 77.6856 35.6566 77.6353 36.0294 77.9459C36.4024 78.2566 36.4528 78.8108 36.142 79.1838Z" fill="white"/>
<path d="M33.6231 62.007L30.057 58.3192C30.0553 58.3174 30.0536 58.3156 30.0519 58.3138C29.2308 57.4789 28.0883 57 26.9174 57H15.6035C14.1496 57 12.9668 58.1828 12.9668 59.6367V82.4297C12.9668 83.8836 14.1496 85.0664 15.6035 85.0664H26.8764C25.866 83.6419 25.2715 81.9028 25.2715 80.0273C25.2715 75.2133 29.188 71.2969 34.002 71.2969C34.2986 71.2969 34.5917 71.3118 34.8809 71.3404V65.0848C34.8809 63.9264 34.4342 62.8336 33.6231 62.007ZM22.2832 76.6289H17.5957C17.1103 76.6289 16.7168 76.2354 16.7168 75.75C16.7168 75.2646 17.1103 74.8711 17.5957 74.8711H22.2832C22.7686 74.8711 23.1621 75.2646 23.1621 75.75C23.1621 76.2354 22.7686 76.6289 22.2832 76.6289ZM22.2832 71.9414H17.5957C17.1103 71.9414 16.7168 71.5479 16.7168 71.0625C16.7168 70.5771 17.1103 70.1836 17.5957 70.1836H22.2832C22.7686 70.1836 23.1621 70.5771 23.1621 71.0625C23.1621 71.5479 22.7686 71.9414 22.2832 71.9414ZM22.2832 67.2539H17.5957C17.1103 67.2539 16.7168 66.8604 16.7168 66.375C16.7168 65.8896 17.1103 65.4961 17.5957 65.4961H22.2832C22.7686 65.4961 23.1621 65.8896 23.1621 66.375C23.1621 66.8604 22.7686 67.2539 22.2832 67.2539ZM27.9082 71.9414H26.9707C26.4853 71.9414 26.0918 71.5479 26.0918 71.0625C26.0918 70.5771 26.4853 70.1836 26.9707 70.1836H27.9082C28.3936 70.1836 28.7871 70.5771 28.7871 71.0625C28.7871 71.5479 28.3936 71.9414 27.9082 71.9414ZM27.9082 67.2539H26.9707C26.4853 67.2539 26.0918 66.8604 26.0918 66.375C26.0918 65.8896 26.4853 65.4961 26.9707 65.4961H27.9082C28.3936 65.4961 28.7871 65.8896 28.7871 66.375C28.7871 66.8604 28.3936 67.2539 27.9082 67.2539Z" fill="white"/>
</g>
<defs>
<filter id="filter0_d_348_1180" x="0.0131836" y="4" width="72.325" height="136.5" filterUnits="userSpaceOnUse" color-interpolation-filters="sRGB">
<feFlood flood-opacity="0" result="BackgroundImageFix"/>
<feColorMatrix in="SourceAlpha" type="matrix" values="0 0 0 0 0 0 0 0 0 0 0 0 0 0 0 0 0 0 127 0" result="hardAlpha"/>
<feOffset dx="6" dy="2"/>
<feGaussianBlur stdDeviation="4"/>
<feComposite in2="hardAlpha" operator="out"/>
<feColorMatrix type="matrix" values="0 0 0 0 0.175 0 0 0 0 0.175 0 0 0 0 0.175 0 0 0 0.16 0"/>
<feBlend mode="normal" in2="BackgroundImageFix" result="effect1_dropShadow_348_1180"/>
<feBlend mode="normal" in="SourceGraphic" in2="effect1_dropShadow_348_1180" result="shape"/>
</filter>
<clipPath id="clip0_348_1180">
<rect width="30" height="30" fill="white" transform="translate(12 57)"/>
</clipPath>
</defs>
</svg>
