<svg width="73" height="143" viewBox="0 0 73 143" fill="none" xmlns="http://www.w3.org/2000/svg">
<path d="M58 143V20.625V0L69 9.96875V129.938L58 143Z" fill="#2D94B9"/>
<g filter="url(#filter0_d_171_213)">
<path d="M68.9871 10L19.1109 55.9483C10.4601 63.9179 10.5212 77.5957 19.2428 85.4877L68.9871 130.5V10Z" fill="#5DB8D8"/>
</g>
<path d="M58.1207 83.5217H57.1832V66.6205C57.1832 66.1475 56.7897 65.764 56.3043 65.764H52.7887C52.3034 65.764 51.9098 66.1475 51.9098 66.6205V83.5217H50.1521V72.3304C50.1521 71.8574 49.7585 71.4739 49.2732 71.4739H45.7576C45.2722 71.4739 44.8787 71.8574 44.8787 72.3304V83.5217H43.1209V75.4708C43.1209 74.9978 42.7274 74.6143 42.242 74.6143H38.7264C38.241 74.6143 37.8475 74.9978 37.8475 75.4708V83.5217H36.0897V77.5263C36.0897 77.0533 35.6962 76.6698 35.2109 76.6698H31.6953C31.2099 76.6698 30.8164 77.0533 30.8164 77.5263V83.5217H29.8789C29.3935 83.5217 29 83.9051 29 84.3781C29 84.8511 29.3935 85.2346 29.8789 85.2346H58.1207C58.6061 85.2346 58.9996 84.8511 58.9996 84.3781C58.9996 83.9051 58.6061 83.5217 58.1207 83.5217Z" fill="white"/>
<path d="M29.8789 74.4032C35.3642 74.4032 41.3127 72.4835 46.6286 68.9976C50.7919 66.2674 54.2625 62.7797 56.4182 59.2083L57.2718 62.3126C57.377 62.6953 57.8851 63.0259 58.3482 62.9182C58.8204 62.8084 59.0953 62.3261 58.9697 61.8692L57.5304 56.635C57.4047 56.1782 56.9231 55.9069 56.454 56.0294L51.0828 57.4319C50.6139 57.5543 50.3357 58.024 50.4614 58.4809C50.587 58.9378 51.0687 59.209 51.5378 59.0865L54.998 58.1829C52.9868 61.5886 49.6629 64.9431 45.6473 67.5764C40.6183 70.8742 35.0184 72.6903 29.8789 72.6903C29.3935 72.6903 29 73.0738 29 73.5468C29 74.0198 29.3935 74.4032 29.8789 74.4032Z" fill="white"/>
<defs>
<filter id="filter0_d_171_213" x="0.662109" y="4" width="72.325" height="136.5" filterUnits="userSpaceOnUse" color-interpolation-filters="sRGB">
<feFlood flood-opacity="0" result="BackgroundImageFix"/>
<feColorMatrix in="SourceAlpha" type="matrix" values="0 0 0 0 0 0 0 0 0 0 0 0 0 0 0 0 0 0 127 0" result="hardAlpha"/>
<feOffset dx="-4" dy="2"/>
<feGaussianBlur stdDeviation="4"/>
<feComposite in2="hardAlpha" operator="out"/>
<feColorMatrix type="matrix" values="0 0 0 0 0.175 0 0 0 0 0.175 0 0 0 0 0.175 0 0 0 0.16 0"/>
<feBlend mode="normal" in2="BackgroundImageFix" result="effect1_dropShadow_171_213"/>
<feBlend mode="normal" in="SourceGraphic" in2="effect1_dropShadow_171_213" result="shape"/>
</filter>
</defs>
</svg>
