<svg width="189" height="112" viewBox="0 0 189 112" fill="none" xmlns="http://www.w3.org/2000/svg">
<path d="M21.8135 10.7887L39.5 0.57735L57.1865 10.7887V31.2113L39.5 41.4226L21.8135 31.2113V10.7887Z" stroke="#EBF2FA"/>
<path d="M3.81347 41.7887L21.5 31.5774L39.1865 41.7887V62.2113L21.5 72.4226L3.81347 62.2113V41.7887Z" stroke="#EBF2FA"/>
<path d="M22 26L28.4952 29.75V37.25L22 41L15.5048 37.25V29.75L22 26Z" fill="#6CE8FC"/>
<path d="M39.8135 41.7887L57.5 31.5774L75.1865 41.7887V62.2113L57.5 72.4226L39.8135 62.2113V41.7887Z" stroke="#EBF2FA"/>
<path d="M167.187 49.7887L149.5 39.5774L131.813 49.7887V70.2113L149.5 80.4226L167.187 70.2113V49.7887Z" stroke="#EBF2FA"/>
<path d="M185.187 80.7887L167.5 70.5774L149.813 80.7887V101.211L167.5 111.423L185.187 101.211V80.7887Z" stroke="#EBF2FA"/>
<path d="M167 65L160.505 68.75V76.25L167 80L173.495 76.25V68.75L167 65Z" fill="#B1F9FD"/>
<path d="M149.187 80.7887L131.5 70.5774L113.813 80.7887V101.211L131.5 111.423L149.187 101.211V80.7887Z" stroke="#EBF2FA"/>
<mask id="mask0_40_1159" style="mask-type:alpha" maskUnits="userSpaceOnUse" x="46" y="1" width="97" height="110">
<path d="M90.5 2.3094C92.9752 0.880338 96.0248 0.880339 98.5 2.3094L138.997 25.6906C141.473 27.1197 142.997 29.7607 142.997 32.6188V79.3812C142.997 82.2393 141.473 84.8803 138.997 86.3094L98.5 109.691C96.0248 111.12 92.9752 111.12 90.5 109.691L50.0026 86.3094C47.5274 84.8803 46.0026 82.2393 46.0026 79.3812V32.6188C46.0026 29.7607 47.5274 27.1197 50.0026 25.6906L90.5 2.3094Z" fill="#C4C4C4"/>
</mask>
<g mask="url(#mask0_40_1159)">
<path d="M94.7959 63.52V-9.46667L166.26 -34V104L94.7959 63.52Z" fill="url(#paint0_linear_40_1159)"/>
<path d="M94.7959 63.52V-9.46667L24.5638 -34V104L94.7959 63.52Z" fill="url(#paint1_linear_40_1159)"/>
<path d="M-8.5 122.661L94.6443 63L201.31 122.661H-8.5Z" fill="url(#paint2_linear_40_1159)"/>
</g>
<path d="M91 8.17543C93.1658 6.925 95.8342 6.925 98 8.17543L134.167 29.0566C136.333 30.3071 137.667 32.6179 137.667 35.1188V76.8812C137.667 79.3821 136.333 81.6929 134.167 82.9434L98 103.825C95.8342 105.075 93.1658 105.075 91 103.825L54.8327 82.9434C52.6669 81.6929 51.3327 79.3821 51.3327 76.8812V35.1188C51.3327 32.6179 52.6669 30.3071 54.8327 29.0566L91 8.17543Z" stroke="white" stroke-width="2"/>
<g clip-path="url(#clip0_40_1159)">
<path d="M110.512 32.1125L95.2031 36.6969L97.35 43.8875C98.0531 43.5687 98.7563 43.1281 99.4875 42.5469C99.7594 42.3312 100.059 42.1719 100.387 42.0781C101.156 41.8437 101.991 41.975 102.666 42.425C103.341 42.875 103.772 43.6062 103.847 44.4219C103.95 45.4906 103.388 46.5406 102.441 47.0375C101.953 47.3 101.4 47.4031 100.856 47.3375C99.9562 47.2344 99.1406 47.2437 98.4 47.3844L100.556 54.5937L108.169 52.3156C108.206 52.3062 108.244 52.2969 108.281 52.2969C108.347 52.2969 108.413 52.3156 108.469 52.3437C108.562 52.4 108.628 52.4844 108.656 52.5875C108.891 53.5344 108.938 54.5562 108.797 55.7187C108.75 56.1125 108.825 56.4969 109.012 56.8531C109.369 57.5281 110.109 57.9312 110.869 57.8562C111.459 57.8 111.975 57.4906 112.303 57.0125C112.622 56.5344 112.716 55.9437 112.547 55.3906C112.472 55.1562 112.359 54.9406 112.209 54.7437C111.469 53.8156 110.944 52.925 110.597 52.0156C110.559 51.9125 110.559 51.8 110.606 51.7062C110.653 51.6125 110.737 51.5375 110.841 51.5094L118.434 49.2312L113.869 33.9312C113.447 32.4969 111.937 31.6906 110.512 32.1125Z" fill="white"/>
<path d="M108.675 61.3156H101.175C101.278 62.075 101.494 62.8719 101.841 63.7437C101.972 64.0625 102.028 64.4 102.028 64.7469C102.028 65.5531 101.672 66.3125 101.044 66.8281C100.416 67.3437 99.6001 67.55 98.7845 67.3906C97.7345 67.1844 96.8814 66.3406 96.6751 65.2906C96.5626 64.7469 96.6189 64.1844 96.8439 63.6875C97.2001 62.8531 97.4251 62.075 97.5095 61.325H90.0001V69.2656C90.0001 69.3687 89.9532 69.4719 89.8782 69.5469C89.8032 69.6219 89.7001 69.6594 89.597 69.65C88.6314 69.6031 87.6376 69.3594 86.5595 68.8906C86.2032 68.7312 85.8001 68.6937 85.4064 68.7687C84.6564 68.9187 84.0657 69.5187 83.9157 70.2594C83.8032 70.8406 83.9439 71.4312 84.3095 71.8719C84.6751 72.3219 85.2189 72.575 85.7907 72.575C86.0345 72.575 86.2782 72.5281 86.5032 72.4344C87.6095 71.9937 88.6126 71.7406 89.5782 71.6656C89.6907 71.6562 89.7939 71.6937 89.8689 71.7687C89.9439 71.8437 89.9907 71.9469 89.9907 72.05V80H105.966C107.456 80 108.666 78.7906 108.666 77.3V61.3156H108.675Z" fill="white"/>
<path d="M89.2219 80V72.5C88.4625 72.6031 87.6656 72.8187 86.7938 73.175C86.475 73.3062 86.1375 73.3625 85.7906 73.3625C84.9844 73.3625 84.225 73.0062 83.7094 72.3781C83.1937 71.75 82.9875 70.9344 83.1469 70.1187C83.3531 69.0687 84.1969 68.2156 85.2469 68.0094C85.7906 67.8969 86.3531 67.9531 86.85 68.1781C87.6844 68.5344 88.4625 68.75 89.2125 68.8344V61.3062H81.2812C81.1781 61.3062 81.075 61.2594 81 61.1844C80.925 61.1094 80.8875 61.0062 80.8969 60.9031C80.9438 59.9375 81.1875 58.9437 81.6562 57.8656C81.8156 57.5094 81.8531 57.1062 81.7781 56.7219C81.6281 55.9719 81.0281 55.3812 80.2875 55.2312C79.7063 55.1187 79.1156 55.2594 78.675 55.625C78.225 55.9906 77.9719 56.5344 77.9719 57.1062C77.9719 57.35 78.0187 57.5937 78.1031 57.8187C78.5437 58.925 78.7969 59.9281 78.8719 60.8937C78.8813 60.9969 78.8438 61.1094 78.7687 61.1844C78.6937 61.2594 78.5906 61.3062 78.4875 61.3062H70.5469V77.2812C70.5469 78.7719 71.7562 79.9812 73.2469 79.9812H89.2219V80Z" fill="white"/>
<path d="M70.5469 60.5469H78.0469C77.9437 59.7875 77.7281 58.9906 77.3719 58.1187C77.2406 57.8 77.1844 57.4625 77.1844 57.1156C77.1844 56.3094 77.5406 55.55 78.1688 55.0344C78.7969 54.5187 79.6125 54.3125 80.4188 54.4719C81.4688 54.6781 82.3219 55.5219 82.5281 56.5719C82.6406 57.1156 82.5844 57.6781 82.3594 58.175C82.0031 59.0094 81.7875 59.7875 81.6938 60.5375H89.2219V52.5969C89.2219 52.4937 89.2687 52.3906 89.3438 52.3156C89.4188 52.2406 89.5219 52.2031 89.625 52.2125C90.5906 52.2594 91.5844 52.5031 92.6625 52.9719C93.0187 53.1312 93.4219 53.1687 93.8156 53.0937C94.5656 52.9437 95.1562 52.3437 95.3063 51.6031C95.4188 51.0219 95.2781 50.4312 94.9125 49.9906C94.5469 49.5406 94.0031 49.2875 93.4313 49.2875C93.1875 49.2875 92.9438 49.3344 92.7188 49.4281C91.6125 49.8687 90.6094 50.1219 89.6437 50.1969C89.5406 50.2062 89.4281 50.1687 89.3531 50.0937C89.2781 50.0187 89.2313 49.9156 89.2313 49.8125V41.8812H73.2469C71.7562 41.8812 70.5469 43.0906 70.5469 44.5812V60.5469Z" fill="white"/>
</g>
<defs>
<linearGradient id="paint0_linear_40_1159" x1="130.528" y1="-34" x2="130.528" y2="104" gradientUnits="userSpaceOnUse">
<stop stop-color="#52B3DE"/>
<stop offset="1" stop-color="#58C1DE"/>
</linearGradient>
<linearGradient id="paint1_linear_40_1159" x1="59.6798" y1="-34" x2="59.6798" y2="104" gradientUnits="userSpaceOnUse">
<stop stop-color="#5CC8ED"/>
<stop offset="1" stop-color="#66DEEC"/>
</linearGradient>
<linearGradient id="paint2_linear_40_1159" x1="96.4052" y1="63" x2="96.4052" y2="122.661" gradientUnits="userSpaceOnUse">
<stop stop-color="#61D3EB"/>
<stop offset="1" stop-color="#65DCEB"/>
</linearGradient>
<clipPath id="clip0_40_1159">
<rect width="48" height="48" fill="white" transform="translate(70.5 32)"/>
</clipPath>
</defs>
</svg>
