<svg width="17" height="62" viewBox="0 0 17 62" fill="none" xmlns="http://www.w3.org/2000/svg">
<circle cx="14.148" cy="59.148" r="2.25926" transform="rotate(180 14.148 59.148)" fill="#B5E2FC"/>
<circle cx="2.85182" cy="59.148" r="2.25926" transform="rotate(180 2.85182 59.148)" fill="#B5E2FC"/>
<circle cx="14.1482" cy="47.8516" r="2.25926" transform="rotate(180 14.1482 47.8516)" fill="#B5E2FC"/>
<circle cx="2.85182" cy="47.8516" r="2.25926" transform="rotate(180 2.85182 47.8516)" fill="#B5E2FC"/>
<circle cx="14.1482" cy="36.5552" r="2.25926" transform="rotate(180 14.1482 36.5552)" fill="#B5E2FC"/>
<circle cx="2.85182" cy="36.5552" r="2.25926" transform="rotate(180 2.85182 36.5552)" fill="#B5E2FC"/>
<circle cx="14.1482" cy="25.2593" r="2.25926" transform="rotate(180 14.1482 25.2593)" fill="#B5E2FC"/>
<circle cx="2.85182" cy="25.2593" r="2.25926" transform="rotate(180 2.85182 25.2593)" fill="#B5E2FC"/>
<circle cx="14.1482" cy="13.9629" r="2.25926" transform="rotate(180 14.1482 13.9629)" fill="#B5E2FC"/>
<circle cx="2.85182" cy="13.9629" r="2.25926" transform="rotate(180 2.85182 13.9629)" fill="#B5E2FC"/>
<circle cx="14.1482" cy="2.66652" r="2.25926" transform="rotate(180 14.1482 2.66652)" fill="#B5E2FC"/>
<circle cx="2.85182" cy="2.66652" r="2.25926" transform="rotate(180 2.85182 2.66652)" fill="#B5E2FC"/>
</svg>
