<svg width="61" height="16" viewBox="0 0 61 16" fill="none" xmlns="http://www.w3.org/2000/svg">
<circle cx="58.7407" cy="2.25926" r="2.25926" transform="rotate(90 58.7407 2.25926)" fill="#F3C9B1"/>
<circle cx="58.7407" cy="13.5552" r="2.25926" transform="rotate(90 58.7407 13.5552)" fill="#F3C9B1"/>
<circle cx="47.4444" cy="2.25926" r="2.25926" transform="rotate(90 47.4444 2.25926)" fill="#F3C9B1"/>
<circle cx="47.4444" cy="13.5552" r="2.25926" transform="rotate(90 47.4444 13.5552)" fill="#F3C9B1"/>
<circle cx="36.1482" cy="2.25926" r="2.25926" transform="rotate(90 36.1482 2.25926)" fill="#F3C9B1"/>
<circle cx="36.1482" cy="13.5552" r="2.25926" transform="rotate(90 36.1482 13.5552)" fill="#F3C9B1"/>
<circle cx="24.8518" cy="2.25926" r="2.25926" transform="rotate(90 24.8518 2.25926)" fill="#F3C9B1"/>
<circle cx="24.8518" cy="13.5552" r="2.25926" transform="rotate(90 24.8518 13.5552)" fill="#F3C9B1"/>
<circle cx="13.5554" cy="2.25926" r="2.25926" transform="rotate(90 13.5554 2.25926)" fill="#F3C9B1"/>
<circle cx="13.5554" cy="13.5552" r="2.25926" transform="rotate(90 13.5554 13.5552)" fill="#F3C9B1"/>
<circle cx="2.2593" cy="2.25926" r="2.25926" transform="rotate(90 2.2593 2.25926)" fill="#F3C9B1"/>
<circle cx="2.2593" cy="13.5552" r="2.25926" transform="rotate(90 2.2593 13.5552)" fill="#F3C9B1"/>
</svg>
