<svg width="12" height="14" viewBox="0 0 12 14" fill="none" xmlns="http://www.w3.org/2000/svg">
<path d="M5.75168 6.74387C6.67816 6.74387 7.48042 6.41158 8.13593 5.75597C8.79143 5.10046 9.12372 4.29842 9.12372 3.37183C9.12372 2.44556 8.79143 1.6434 8.13582 0.987686C7.48021 0.332291 6.67805 0 5.75168 0C4.82509 0 4.02304 0.332291 3.36754 0.987793C2.71204 1.6433 2.37964 2.44545 2.37964 3.37183C2.37964 4.29842 2.71204 5.10057 3.36765 5.75607C4.02325 6.41147 4.82541 6.74387 5.75168 6.74387Z" fill="#6F7B88"/>
<path d="M11.6519 10.7654C11.633 10.4926 11.5948 10.1951 11.5385 9.88083C11.4817 9.56424 11.4085 9.26496 11.3209 8.99142C11.2304 8.70869 11.1074 8.42948 10.9553 8.16192C10.7974 7.88421 10.612 7.64239 10.4039 7.4434C10.1864 7.23523 9.91997 7.06785 9.61193 6.94577C9.30496 6.82433 8.96476 6.7628 8.60086 6.7628C8.45794 6.7628 8.31973 6.82144 8.05281 6.99522C7.88853 7.10235 7.69638 7.22626 7.4819 7.36329C7.29851 7.48015 7.05007 7.58963 6.7432 7.68875C6.44381 7.78563 6.13982 7.83476 5.83979 7.83476C5.53976 7.83476 5.23588 7.78563 4.93617 7.68875C4.62962 7.58973 4.38118 7.48025 4.198 7.3634C3.98555 7.22764 3.79329 7.10374 3.62656 6.99512C3.35996 6.82133 3.22164 6.7627 3.07872 6.7627C2.71471 6.7627 2.37462 6.82433 2.06776 6.94588C1.75993 7.06775 1.49343 7.23512 1.27565 7.44351C1.06768 7.64261 0.882153 7.88432 0.7245 8.16192C0.572508 8.42948 0.449461 8.70858 0.358885 8.99152C0.271407 9.26507 0.198241 9.56424 0.141418 9.88083C0.0851284 10.1946 0.0468901 10.4923 0.0279845 10.7658C0.00939938 11.0336 0 11.3117 0 11.5925C0 12.3233 0.232314 12.9149 0.690427 13.3512C1.14288 13.7818 1.74155 14.0002 2.46958 14.0002H9.21064C9.93867 14.0002 10.5371 13.7819 10.9897 13.3512C11.4479 12.9152 11.6802 12.3235 11.6802 11.5924C11.6801 11.3103 11.6706 11.032 11.6519 10.7654Z" fill="#6F7B88"/>
</svg>
